<svg width="1920" height="960" viewBox="0 0 1920 960" fill="none" xmlns="http://www.w3.org/2000/svg">
<g clip-path="url(#clip0_7024_162005)">
<path d="M1920 0H0V992.926H1920V0Z" fill="#16254C"/>
<path d="M988.919 189.399C998.197 166.999 987.56 141.318 965.16 132.039C942.76 122.761 917.079 133.398 907.8 155.798C898.522 178.198 909.159 203.879 931.559 213.158C953.959 222.436 979.64 211.799 988.919 189.399Z" fill="#4479BD"/>
<path d="M949.038 51H947.638V117.7H949.038V51Z" fill="#4479BD"/>
<path d="M958.238 111.9H938.538V124.7C939.738 124.7 939.738 123.3 941.038 123.3C942.238 123.3 942.238 124.7 943.538 124.7C944.738 124.7 944.738 123.3 946.038 123.3C947.238 123.3 947.238 124.7 948.538 124.7C949.738 124.7 949.738 123.3 951.038 123.3C952.338 123.3 952.238 124.7 953.538 124.7C954.738 124.7 954.738 123.3 956.038 123.3C957.238 123.3 957.238 124.7 958.538 124.7H958.638V111.9H958.238Z" fill="#4479BD"/>
<path d="M146.919 185.493C156.198 163.092 145.56 137.411 123.16 128.133C100.76 118.854 75.0791 129.491 65.8004 151.891C56.5217 174.292 67.1588 199.973 89.5591 209.251C111.959 218.53 137.64 207.893 146.919 185.493Z" fill="#4479BD"/>
<path d="M107.093 56H105.693V113.8H107.093V56Z" fill="#4479BD"/>
<path d="M116.193 108H96.4932V120.8C97.6932 120.8 97.6932 119.4 98.9932 119.4C100.193 119.4 100.193 120.8 101.493 120.8C102.693 120.8 102.693 119.4 103.993 119.4C105.193 119.4 105.193 120.8 106.493 120.8C107.693 120.8 107.693 119.4 108.993 119.4C110.193 119.4 110.193 120.8 111.493 120.8C112.693 120.8 112.693 119.4 113.993 119.4C115.193 119.4 115.193 120.8 116.493 120.8H116.593V108H116.193Z" fill="#4479BD"/>
<path d="M1748 265.3C1767.88 265.3 1784 249.182 1784 229.3C1784 209.418 1767.88 193.3 1748 193.3C1728.12 193.3 1712 209.418 1712 229.3C1712 249.182 1728.12 265.3 1748 265.3Z" fill="#F2F7F5"/>
<path d="M1748.6 54H1747.5V184.2H1748.6V54Z" fill="#F2F7F5"/>
<path d="M1756.1 179.4H1739.9V190C1740.9 190 1740.9 188.9 1741.9 188.9C1742.9 188.9 1742.9 190 1743.9 190C1744.9 190 1744.9 188.9 1745.9 188.9C1746.9 188.9 1746.9 190 1747.9 190C1748.9 190 1748.9 188.9 1749.9 188.9C1750.9 188.9 1750.9 190 1751.9 190C1752.9 190 1752.9 188.9 1753.9 188.9C1754.9 188.9 1754.9 190 1755.9 190H1756V179.4H1756.1Z" fill="#F2F7F5"/>
<path d="M852 173C871.882 173 888 156.882 888 137C888 117.118 871.882 101 852 101C832.118 101 816 117.118 816 137C816 156.882 832.118 173 852 173Z" fill="#F2F7F5"/>
<path d="M852.6 53H851.5V91.9H852.6V53Z" fill="#F2F7F5"/>
<path d="M860.1 87.2H843.9V97.7C844.9 97.7 844.9 96.5999 845.9 96.5999C846.9 96.5999 846.9 97.7 847.9 97.7C848.9 97.7 848.9 96.5999 849.9 96.5999C850.9 96.5999 850.9 97.7 851.9 97.7C852.9 97.7 852.9 96.5999 853.9 96.5999C854.9 96.5999 854.9 97.7 855.9 97.7C856.9 97.7 856.9 96.5999 857.9 96.5999C858.9 96.5999 858.9 97.7 859.9 97.7H860V87.2H860.1Z" fill="#F2F7F5"/>
<path d="M1548.6 233.9C1550.1 235.1 1551.9 236.4 1551.9 236.4L1547.9 227.1L1545.9 231.7C1545.9 231.6 1547 232.6 1548.6 233.9Z" fill="#4479BD"/>
<path d="M1593.5 227L1584.8 247.3C1584.8 247.3 1588.8 247.5 1593.6 247C1598.5 246.4 1601.4 245.6 1601.4 245.6L1593.5 227Z" fill="#4479BD"/>
<path d="M1604.9 200.4L1616.3 227L1627.7 200.4H1604.9Z" fill="#FAFBFC"/>
<path d="M1559.3 200.4L1570.7 227L1582.1 200.4H1559.3Z" fill="#FAFBFC"/>
<path d="M1536.5 200.4L1547.9 227L1559.3 200.4H1536.5Z" fill="#FAFBFC"/>
<path d="M1593.5 227L1601.5 245.6C1601.5 245.6 1603.4 245.1 1605.4 244.5C1607.4 243.9 1609.4 243.1 1609.4 243.1L1616.3 227.1H1593.5V227Z" fill="#FAFBFC"/>
<path d="M1570.7 227L1579.2 246.8C1579.2 246.8 1580.9 247 1582.1 247.1C1583.3 247.2 1584.8 247.3 1584.8 247.3L1593.5 227H1570.7Z" fill="#FAFBFC"/>
<path d="M1529.2 206.6C1530.2 209.5 1531.5 212.1 1531.5 212.1L1536.5 200.3H1527.3C1527.3 200.4 1528.1 203.8 1529.2 206.6Z" fill="#FAFBFC"/>
<path d="M1547.9 227L1551.9 236.3C1551.9 236.3 1554.3 238 1557.5 239.8C1560.7 241.6 1563.9 242.8 1563.9 242.8L1570.7 227H1547.9Z" fill="#FAFBFC"/>
<path d="M1541.3 227C1541.3 227 1542.3 228.2 1543.6 229.5C1544.9 230.8 1545.8 231.6 1545.8 231.6L1547.8 227H1541.3Z" fill="#FAFBFC"/>
<path d="M1536.5 200.4L1531.5 212.2C1531.5 212.2 1533.6 216.6 1536 220.1C1538.4 223.6 1541.4 227 1541.4 227H1548L1536.5 200.4Z" fill="#16254C"/>
<path d="M1547.9 227H1570.7L1559.3 200.4L1547.9 227Z" fill="#16254C"/>
<path d="M1525.7 188.9C1526 195.3 1527.3 200.4 1527.3 200.4H1536.5L1526.3 176.7C1526.3 176.7 1525.4 182.5 1525.7 188.9Z" fill="#4E5B7F"/>
<path d="M1530.3 162.5C1527.4 169.5 1526.8 173.8 1526.8 173.8H1525H1547.8L1537.5 149.7C1537.6 149.7 1533.2 155.4 1530.3 162.5Z" fill="#16254C"/>
<path d="M1526.6 175.3C1526.5 176 1526.4 176.7 1526.4 176.7L1536.6 200.4L1548 173.8H1527C1526.8 173.8 1526.7 174.5 1526.6 175.3Z" fill="#FAFBFC"/>
<path d="M1536.5 200.4H1559.3L1547.9 173.8L1536.5 200.4Z" fill="#4E5B7F"/>
<path d="M1545.9 140.5C1541.9 144.2 1539.5 147.1 1539.5 147.1H1559.2L1553.8 134.4C1553.8 134.4 1549.9 136.8 1545.9 140.5Z" fill="#4479BD"/>
<path d="M1538.5 148.4C1538.1 148.9 1537.6 149.6 1537.6 149.6L1547.9 173.7L1559.3 147.1H1539.6C1539.5 147.2 1538.9 148 1538.5 148.4Z" fill="#FAFBFC"/>
<path d="M1553.8 134.4L1559.2 147.1L1567.4 127.8C1567.4 127.8 1564.1 128.8 1559.9 130.8C1555.9 133 1553.8 134.4 1553.8 134.4Z" fill="#2A4173"/>
<path d="M1547.9 173.8L1559.3 200.4L1570.7 173.8H1547.9Z" fill="#4479BD"/>
<path d="M1559.3 200.4H1582.1L1570.7 173.8L1559.3 200.4Z" fill="#4E5B7F"/>
<path d="M1573.2 126.3L1582.1 147.1L1591.6 124.9C1591.6 124.9 1587.1 124.5 1582.2 124.9C1577.2 125.3 1573.2 126.3 1573.2 126.3Z" fill="#2A4173"/>
<path d="M1570.7 173.8L1582.1 200.4L1593.5 173.8H1570.7Z" fill="#4479BD"/>
<path d="M1593.7 125.1C1592.8 125 1591.6 124.9 1591.6 124.9L1582.1 147.1H1604.9L1595.6 125.3C1595.6 125.4 1594.6 125.2 1593.7 125.1Z" fill="#4479BD"/>
<path d="M1582.1 147.2L1593.5 173.8L1604.9 147.2H1582.1Z" fill="#2A4173"/>
<path d="M1595.6 125.4L1604.9 147.2L1612.2 130.3C1612.2 130.3 1609.5 129 1604.8 127.5C1600.1 126 1595.6 125.4 1595.6 125.4Z" fill="#FAFBFC"/>
<path d="M1593.5 173.8H1616.3L1604.9 147.2L1593.5 173.8Z" fill="#16254C"/>
<path d="M1593.5 173.8L1604.9 200.4L1616.3 173.8H1593.5Z" fill="#FAFBFC"/>
<path d="M1618.2 133.4C1615.7 131.8 1612.1 130.2 1612.1 130.2L1604.8 147.1H1627.6L1623.1 136.6C1623.2 136.7 1621.1 135.1 1618.2 133.4Z" fill="#4E5B7F"/>
<path d="M1616.3 173.8L1604.9 200.4H1627.7L1616.3 173.8Z" fill="url(#paint0_linear_7024_162005)"/>
<path d="M1604.9 147.2L1616.3 173.8L1627.7 147.2H1604.9Z" fill="#FAFBFC"/>
<path d="M1616.3 173.8H1639.1L1627.7 147.2L1616.3 173.8Z" fill="#16254C"/>
<path d="M1623.2 136.7L1627.7 147.2L1629.8 142.3C1629.8 142.3 1628.4 141 1627 139.7C1625.6 138.5 1623.2 136.7 1623.2 136.7Z" fill="#2A4173"/>
<path d="M1616.3 173.8L1627.7 200.4L1639.1 173.8H1616.3Z" fill="#4479BD"/>
<path d="M1632.2 144.8C1631.4 143.9 1629.8 142.3 1629.8 142.3L1627.7 147.2H1634.2C1634.2 147.2 1633.1 145.8 1632.2 144.8Z" fill="#4479BD"/>
<path d="M1627.7 147.2L1639.1 173.8L1643.7 163.1C1643.7 163.1 1642.1 159.2 1639.6 154.8C1637 150.5 1634.3 147.2 1634.3 147.2H1627.7Z" fill="#2A4173"/>
<path d="M1571.8 245.4C1575.9 246.4 1579.2 246.8 1579.2 246.8L1570.7 227L1563.9 242.8C1563.9 242.9 1567.6 244.4 1571.8 245.4Z" fill="url(#paint1_linear_7024_162005)"/>
<path d="M1570.7 227H1593.5H1616.3L1604.9 200.4L1593.5 173.8L1582.1 200.4L1570.7 227Z" fill="#16254C"/>
<path d="M1547.9 173.8H1570.7H1593.5L1582.1 147.2L1573.2 126.4C1573.2 126.4 1571.9 126.7 1570.4 127.1C1568.9 127.5 1567.6 128 1567.6 128L1559.4 147.3L1547.9 173.8Z" fill="url(#paint2_linear_7024_162005)"/>
<path d="M1616.3 227L1620.7 237.2C1620.7 237.2 1623.8 235.2 1626.9 232.5C1630 229.8 1632.5 227.1 1632.5 227.1H1616.3V227Z" fill="#16254C"/>
<path d="M1627.7 200.4L1616.3 227H1632.5C1632.5 227 1633.4 226 1634.7 224.5C1636 222.9 1636.9 221.7 1636.9 221.7L1627.7 200.4Z" fill="#2A4173"/>
<path d="M1627.7 200.4L1636.8 221.6C1636.8 221.6 1640.7 216.2 1643.1 210.4C1645.5 204.6 1646.5 200.3 1646.5 200.3H1627.7V200.4Z" fill="#4479BD"/>
<path d="M1627.7 200.4H1646.5C1646.5 200.4 1648.4 194.6 1648.1 183.1C1647.7 171.6 1643.8 163.1 1643.8 163.1L1639.2 173.8L1627.7 200.4Z" fill="#4E5B7F"/>
<path d="M1615.5 240.2C1618.1 238.9 1620.6 237.1 1620.6 237.1L1616.2 226.9L1609.3 242.9C1609.4 243 1613 241.6 1615.5 240.2Z" fill="#4479BD"/>
<path d="M1587.8 3H1585.9V109.3H1587.8V3Z" fill="#4479BD"/>
<path d="M1600.7 101.3H1573.2V119.2C1574.9 119.2 1574.9 117.2 1576.6 117.2C1578.3 117.2 1578.3 119.2 1580 119.2C1581.7 119.2 1581.7 117.2 1583.4 117.2C1585.1 117.2 1585.1 119.2 1586.8 119.2C1588.5 119.2 1588.5 117.2 1590.2 117.2C1591.9 117.2 1591.9 119.2 1593.6 119.2C1595.3 119.2 1595.3 117.2 1597 117.2C1598.7 117.2 1598.7 119.2 1600.4 119.2C1600.5 119.2 1600.5 119.2 1600.6 119.2V101.3H1600.7Z" fill="url(#paint3_linear_7024_162005)"/>
<path d="M252.447 200.9L242.247 224.8L231.947 200.9H252.447Z" fill="#FAFBFC"/>
<path d="M297.447 224.8H283.347L291.447 205.9C291.447 205.9 294.647 211.9 295.947 217C297.147 221.8 297.447 224.8 297.447 224.8Z" fill="#2A4173"/>
<path d="M294.547 249.9L294.247 250.5L293.547 248.8H294.847L294.547 249.9Z" fill="#2A4173"/>
<path d="M296.047 245.2C295.847 246.2 294.947 248.8 294.947 248.8H293.547L296.947 240.9C296.947 240.9 296.347 244.1 296.047 245.2Z" fill="#4E5B7F"/>
<path d="M272.047 277C269.947 278.4 265.847 280.2 265.847 280.2L262.647 272.8H277.947C278.047 272.8 274.847 275.5 272.047 277Z" fill="#4479BD"/>
<path d="M265.947 280.2C265.947 280.2 264.647 280.8 262.747 281.5C260.847 282.2 258.447 282.9 258.447 282.9L262.747 272.8L265.947 280.2Z" fill="#4E5B7F"/>
<path d="M242.247 224.9L231.947 248.8L221.647 224.9V224.8H242.247V224.9Z" fill="#FAFBFC"/>
<path d="M242.247 224.8H221.647L231.947 200.9L242.247 224.8Z" fill="#4479BD"/>
<path d="M231.947 248.8L221.647 272.8L211.447 248.8H231.947Z" fill="#FAFBFC"/>
<path d="M221.647 272.8H210.747C210.747 272.8 208.947 271.3 207.247 269.7C205.547 268 203.947 266.3 203.947 266.3L211.347 249L221.647 272.8Z" fill="#16254C"/>
<path d="M203.947 266.2C203.947 266.2 199.447 261.1 197.047 256C194.647 251.2 193.947 248.9 193.947 248.9H211.347L203.947 266.2Z" fill="#2A4173"/>
<path d="M201.147 224.8L192.647 244.5C192.647 244.5 191.247 238.6 191.047 233.6C190.847 228.9 191.347 224.8 191.347 224.8H201.147Z" fill="#FAFBFC"/>
<path d="M195.147 210.8L201.147 224.8H191.447C191.447 224.8 191.947 221 192.847 217.4C193.847 213.8 195.147 210.8 195.147 210.8Z" fill="#4479BD"/>
<path d="M297.847 232.8C297.747 236.1 296.947 240.9 296.947 240.9L293.547 248.8L283.247 224.8H297.347C297.447 224.8 297.947 229.4 297.847 232.8Z" fill="#4479BD"/>
<path d="M218.347 184.7L211.447 200.8L207.847 192.4C207.847 192.4 209.247 191 212.347 188.6C215.347 186.3 218.347 184.7 218.347 184.7Z" fill="#FAFBFC"/>
<path d="M241.747 178L231.947 200.9L223.847 182.1C223.847 182.1 227.347 180.5 232.447 179.3C237.647 178.1 241.747 178 241.747 178Z" fill="#FAFBFC"/>
<path d="M211.447 200.9L201.147 224.9L195.147 210.9C195.147 210.9 196.547 207.6 197.747 205.4C198.847 203.4 200.547 200.9 200.547 200.9H211.447Z" fill="#FAFBFC"/>
<path d="M261.147 180.6L252.447 200.9L242.647 178C242.647 178 247.347 177.8 252.647 178.6C257.947 179.4 261.147 180.6 261.147 180.6Z" fill="#FAFBFC"/>
<path d="M231.947 200.9L221.647 224.8L211.447 200.9H231.947Z" fill="#FAFBFC"/>
<path d="M247.347 284.7C247.347 284.7 244.947 284.8 242.347 284.7C239.747 284.6 237.347 284.4 237.347 284.4L242.247 272.9L247.347 284.7Z" fill="#4479BD"/>
<path d="M222.52 280C221.22 279.4 219.25 278.4 219.25 278.4L221.7 272.7L225.5 281.36C225.7 281.36 224.02 280.6 222.52 280Z" fill="url(#paint4_linear_7024_162005)"/>
<path d="M242.247 272.8L237.347 284.3C237.347 284.3 234.347 283.9 231.447 283.2C229.347 282.8 225.447 281.3 225.447 281.3L221.747 272.8H242.247Z" fill="#FAFBFC"/>
<path d="M262.747 272.8L258.447 282.9C258.447 282.9 255.547 283.6 253.047 284.1C250.447 284.5 247.347 284.7 247.347 284.7L242.247 272.8H262.747Z" fill="#FAFBFC"/>
<path d="M277.847 189.6L273.047 200.8L264.947 181.9C264.947 181.9 268.747 183.5 272.047 185.5C275.347 187.5 277.847 189.6 277.847 189.6Z" fill="#FAFBFC"/>
<path d="M291.447 205.9L283.347 224.8L273.047 200.8H288.347C288.347 200.8 289.447 202.4 290.047 203.4C290.647 204.5 291.447 205.9 291.447 205.9Z" fill="#FAFBFC"/>
<path d="M288.347 200.9H273.047L277.847 189.7C277.847 189.7 281.247 192.5 283.647 195.1C286.047 197.7 288.347 200.9 288.347 200.9Z" fill="#4479BD"/>
<path d="M242.647 177.9L252.447 200.8H231.947L241.747 177.9C241.747 177.9 241.947 177.9 242.247 177.9C242.447 177.9 242.647 177.9 242.647 177.9Z" fill="#16254C"/>
<path d="M231.947 200.9H211.447L218.347 184.8C218.347 184.8 220.047 183.9 221.247 183.3C222.447 182.7 223.847 182.1 223.847 182.1L231.947 200.9Z" fill="#16254C"/>
<path d="M231.947 248.8H193.947C193.947 248.8 193.547 247.7 193.347 246.9C193.147 246.3 192.647 244.5 192.647 244.5L201.047 224.8L211.347 200.8L221.647 224.8L231.947 248.8Z" fill="url(#paint5_linear_7024_162005)"/>
<path d="M211.447 200.9H200.547C200.547 200.9 202.647 198 204.147 196.3C205.647 194.6 207.747 192.5 207.747 192.5L211.447 200.9Z" fill="#16254C"/>
<path d="M252.447 248.8L262.747 272.8L273.047 248.8H252.447Z" fill="#16254C"/>
<path d="M231.947 248.8L242.247 272.8L252.447 248.8H231.947Z" fill="#16254C"/>
<path d="M252.447 248.8L242.247 272.8H262.747L252.447 248.8Z" fill="#4479BD"/>
<path d="M242.247 224.8L231.947 248.8H252.447L242.247 224.8Z" fill="#2A4173"/>
<path d="M242.247 224.8L252.447 248.8L262.747 224.8H242.247Z" fill="#4479BD"/>
<path d="M262.747 224.8L252.447 248.8H273.047L262.747 224.8Z" fill="#2A4173"/>
<path d="M262.747 224.8L273.047 248.8L283.347 224.8H262.747Z" fill="#4479BD"/>
<path d="M221.647 272.8H242.247L231.947 248.8L221.647 272.8Z" fill="#4479BD"/>
<path d="M221.647 272.8L219.247 278.4C219.247 278.4 217.647 277.6 215.347 276.1C213.047 274.6 210.747 272.8 210.747 272.8H221.647Z" fill="#4479BD"/>
<path d="M262.747 272.8H278.047C278.047 272.8 283.247 268.8 287.947 262.3C292.647 255.7 294.247 250.5 294.247 250.5L283.247 224.8L272.947 248.8L262.747 272.8Z" fill="url(#paint6_linear_7024_162005)"/>
<path d="M242.247 224.8H262.747H283.247L272.947 200.8L264.847 182C264.847 182 263.947 181.6 263.147 181.3C262.347 181 261.047 180.6 261.047 180.6L252.347 200.8L242.247 224.8Z" fill="#16254C"/>
<path d="M245.247 45H243.547V166H245.247V45Z" fill="#4479BD"/>
<path d="M256.447 159H232.447V174.6C233.947 174.6 233.947 172.9 235.447 172.9C236.947 172.9 236.947 174.6 238.447 174.6C239.947 174.6 239.947 172.9 241.447 172.9C242.947 172.9 242.947 174.6 244.447 174.6C245.947 174.6 245.947 172.9 247.447 172.9C248.947 172.9 248.947 174.6 250.447 174.6C251.947 174.6 251.947 172.9 253.447 172.9C254.947 172.9 254.947 174.6 256.447 174.6H256.547V159H256.447Z" fill="url(#paint7_linear_7024_162005)"/>
<path d="M686.9 880.4H673.2L707.7 800L719.9 771.5H707.2L724.7 730.7L742.1 690L759.6 730.7L777 771.5H764.4L776.6 800L811 880.4H797.3L832.2 961.8V961.9H742.1V961.8V961.9H652V961.8L686.9 880.4Z" fill="#4479BD"/>
<path d="M106.9 880.4H93.2L127.7 800L139.9 771.5H127.2L144.7 730.7L162.1 690L179.6 730.7L197 771.5H184.4L196.6 800L231 880.4H217.3L252.2 961.8V961.9H162.1V961.8V961.9H72V961.8L106.9 880.4Z" fill="#4479BD"/>
<path d="M1812.9 880.1H1799.2L1833.7 799.7L1845.9 771.2H1833.2L1850.7 730.4L1868.1 689.7L1885.6 730.4L1903 771.2H1890.4L1902.6 799.7L1937 880.1H1923.3L1958.2 961.5V961.6H1868.1V961.5V961.6H1778V961.5L1812.9 880.1Z" fill="#4479BD"/>
<path d="M854.4 815.5H834.199L844.199 791.9L854.4 815.5Z" fill="#16254C"/>
<path d="M984.5 815.6L962.699 866.1L941.099 815.5L984.5 815.6Z" fill="#FAFBFC"/>
<path d="M941.1 815.5L919.4 866.1L897.8 815.5H941.1Z" fill="#FAFBFC"/>
<path d="M897.6 916.8L878.6 961.6H873.4L854.3 916.8H897.6Z" fill="#FAFBFC"/>
<path d="M919.399 866.1L897.599 916.8L875.899 865.9L919.399 866.1Z" fill="#FAFBFC"/>
<path d="M1027.6 917.2L1046.5 961.6H1008.6L1027.6 917.2Z" fill="url(#paint8_linear_7024_162005)"/>
<path d="M1016.5 846L1014.7 846.1L1015.6 844L1016.5 846Z" fill="#4E5B7F"/>
<path d="M1027.8 714.4L1027.7 714.5V714.4H1027.8Z" fill="#FAFBFC"/>
<path d="M1005.9 866.6L1027.4 916.8H984.399L1005.9 866.6Z" fill="#16254C"/>
<path d="M1015.6 844L1014.7 846.1H997.2L984.4 815.6H1003.5L1015.6 844Z" fill="#4479BD"/>
<path d="M1027.6 917.2L1008.6 961.6H1003.6L984.4 916.8H1027.4L1027.6 917.2Z" fill="#FAFBFC"/>
<path d="M1005.7 865.9H962.699L984.4 815.6L1005.7 865.9Z" fill="#4E5B7F"/>
<path d="M984.4 916.8L1003.6 961.6H965.2L984.4 916.8Z" fill="#4E5B7F"/>
<path d="M1005.9 866.3L984.399 916.8L962.699 865.9H1005.7L1005.9 866.3Z" fill="#2A4173"/>
<path d="M984.5 916.8H941.199L962.699 865.9L984.5 916.8Z" fill="#16254C"/>
<path d="M984.399 916.8L965.199 961.6H960.299L941.099 916.8H984.399Z" fill="#4479BD"/>
<path d="M941.1 714.4L919.5 764.9L919.4 765L897.8 714.4H941.1Z" fill="#FAFBFC"/>
<path d="M941.1 714.4H897.8L919.4 663.9L941.1 714.4Z" fill="#4479BD"/>
<path d="M919.399 765.1L897.799 815.6L876.099 765H919.399V765.1Z" fill="#FAFBFC"/>
<path d="M960.3 961.6H878.599L897.699 916.5H897.8H897.699L919.4 866.1L941.099 916.5L960.3 961.6Z" fill="url(#paint9_linear_7024_162005)"/>
<path d="M897.8 815.6H854.4L876.099 765L897.8 815.6Z" fill="#16254C"/>
<path d="M873.599 961.6H835.199L854.4 916.8L873.599 961.6Z" fill="#4E5B7F"/>
<path d="M876.099 765L854.4 815.5L844.3 791.9L855.8 765H876.099Z" fill="#2A4173"/>
<path d="M854.4 916.8L835.199 961.6H830.3L811.099 916.8H854.4Z" fill="#FAFBFC"/>
<path d="M830.3 961.6H791.9L811.099 916.8L830.3 961.6Z" fill="#4E5B7F"/>
<path d="M811.099 916.8L791.9 961.6H791L810.199 916.8H811.099Z" fill="#4479BD"/>
<path d="M937.899 620.7L919.399 663.8L900.299 619.2L902.799 613.3H934.699L937.899 620.7Z" fill="#FAFBFC"/>
<path d="M919.399 663.9L897.699 714.4L878.599 669.8L881.199 663.9H919.399Z" fill="#FAFBFC"/>
<path d="M959.6 671.2L941.1 714.4L919.4 663.8L956.4 663.9L959.6 671.2Z" fill="#FAFBFC"/>
<path d="M941.099 916.9L919.4 866H962.699L941.099 916.9Z" fill="#FAFBFC"/>
<path d="M962.699 866.1H919.4L941.099 815.5L962.699 866.1Z" fill="#4479BD"/>
<path d="M919.399 866.1L876.099 866L897.699 815.3L919.399 866.1Z" fill="url(#paint10_linear_7024_162005)"/>
<path d="M956.399 663.9H919.399V663.8L937.899 620.7L956.399 663.9Z" fill="#16254C"/>
<path d="M919.399 663.8V663.9H881.199L900.299 619.2L919.399 663.8Z" fill="#16254C"/>
<path d="M934.699 613.3H902.8L918.8 576L934.699 613.3Z" fill="url(#paint11_linear_7024_162005)"/>
<path d="M919.399 765H855.799L887.199 691.6H869.299L878.599 669.8L897.699 714.4H897.799L919.399 765Z" fill="url(#paint12_linear_7024_162005)"/>
<path d="M897.6 916.8H854.4H811.1H810.2L810.7 915.7L811.1 916.8L840.5 846.1H821.1L844.3 791.9L854.5 815.6L876.2 866.2L897.6 916.8Z" fill="#16254C"/>
<path d="M962.799 765L984.399 815.5L993.899 793.3L981.799 765H962.799Z" fill="#16254C"/>
<path d="M919.4 765L941.099 815.5L962.699 765H919.4Z" fill="#16254C"/>
<path d="M962.699 765L941.099 815.5L984.399 815.6L962.799 765H962.699Z" fill="#4479BD"/>
<path d="M941.099 714.4L919.4 765H962.699L962.8 764.9L941.099 714.4Z" fill="#2A4173"/>
<path d="M941.099 714.4L962.8 764.9L972.3 742.8L960.099 714.4H941.099Z" fill="#4479BD"/>
<path d="M972.3 742.8L962.8 764.9V765H981.8L972.3 742.8Z" fill="#2A4173"/>
<path d="M897.8 815.5V815.6L941.1 815.5L919.4 765L897.8 815.5Z" fill="#4479BD"/>
<path d="M832.699 866.1L811.099 916.8L810.599 915.7L831.9 866.1H832.699Z" fill="#16254C"/>
<path d="M876.099 866L854.5 916.5L832.8 866H876.099Z" fill="#16254C"/>
<path d="M832.8 866.2L854.4 916.8H811.099L832.699 866.2H832.8Z" fill="#4479BD"/>
<path d="M854.4 815.5L876.099 866L832.699 866.1L854.4 815.5Z" fill="#2A4173"/>
<path d="M854.4 815.5L832.699 866.1L832.3 865.1L840.5 846.1H824.199L822.599 842.4L834.199 815.5H854.4Z" fill="#4479BD"/>
<path d="M897.8 815.4L876.099 866L854.4 815.5L897.8 815.4Z" fill="#4479BD"/>
<path d="M824.199 846.1H821.099L822.599 842.4L824.199 846.1Z" fill="#2A4173"/>
<path d="M832.3 865.1L832.699 866.1H831.9L832.3 865.1Z" fill="#2A4173"/>
<path d="M897.6 916.8H854.5L876.1 865.9L897.6 916.8Z" fill="#4479BD"/>
<path d="M984.4 815.6H1003.5L993.9 793.3L984.4 815.6Z" fill="url(#paint13_linear_7024_162005)"/>
<path d="M811.099 916.8H810.199L810.599 915.7L811.099 916.8Z" fill="#FAFBFC"/>
<path d="M941.099 714.4H960.099L950.3 691.6H968.3L959.599 671.2L941.099 714.4Z" fill="#2A4173"/>
<path d="M1067.4 911.9H1059.1L1080.1 862.9L1087.5 845.5H1079.8L1090.4 820.7L1101.1 795.8L1111.7 820.7L1122.3 845.5H1114.6L1122.1 862.9L1143.1 911.9H1134.7L1156 961.5V961.6H1101.1H1046.2L1046.1 961.5L1067.4 911.9Z" fill="#FAFBFC"/>
<path d="M7.29993 911.9H-1.00012L19.9999 862.9L27.3999 845.5H19.7L30.2999 820.7L40.9999 795.8L51.5999 820.7L62.2 845.5H54.4999L61.9999 862.9L82.9999 911.9H74.5999L95.8999 961.5V961.6H40.9999H-13.9001L-14.0001 961.5L7.29993 911.9Z" fill="#FAFBFC"/>
<path d="M1731.3 911.9H1723L1744 862.9L1751.4 845.5H1743.7L1754.3 820.7L1765 795.8L1775.6 820.7L1786.2 845.5H1778.5L1786 862.9L1807 911.9H1798.6L1819.9 961.5V961.6H1765H1710.1L1710 961.5L1731.3 911.9Z" fill="#FAFBFC"/>
<path d="M1683.7 576.4C1688.5 576.4 1692.4 572.505 1692.4 567.7C1692.4 562.895 1688.5 559 1683.7 559C1678.9 559 1675 562.895 1675 567.7C1675 572.505 1678.9 576.4 1683.7 576.4Z" fill="white"/>
<path d="M882.7 505.4C887.505 505.4 891.4 501.505 891.4 496.7C891.4 491.895 887.505 488 882.7 488C877.895 488 874 491.895 874 496.7C874 501.505 877.895 505.4 882.7 505.4Z" fill="white"/>
<path d="M392.7 885.4C397.505 885.4 401.4 881.505 401.4 876.7C401.4 871.895 397.505 868 392.7 868C387.895 868 384 871.895 384 876.7C384 881.505 387.895 885.4 392.7 885.4Z" fill="white"/>
<path d="M1268.7 863.405C1273.14 861.566 1275.24 856.477 1273.41 852.038C1271.57 847.598 1266.48 845.49 1262.04 847.329C1257.6 849.168 1255.49 854.257 1257.33 858.697C1259.17 863.136 1264.26 865.244 1268.7 863.405Z" fill="white"/>
<path d="M1409.7 707.4C1414.5 707.4 1418.4 703.505 1418.4 698.7C1418.4 693.895 1414.5 690 1409.7 690C1404.9 690 1401 693.895 1401 698.7C1401 703.505 1404.9 707.4 1409.7 707.4Z" fill="#4479BD"/>
<path d="M598.7 904.4C603.505 904.4 607.4 900.505 607.4 895.7C607.4 890.895 603.505 887 598.7 887C593.895 887 590 890.895 590 895.7C590 900.505 593.895 904.4 598.7 904.4Z" fill="#4479BD"/>
<path d="M1876.7 308.4C1881.5 308.4 1885.4 304.505 1885.4 299.7C1885.4 294.895 1881.5 291 1876.7 291C1871.9 291 1868 294.895 1868 299.7C1868 304.505 1871.9 308.4 1876.7 308.4Z" fill="#4479BD"/>
<path d="M1868.7 167.405C1873.14 165.566 1875.24 160.477 1873.41 156.038C1871.57 151.599 1866.48 149.491 1862.04 151.329C1857.6 153.168 1855.49 158.258 1857.33 162.697C1859.17 167.136 1864.26 169.244 1868.7 167.405Z" fill="white"/>
<path d="M69.6968 635.405C74.136 633.566 76.244 628.477 74.4052 624.038C72.5664 619.599 67.477 617.491 63.0378 619.329C58.5986 621.168 56.4905 626.258 58.3293 630.697C60.1682 635.136 65.2575 637.244 69.6968 635.405Z" fill="white"/>
<path d="M735.569 83.375C736.339 78.6321 733.118 74.1632 728.375 73.3935C723.632 72.6237 719.163 75.8446 718.394 80.5875C717.624 85.3304 720.845 89.7993 725.588 90.569C730.331 91.3388 734.799 88.1179 735.569 83.375Z" fill="#4479BD"/>
<path d="M1092.7 93.4C1097.5 93.4 1101.4 89.5049 1101.4 84.7C1101.4 79.8951 1097.5 76 1092.7 76C1087.9 76 1084 79.8951 1084 84.7C1084 89.5049 1087.9 93.4 1092.7 93.4Z" fill="#4479BD"/>
<path d="M63.9328 363.465C65.037 358.789 62.1413 354.103 57.4652 352.999C52.7891 351.895 48.1033 354.791 46.9991 359.467C45.895 364.143 48.7906 368.829 53.4667 369.933C58.1428 371.037 62.8287 368.141 63.9328 363.465Z" fill="#F2F7F5"/>
<path d="M1377.93 251.465C1379.04 246.789 1376.14 242.103 1371.47 240.999C1366.79 239.895 1362.1 242.791 1361 247.467C1359.9 252.143 1362.79 256.829 1367.47 257.933C1372.14 259.037 1376.83 256.141 1377.93 251.465Z" fill="white"/>
<path d="M598.172 740.372C598.645 735.59 595.153 731.33 590.372 730.857C585.59 730.384 581.331 733.876 580.857 738.657C580.384 743.438 583.876 747.698 588.657 748.172C593.439 748.645 597.698 745.153 598.172 740.372Z" fill="#4479BD"/>
<path d="M244.172 505.372C244.645 500.591 241.153 496.331 236.372 495.857C231.59 495.384 227.331 498.876 226.857 503.657C226.384 508.439 229.876 512.699 234.657 513.172C239.439 513.645 243.698 510.153 244.172 505.372Z" fill="#4479BD"/>
<path d="M1794.17 692.372C1794.65 687.591 1791.15 683.331 1786.37 682.857C1781.59 682.384 1777.33 685.876 1776.86 690.657C1776.38 695.439 1779.88 699.699 1784.66 700.172C1789.44 700.645 1793.7 697.153 1794.17 692.372Z" fill="white"/>
<path d="M1838.17 473.372C1838.65 468.591 1835.15 464.331 1830.37 463.857C1825.59 463.384 1821.33 466.876 1820.86 471.657C1820.38 476.439 1823.88 480.699 1828.66 481.172C1833.44 481.645 1837.7 478.153 1838.17 473.372Z" fill="white"/>
<path d="M366.172 94.3716C366.645 89.5903 363.153 85.3305 358.372 84.857C353.59 84.3835 349.331 87.8758 348.857 92.6571C348.384 97.4384 351.876 101.698 356.657 102.172C361.439 102.645 365.698 99.153 366.172 94.3716Z" fill="#4479BD"/>
<path d="M966.933 327.465C968.037 322.789 965.141 318.103 960.465 316.999C955.789 315.895 951.103 318.79 949.999 323.466C948.895 328.143 951.791 332.828 956.467 333.933C961.143 335.037 965.829 332.141 966.933 327.465Z" fill="#4479BD"/>
<path d="M790.933 235.465C792.037 230.789 789.141 226.103 784.465 224.999C779.789 223.895 775.103 226.79 773.999 231.466C772.895 236.143 775.791 240.828 780.467 241.933C785.143 243.037 789.829 240.141 790.933 235.465Z" fill="white"/>
<path d="M1555.7 440.4C1560.5 440.4 1564.4 436.505 1564.4 431.7C1564.4 426.895 1560.5 423 1555.7 423C1550.9 423 1547 426.895 1547 431.7C1547 436.505 1550.9 440.4 1555.7 440.4Z" fill="#4479BD"/>
<path d="M1606.93 887.465C1608.04 882.789 1605.14 878.103 1600.47 876.999C1595.79 875.895 1591.1 878.791 1590 883.467C1588.9 888.143 1591.79 892.829 1596.47 893.933C1601.14 895.037 1605.83 892.141 1606.93 887.465Z" fill="#4479BD"/>
<path d="M1463.67 82.5066C1468.11 80.6678 1470.22 75.5784 1468.38 71.1392C1466.54 66.7 1461.45 64.5919 1457.02 66.4307C1452.58 68.2696 1450.47 73.359 1452.31 77.7982C1454.15 82.2374 1459.23 84.3454 1463.67 82.5066Z" fill="white"/>
</g>
<defs>
<linearGradient id="paint0_linear_7024_162005" x1="1604.4" y1="184.599" x2="1635.01" y2="196.885" gradientUnits="userSpaceOnUse">
<stop offset="0.0459519" stop-color="#F6D173"/>
<stop offset="0.0483305" stop-color="#F8D98A"/>
<stop offset="0.0527012" stop-color="#FAE6AF"/>
<stop offset="0.0570931" stop-color="#FCF0CB"/>
<stop offset="0.0614571" stop-color="#FEF7E0"/>
<stop offset="0.0657813" stop-color="#FFFCEC"/>
<stop offset="0.0700219" stop-color="#FFFDF0"/>
<stop offset="0.08617" stop-color="#FDF1CF"/>
<stop offset="0.1085" stop-color="#FAE3A7"/>
<stop offset="0.1289" stop-color="#F8D98B"/>
<stop offset="0.1467" stop-color="#F6D379"/>
<stop offset="0.1597" stop-color="#F6D173"/>
<stop offset="0.1709" stop-color="#F7D478"/>
<stop offset="0.24" stop-color="#FBE691"/>
<stop offset="0.3031" stop-color="#FEF0A0"/>
<stop offset="0.3544" stop-color="#FFF4A5"/>
<stop offset="0.3664" stop-color="#D8C283"/>
<stop offset="0.3834" stop-color="#A68157"/>
<stop offset="0.3988" stop-color="#7E4E35"/>
<stop offset="0.4122" stop-color="#62291C"/>
<stop offset="0.423" stop-color="#50120D"/>
<stop offset="0.4299" stop-color="#4A0A07"/>
<stop offset="0.4605" stop-color="#571408"/>
<stop offset="0.5167" stop-color="#782F0B"/>
<stop offset="0.5917" stop-color="#AE5A10"/>
<stop offset="0.6499" stop-color="#DC7F14"/>
<stop offset="0.6612" stop-color="#E1891C"/>
<stop offset="0.7001" stop-color="#EEA732"/>
<stop offset="0.7383" stop-color="#F7BD43"/>
<stop offset="0.7753" stop-color="#FDCA4D"/>
<stop offset="0.8096" stop-color="#FFCE50"/>
<stop offset="0.8468" stop-color="#FCC84B"/>
<stop offset="0.8969" stop-color="#F5B73E"/>
<stop offset="0.9541" stop-color="#E89B29"/>
<stop offset="1" stop-color="#DC7F14"/>
</linearGradient>
<linearGradient id="paint1_linear_7024_162005" x1="1562.06" y1="232.721" x2="1584.84" y2="242.355" gradientUnits="userSpaceOnUse">
<stop offset="0.0459519" stop-color="#F6D173"/>
<stop offset="0.0483305" stop-color="#F8D98A"/>
<stop offset="0.0527012" stop-color="#FAE6AF"/>
<stop offset="0.0570931" stop-color="#FCF0CB"/>
<stop offset="0.0614571" stop-color="#FEF7E0"/>
<stop offset="0.0657813" stop-color="#FFFCEC"/>
<stop offset="0.0700219" stop-color="#FFFDF0"/>
<stop offset="0.08617" stop-color="#FDF1CF"/>
<stop offset="0.1085" stop-color="#FAE3A7"/>
<stop offset="0.1289" stop-color="#F8D98B"/>
<stop offset="0.1467" stop-color="#F6D379"/>
<stop offset="0.1597" stop-color="#F6D173"/>
<stop offset="0.1709" stop-color="#F7D478"/>
<stop offset="0.24" stop-color="#FBE691"/>
<stop offset="0.3031" stop-color="#FEF0A0"/>
<stop offset="0.3544" stop-color="#FFF4A5"/>
<stop offset="0.3664" stop-color="#D8C283"/>
<stop offset="0.3834" stop-color="#A68157"/>
<stop offset="0.3988" stop-color="#7E4E35"/>
<stop offset="0.4122" stop-color="#62291C"/>
<stop offset="0.423" stop-color="#50120D"/>
<stop offset="0.4299" stop-color="#4A0A07"/>
<stop offset="0.4605" stop-color="#571408"/>
<stop offset="0.5167" stop-color="#782F0B"/>
<stop offset="0.5917" stop-color="#AE5A10"/>
<stop offset="0.6499" stop-color="#DC7F14"/>
<stop offset="0.6612" stop-color="#E1891C"/>
<stop offset="0.7001" stop-color="#EEA732"/>
<stop offset="0.7383" stop-color="#F7BD43"/>
<stop offset="0.7753" stop-color="#FDCA4D"/>
<stop offset="0.8096" stop-color="#FFCE50"/>
<stop offset="0.8468" stop-color="#FCC84B"/>
<stop offset="0.8969" stop-color="#F5B73E"/>
<stop offset="0.9541" stop-color="#E89B29"/>
<stop offset="1" stop-color="#DC7F14"/>
</linearGradient>
<linearGradient id="paint2_linear_7024_162005" x1="1553.12" y1="147.274" x2="1599.04" y2="164.464" gradientUnits="userSpaceOnUse">
<stop offset="0.0459519" stop-color="#F6D173"/>
<stop offset="0.0483305" stop-color="#F8D98A"/>
<stop offset="0.0527012" stop-color="#FAE6AF"/>
<stop offset="0.0570931" stop-color="#FCF0CB"/>
<stop offset="0.0614571" stop-color="#FEF7E0"/>
<stop offset="0.0657813" stop-color="#FFFCEC"/>
<stop offset="0.0700219" stop-color="#FFFDF0"/>
<stop offset="0.08617" stop-color="#FDF1CF"/>
<stop offset="0.1085" stop-color="#FAE3A7"/>
<stop offset="0.1289" stop-color="#F8D98B"/>
<stop offset="0.1467" stop-color="#F6D379"/>
<stop offset="0.1597" stop-color="#F6D173"/>
<stop offset="0.1709" stop-color="#F7D478"/>
<stop offset="0.24" stop-color="#FBE691"/>
<stop offset="0.3031" stop-color="#FEF0A0"/>
<stop offset="0.3544" stop-color="#FFF4A5"/>
<stop offset="0.3664" stop-color="#D8C283"/>
<stop offset="0.3834" stop-color="#A68157"/>
<stop offset="0.3988" stop-color="#7E4E35"/>
<stop offset="0.4122" stop-color="#62291C"/>
<stop offset="0.423" stop-color="#50120D"/>
<stop offset="0.4299" stop-color="#4A0A07"/>
<stop offset="0.4605" stop-color="#571408"/>
<stop offset="0.5167" stop-color="#782F0B"/>
<stop offset="0.5917" stop-color="#AE5A10"/>
<stop offset="0.6499" stop-color="#DC7F14"/>
<stop offset="0.6612" stop-color="#E1891C"/>
<stop offset="0.7001" stop-color="#EEA732"/>
<stop offset="0.7383" stop-color="#F7BD43"/>
<stop offset="0.7753" stop-color="#FDCA4D"/>
<stop offset="0.8096" stop-color="#FFCE50"/>
<stop offset="0.8468" stop-color="#FCC84B"/>
<stop offset="0.8969" stop-color="#F5B73E"/>
<stop offset="0.9541" stop-color="#E89B29"/>
<stop offset="1" stop-color="#DC7F14"/>
</linearGradient>
<linearGradient id="paint3_linear_7024_162005" x1="1573.11" y1="110.191" x2="1600.66" y2="110.191" gradientUnits="userSpaceOnUse">
<stop offset="0.0459519" stop-color="#F6D173"/>
<stop offset="0.0483305" stop-color="#F8D98A"/>
<stop offset="0.0527012" stop-color="#FAE6AF"/>
<stop offset="0.0570931" stop-color="#FCF0CB"/>
<stop offset="0.0614571" stop-color="#FEF7E0"/>
<stop offset="0.0657813" stop-color="#FFFCEC"/>
<stop offset="0.0700219" stop-color="#FFFDF0"/>
<stop offset="0.08617" stop-color="#FDF1CF"/>
<stop offset="0.1085" stop-color="#FAE3A7"/>
<stop offset="0.1289" stop-color="#F8D98B"/>
<stop offset="0.1467" stop-color="#F6D379"/>
<stop offset="0.1597" stop-color="#F6D173"/>
<stop offset="0.1709" stop-color="#F7D478"/>
<stop offset="0.24" stop-color="#FBE691"/>
<stop offset="0.3031" stop-color="#FEF0A0"/>
<stop offset="0.3544" stop-color="#FFF4A5"/>
<stop offset="0.3664" stop-color="#D8C283"/>
<stop offset="0.3834" stop-color="#A68157"/>
<stop offset="0.3988" stop-color="#7E4E35"/>
<stop offset="0.4122" stop-color="#62291C"/>
<stop offset="0.423" stop-color="#50120D"/>
<stop offset="0.4299" stop-color="#4A0A07"/>
<stop offset="0.4605" stop-color="#571408"/>
<stop offset="0.5167" stop-color="#782F0B"/>
<stop offset="0.5917" stop-color="#AE5A10"/>
<stop offset="0.6499" stop-color="#DC7F14"/>
<stop offset="0.6612" stop-color="#E1891C"/>
<stop offset="0.7001" stop-color="#EEA732"/>
<stop offset="0.7383" stop-color="#F7BD43"/>
<stop offset="0.7753" stop-color="#FDCA4D"/>
<stop offset="0.8096" stop-color="#FFCE50"/>
<stop offset="0.8468" stop-color="#FCC84B"/>
<stop offset="0.8969" stop-color="#F5B73E"/>
<stop offset="0.9541" stop-color="#E89B29"/>
<stop offset="1" stop-color="#DC7F14"/>
</linearGradient>
<linearGradient id="paint4_linear_7024_162005" x1="225.539" y1="276.275" x2="217.463" y2="279.558" gradientUnits="userSpaceOnUse">
<stop offset="0.0459519" stop-color="#F6D173"/>
<stop offset="0.0483305" stop-color="#F8D98A"/>
<stop offset="0.0527012" stop-color="#FAE6AF"/>
<stop offset="0.0570931" stop-color="#FCF0CB"/>
<stop offset="0.0614571" stop-color="#FEF7E0"/>
<stop offset="0.0657813" stop-color="#FFFCEC"/>
<stop offset="0.0700219" stop-color="#FFFDF0"/>
<stop offset="0.08617" stop-color="#FDF1CF"/>
<stop offset="0.1085" stop-color="#FAE3A7"/>
<stop offset="0.1289" stop-color="#F8D98B"/>
<stop offset="0.1467" stop-color="#F6D379"/>
<stop offset="0.1597" stop-color="#F6D173"/>
<stop offset="0.1709" stop-color="#F7D478"/>
<stop offset="0.24" stop-color="#FBE691"/>
<stop offset="0.3031" stop-color="#FEF0A0"/>
<stop offset="0.3544" stop-color="#FFF4A5"/>
<stop offset="0.3664" stop-color="#D8C283"/>
<stop offset="0.3834" stop-color="#A68157"/>
<stop offset="0.3988" stop-color="#7E4E35"/>
<stop offset="0.4122" stop-color="#62291C"/>
<stop offset="0.423" stop-color="#50120D"/>
<stop offset="0.4299" stop-color="#4A0A07"/>
<stop offset="0.4605" stop-color="#571408"/>
<stop offset="0.5167" stop-color="#782F0B"/>
<stop offset="0.5917" stop-color="#AE5A10"/>
<stop offset="0.6499" stop-color="#DC7F14"/>
<stop offset="0.6612" stop-color="#E1891C"/>
<stop offset="0.7001" stop-color="#EEA732"/>
<stop offset="0.7383" stop-color="#F7BD43"/>
<stop offset="0.7753" stop-color="#FDCA4D"/>
<stop offset="0.8096" stop-color="#FFCE50"/>
<stop offset="0.8468" stop-color="#FCC84B"/>
<stop offset="0.8969" stop-color="#F5B73E"/>
<stop offset="0.9541" stop-color="#E89B29"/>
<stop offset="1" stop-color="#DC7F14"/>
</linearGradient>
<linearGradient id="paint5_linear_7024_162005" x1="233.404" y1="219.877" x2="182.376" y2="241.466" gradientUnits="userSpaceOnUse">
<stop offset="0.0459519" stop-color="#F6D173"/>
<stop offset="0.0483305" stop-color="#F8D98A"/>
<stop offset="0.0527012" stop-color="#FAE6AF"/>
<stop offset="0.0570931" stop-color="#FCF0CB"/>
<stop offset="0.0614571" stop-color="#FEF7E0"/>
<stop offset="0.0657813" stop-color="#FFFCEC"/>
<stop offset="0.0700219" stop-color="#FFFDF0"/>
<stop offset="0.08617" stop-color="#FDF1CF"/>
<stop offset="0.1085" stop-color="#FAE3A7"/>
<stop offset="0.1289" stop-color="#F8D98B"/>
<stop offset="0.1467" stop-color="#F6D379"/>
<stop offset="0.1597" stop-color="#F6D173"/>
<stop offset="0.1709" stop-color="#F7D478"/>
<stop offset="0.24" stop-color="#FBE691"/>
<stop offset="0.3031" stop-color="#FEF0A0"/>
<stop offset="0.3544" stop-color="#FFF4A5"/>
<stop offset="0.3664" stop-color="#D8C283"/>
<stop offset="0.3834" stop-color="#A68157"/>
<stop offset="0.3988" stop-color="#7E4E35"/>
<stop offset="0.4122" stop-color="#62291C"/>
<stop offset="0.423" stop-color="#50120D"/>
<stop offset="0.4299" stop-color="#4A0A07"/>
<stop offset="0.4605" stop-color="#571408"/>
<stop offset="0.5167" stop-color="#782F0B"/>
<stop offset="0.5917" stop-color="#AE5A10"/>
<stop offset="0.6499" stop-color="#DC7F14"/>
<stop offset="0.6612" stop-color="#E1891C"/>
<stop offset="0.7001" stop-color="#EEA732"/>
<stop offset="0.7383" stop-color="#F7BD43"/>
<stop offset="0.7753" stop-color="#FDCA4D"/>
<stop offset="0.8096" stop-color="#FFCE50"/>
<stop offset="0.8468" stop-color="#FCC84B"/>
<stop offset="0.8969" stop-color="#F5B73E"/>
<stop offset="0.9541" stop-color="#E89B29"/>
<stop offset="1" stop-color="#DC7F14"/>
</linearGradient>
<linearGradient id="paint6_linear_7024_162005" x1="303.836" y1="238.92" x2="249.211" y2="262.255" gradientUnits="userSpaceOnUse">
<stop offset="0.0459519" stop-color="#F6D173"/>
<stop offset="0.0483305" stop-color="#F8D98A"/>
<stop offset="0.0527012" stop-color="#FAE6AF"/>
<stop offset="0.0570931" stop-color="#FCF0CB"/>
<stop offset="0.0614571" stop-color="#FEF7E0"/>
<stop offset="0.0657813" stop-color="#FFFCEC"/>
<stop offset="0.0700219" stop-color="#FFFDF0"/>
<stop offset="0.08617" stop-color="#FDF1CF"/>
<stop offset="0.1085" stop-color="#FAE3A7"/>
<stop offset="0.1289" stop-color="#F8D98B"/>
<stop offset="0.1467" stop-color="#F6D379"/>
<stop offset="0.1597" stop-color="#F6D173"/>
<stop offset="0.1709" stop-color="#F7D478"/>
<stop offset="0.24" stop-color="#FBE691"/>
<stop offset="0.3031" stop-color="#FEF0A0"/>
<stop offset="0.3544" stop-color="#FFF4A5"/>
<stop offset="0.3664" stop-color="#D8C283"/>
<stop offset="0.3834" stop-color="#A68157"/>
<stop offset="0.3988" stop-color="#7E4E35"/>
<stop offset="0.4122" stop-color="#62291C"/>
<stop offset="0.423" stop-color="#50120D"/>
<stop offset="0.4299" stop-color="#4A0A07"/>
<stop offset="0.4605" stop-color="#571408"/>
<stop offset="0.5167" stop-color="#782F0B"/>
<stop offset="0.5917" stop-color="#AE5A10"/>
<stop offset="0.6499" stop-color="#DC7F14"/>
<stop offset="0.6612" stop-color="#E1891C"/>
<stop offset="0.7001" stop-color="#EEA732"/>
<stop offset="0.7383" stop-color="#F7BD43"/>
<stop offset="0.7753" stop-color="#FDCA4D"/>
<stop offset="0.8096" stop-color="#FFCE50"/>
<stop offset="0.8468" stop-color="#FCC84B"/>
<stop offset="0.8969" stop-color="#F5B73E"/>
<stop offset="0.9541" stop-color="#E89B29"/>
<stop offset="1" stop-color="#DC7F14"/>
</linearGradient>
<linearGradient id="paint7_linear_7024_162005" x1="232.418" y1="166.807" x2="256.432" y2="166.807" gradientUnits="userSpaceOnUse">
<stop offset="0.0459519" stop-color="#F6D173"/>
<stop offset="0.0483305" stop-color="#F8D98A"/>
<stop offset="0.0527012" stop-color="#FAE6AF"/>
<stop offset="0.0570931" stop-color="#FCF0CB"/>
<stop offset="0.0614571" stop-color="#FEF7E0"/>
<stop offset="0.0657813" stop-color="#FFFCEC"/>
<stop offset="0.0700219" stop-color="#FFFDF0"/>
<stop offset="0.08617" stop-color="#FDF1CF"/>
<stop offset="0.1085" stop-color="#FAE3A7"/>
<stop offset="0.1289" stop-color="#F8D98B"/>
<stop offset="0.1467" stop-color="#F6D379"/>
<stop offset="0.1597" stop-color="#F6D173"/>
<stop offset="0.1709" stop-color="#F7D478"/>
<stop offset="0.24" stop-color="#FBE691"/>
<stop offset="0.3031" stop-color="#FEF0A0"/>
<stop offset="0.3544" stop-color="#FFF4A5"/>
<stop offset="0.3664" stop-color="#D8C283"/>
<stop offset="0.3834" stop-color="#A68157"/>
<stop offset="0.3988" stop-color="#7E4E35"/>
<stop offset="0.4122" stop-color="#62291C"/>
<stop offset="0.423" stop-color="#50120D"/>
<stop offset="0.4299" stop-color="#4A0A07"/>
<stop offset="0.4605" stop-color="#571408"/>
<stop offset="0.5167" stop-color="#782F0B"/>
<stop offset="0.5917" stop-color="#AE5A10"/>
<stop offset="0.6499" stop-color="#DC7F14"/>
<stop offset="0.6612" stop-color="#E1891C"/>
<stop offset="0.7001" stop-color="#EEA732"/>
<stop offset="0.7383" stop-color="#F7BD43"/>
<stop offset="0.7753" stop-color="#FDCA4D"/>
<stop offset="0.8096" stop-color="#FFCE50"/>
<stop offset="0.8468" stop-color="#FCC84B"/>
<stop offset="0.8969" stop-color="#F5B73E"/>
<stop offset="0.9541" stop-color="#E89B29"/>
<stop offset="1" stop-color="#DC7F14"/>
</linearGradient>
<linearGradient id="paint8_linear_7024_162005" x1="1048.26" y1="934.977" x2="997.79" y2="954.858" gradientUnits="userSpaceOnUse">
<stop offset="0.0459519" stop-color="#F6D173"/>
<stop offset="0.0483305" stop-color="#F8D98A"/>
<stop offset="0.0527012" stop-color="#FAE6AF"/>
<stop offset="0.0570931" stop-color="#FCF0CB"/>
<stop offset="0.0614571" stop-color="#FEF7E0"/>
<stop offset="0.0657813" stop-color="#FFFCEC"/>
<stop offset="0.0700219" stop-color="#FFFDF0"/>
<stop offset="0.08617" stop-color="#FDF1CF"/>
<stop offset="0.1085" stop-color="#FAE3A7"/>
<stop offset="0.1289" stop-color="#F8D98B"/>
<stop offset="0.1467" stop-color="#F6D379"/>
<stop offset="0.1597" stop-color="#F6D173"/>
<stop offset="0.1709" stop-color="#F7D478"/>
<stop offset="0.24" stop-color="#FBE691"/>
<stop offset="0.3031" stop-color="#FEF0A0"/>
<stop offset="0.3544" stop-color="#FFF4A5"/>
<stop offset="0.3664" stop-color="#D8C283"/>
<stop offset="0.3834" stop-color="#A68157"/>
<stop offset="0.3988" stop-color="#7E4E35"/>
<stop offset="0.4122" stop-color="#62291C"/>
<stop offset="0.423" stop-color="#50120D"/>
<stop offset="0.4299" stop-color="#4A0A07"/>
<stop offset="0.4605" stop-color="#571408"/>
<stop offset="0.5167" stop-color="#782F0B"/>
<stop offset="0.5917" stop-color="#AE5A10"/>
<stop offset="0.6499" stop-color="#DC7F14"/>
<stop offset="0.6612" stop-color="#E1891C"/>
<stop offset="0.7001" stop-color="#EEA732"/>
<stop offset="0.7383" stop-color="#F7BD43"/>
<stop offset="0.7753" stop-color="#FDCA4D"/>
<stop offset="0.8096" stop-color="#FFCE50"/>
<stop offset="0.8468" stop-color="#FCC84B"/>
<stop offset="0.8969" stop-color="#F5B73E"/>
<stop offset="0.9541" stop-color="#E89B29"/>
<stop offset="1" stop-color="#DC7F14"/>
</linearGradient>
<linearGradient id="paint9_linear_7024_162005" x1="958.297" y1="906.306" x2="871.273" y2="941.705" gradientUnits="userSpaceOnUse">
<stop offset="0.0459519" stop-color="#F6D173"/>
<stop offset="0.0483305" stop-color="#F8D98A"/>
<stop offset="0.0527012" stop-color="#FAE6AF"/>
<stop offset="0.0570931" stop-color="#FCF0CB"/>
<stop offset="0.0614571" stop-color="#FEF7E0"/>
<stop offset="0.0657813" stop-color="#FFFCEC"/>
<stop offset="0.0700219" stop-color="#FFFDF0"/>
<stop offset="0.08617" stop-color="#FDF1CF"/>
<stop offset="0.1085" stop-color="#FAE3A7"/>
<stop offset="0.1289" stop-color="#F8D98B"/>
<stop offset="0.1467" stop-color="#F6D379"/>
<stop offset="0.1597" stop-color="#F6D173"/>
<stop offset="0.1709" stop-color="#F7D478"/>
<stop offset="0.24" stop-color="#FBE691"/>
<stop offset="0.3031" stop-color="#FEF0A0"/>
<stop offset="0.3544" stop-color="#FFF4A5"/>
<stop offset="0.3664" stop-color="#D8C283"/>
<stop offset="0.3834" stop-color="#A68157"/>
<stop offset="0.3988" stop-color="#7E4E35"/>
<stop offset="0.4122" stop-color="#62291C"/>
<stop offset="0.423" stop-color="#50120D"/>
<stop offset="0.4299" stop-color="#4A0A07"/>
<stop offset="0.4605" stop-color="#571408"/>
<stop offset="0.5167" stop-color="#782F0B"/>
<stop offset="0.5917" stop-color="#AE5A10"/>
<stop offset="0.6499" stop-color="#DC7F14"/>
<stop offset="0.6612" stop-color="#E1891C"/>
<stop offset="0.7001" stop-color="#EEA732"/>
<stop offset="0.7383" stop-color="#F7BD43"/>
<stop offset="0.7753" stop-color="#FDCA4D"/>
<stop offset="0.8096" stop-color="#FFCE50"/>
<stop offset="0.8468" stop-color="#FCC84B"/>
<stop offset="0.8969" stop-color="#F5B73E"/>
<stop offset="0.9541" stop-color="#E89B29"/>
<stop offset="1" stop-color="#DC7F14"/>
</linearGradient>
<linearGradient id="paint10_linear_7024_162005" x1="924.879" y1="834.058" x2="853.627" y2="863.018" gradientUnits="userSpaceOnUse">
<stop offset="0.0459519" stop-color="#F6D173"/>
<stop offset="0.0483305" stop-color="#F8D98A"/>
<stop offset="0.0527012" stop-color="#FAE6AF"/>
<stop offset="0.0570931" stop-color="#FCF0CB"/>
<stop offset="0.0614571" stop-color="#FEF7E0"/>
<stop offset="0.0657813" stop-color="#FFFCEC"/>
<stop offset="0.0700219" stop-color="#FFFDF0"/>
<stop offset="0.08617" stop-color="#FDF1CF"/>
<stop offset="0.1085" stop-color="#FAE3A7"/>
<stop offset="0.1289" stop-color="#F8D98B"/>
<stop offset="0.1467" stop-color="#F6D379"/>
<stop offset="0.1597" stop-color="#F6D173"/>
<stop offset="0.1709" stop-color="#F7D478"/>
<stop offset="0.24" stop-color="#FBE691"/>
<stop offset="0.3031" stop-color="#FEF0A0"/>
<stop offset="0.3544" stop-color="#FFF4A5"/>
<stop offset="0.3664" stop-color="#D8C283"/>
<stop offset="0.3834" stop-color="#A68157"/>
<stop offset="0.3988" stop-color="#7E4E35"/>
<stop offset="0.4122" stop-color="#62291C"/>
<stop offset="0.423" stop-color="#50120D"/>
<stop offset="0.4299" stop-color="#4A0A07"/>
<stop offset="0.4605" stop-color="#571408"/>
<stop offset="0.5167" stop-color="#782F0B"/>
<stop offset="0.5917" stop-color="#AE5A10"/>
<stop offset="0.6499" stop-color="#DC7F14"/>
<stop offset="0.6612" stop-color="#E1891C"/>
<stop offset="0.7001" stop-color="#EEA732"/>
<stop offset="0.7383" stop-color="#F7BD43"/>
<stop offset="0.7753" stop-color="#FDCA4D"/>
<stop offset="0.8096" stop-color="#FFCE50"/>
<stop offset="0.8468" stop-color="#FCC84B"/>
<stop offset="0.8969" stop-color="#F5B73E"/>
<stop offset="0.9541" stop-color="#E89B29"/>
<stop offset="1" stop-color="#DC7F14"/>
</linearGradient>
<linearGradient id="paint11_linear_7024_162005" x1="932.28" y1="592.516" x2="891.366" y2="608.234" gradientUnits="userSpaceOnUse">
<stop offset="0.0459519" stop-color="#F6D173"/>
<stop offset="0.0483305" stop-color="#F8D98A"/>
<stop offset="0.0527012" stop-color="#FAE6AF"/>
<stop offset="0.0570931" stop-color="#FCF0CB"/>
<stop offset="0.0614571" stop-color="#FEF7E0"/>
<stop offset="0.0657813" stop-color="#FFFCEC"/>
<stop offset="0.0700219" stop-color="#FFFDF0"/>
<stop offset="0.08617" stop-color="#FDF1CF"/>
<stop offset="0.1085" stop-color="#FAE3A7"/>
<stop offset="0.1289" stop-color="#F8D98B"/>
<stop offset="0.1467" stop-color="#F6D379"/>
<stop offset="0.1597" stop-color="#F6D173"/>
<stop offset="0.1709" stop-color="#F7D478"/>
<stop offset="0.24" stop-color="#FBE691"/>
<stop offset="0.3031" stop-color="#FEF0A0"/>
<stop offset="0.3544" stop-color="#FFF4A5"/>
<stop offset="0.3664" stop-color="#D8C283"/>
<stop offset="0.3834" stop-color="#A68157"/>
<stop offset="0.3988" stop-color="#7E4E35"/>
<stop offset="0.4122" stop-color="#62291C"/>
<stop offset="0.423" stop-color="#50120D"/>
<stop offset="0.4299" stop-color="#4A0A07"/>
<stop offset="0.4605" stop-color="#571408"/>
<stop offset="0.5167" stop-color="#782F0B"/>
<stop offset="0.5917" stop-color="#AE5A10"/>
<stop offset="0.6499" stop-color="#DC7F14"/>
<stop offset="0.6612" stop-color="#E1891C"/>
<stop offset="0.7001" stop-color="#EEA732"/>
<stop offset="0.7383" stop-color="#F7BD43"/>
<stop offset="0.7753" stop-color="#FDCA4D"/>
<stop offset="0.8096" stop-color="#FFCE50"/>
<stop offset="0.8468" stop-color="#FCC84B"/>
<stop offset="0.8969" stop-color="#F5B73E"/>
<stop offset="0.9541" stop-color="#E89B29"/>
<stop offset="1" stop-color="#DC7F14"/>
</linearGradient>
<linearGradient id="paint12_linear_7024_162005" x1="918.721" y1="709.055" x2="833.219" y2="745.228" gradientUnits="userSpaceOnUse">
<stop offset="0.0459519" stop-color="#F6D173"/>
<stop offset="0.0483305" stop-color="#F8D98A"/>
<stop offset="0.0527012" stop-color="#FAE6AF"/>
<stop offset="0.0570931" stop-color="#FCF0CB"/>
<stop offset="0.0614571" stop-color="#FEF7E0"/>
<stop offset="0.0657813" stop-color="#FFFCEC"/>
<stop offset="0.0700219" stop-color="#FFFDF0"/>
<stop offset="0.08617" stop-color="#FDF1CF"/>
<stop offset="0.1085" stop-color="#FAE3A7"/>
<stop offset="0.1289" stop-color="#F8D98B"/>
<stop offset="0.1467" stop-color="#F6D379"/>
<stop offset="0.1597" stop-color="#F6D173"/>
<stop offset="0.1709" stop-color="#F7D478"/>
<stop offset="0.24" stop-color="#FBE691"/>
<stop offset="0.3031" stop-color="#FEF0A0"/>
<stop offset="0.3544" stop-color="#FFF4A5"/>
<stop offset="0.3664" stop-color="#D8C283"/>
<stop offset="0.3834" stop-color="#A68157"/>
<stop offset="0.3988" stop-color="#7E4E35"/>
<stop offset="0.4122" stop-color="#62291C"/>
<stop offset="0.423" stop-color="#50120D"/>
<stop offset="0.4299" stop-color="#4A0A07"/>
<stop offset="0.4605" stop-color="#571408"/>
<stop offset="0.5167" stop-color="#782F0B"/>
<stop offset="0.5917" stop-color="#AE5A10"/>
<stop offset="0.6499" stop-color="#DC7F14"/>
<stop offset="0.6612" stop-color="#E1891C"/>
<stop offset="0.7001" stop-color="#EEA732"/>
<stop offset="0.7383" stop-color="#F7BD43"/>
<stop offset="0.7753" stop-color="#FDCA4D"/>
<stop offset="0.8096" stop-color="#FFCE50"/>
<stop offset="0.8468" stop-color="#FCC84B"/>
<stop offset="0.8969" stop-color="#F5B73E"/>
<stop offset="0.9541" stop-color="#E89B29"/>
<stop offset="1" stop-color="#DC7F14"/>
</linearGradient>
<linearGradient id="paint13_linear_7024_162005" x1="1004.37" y1="802.044" x2="979.087" y2="812.845" gradientUnits="userSpaceOnUse">
<stop offset="0.0459519" stop-color="#F6D173"/>
<stop offset="0.0483305" stop-color="#F8D98A"/>
<stop offset="0.0527012" stop-color="#FAE6AF"/>
<stop offset="0.0570931" stop-color="#FCF0CB"/>
<stop offset="0.0614571" stop-color="#FEF7E0"/>
<stop offset="0.0657813" stop-color="#FFFCEC"/>
<stop offset="0.0700219" stop-color="#FFFDF0"/>
<stop offset="0.08617" stop-color="#FDF1CF"/>
<stop offset="0.1085" stop-color="#FAE3A7"/>
<stop offset="0.1289" stop-color="#F8D98B"/>
<stop offset="0.1467" stop-color="#F6D379"/>
<stop offset="0.1597" stop-color="#F6D173"/>
<stop offset="0.1709" stop-color="#F7D478"/>
<stop offset="0.24" stop-color="#FBE691"/>
<stop offset="0.3031" stop-color="#FEF0A0"/>
<stop offset="0.3544" stop-color="#FFF4A5"/>
<stop offset="0.3664" stop-color="#D8C283"/>
<stop offset="0.3834" stop-color="#A68157"/>
<stop offset="0.3988" stop-color="#7E4E35"/>
<stop offset="0.4122" stop-color="#62291C"/>
<stop offset="0.423" stop-color="#50120D"/>
<stop offset="0.4299" stop-color="#4A0A07"/>
<stop offset="0.4605" stop-color="#571408"/>
<stop offset="0.5167" stop-color="#782F0B"/>
<stop offset="0.5917" stop-color="#AE5A10"/>
<stop offset="0.6499" stop-color="#DC7F14"/>
<stop offset="0.6612" stop-color="#E1891C"/>
<stop offset="0.7001" stop-color="#EEA732"/>
<stop offset="0.7383" stop-color="#F7BD43"/>
<stop offset="0.7753" stop-color="#FDCA4D"/>
<stop offset="0.8096" stop-color="#FFCE50"/>
<stop offset="0.8468" stop-color="#FCC84B"/>
<stop offset="0.8969" stop-color="#F5B73E"/>
<stop offset="0.9541" stop-color="#E89B29"/>
<stop offset="1" stop-color="#DC7F14"/>
</linearGradient>
<clipPath id="clip0_7024_162005">
<rect width="1920" height="960" fill="white"/>
</clipPath>
</defs>
</svg>
