<svg width="682" height="683" viewBox="0 0 682 683" fill="none" xmlns="http://www.w3.org/2000/svg">
<g clip-path="url(#clip0_7757_165545)">
<g opacity="0.2">
<path d="M341.012 332.267C335.982 332.267 331.885 336.364 331.885 341.394C331.885 346.424 335.982 350.522 341.012 350.522C346.042 350.522 350.14 346.424 350.14 341.394C350.14 336.364 346.042 332.267 341.012 332.267ZM341.012 359.92C330.805 359.92 322.487 351.602 322.487 341.394C322.487 331.187 330.805 322.869 341.012 322.869C351.22 322.869 359.538 331.187 359.538 341.394C359.538 351.602 351.22 359.92 341.012 359.92Z" fill="#66B4E1"/>
<path d="M341.012 311.558C336.939 311.558 333.013 312.367 329.333 313.938C327.566 314.698 325.873 315.606 324.278 316.686C322.708 317.741 321.236 318.968 319.886 320.317C318.537 321.667 317.334 323.139 316.255 324.709C315.175 326.304 314.267 327.997 313.507 329.764C311.936 333.42 311.126 337.37 311.126 341.444C311.126 345.517 311.936 349.443 313.507 353.123C314.267 354.89 315.175 356.583 316.255 358.178C317.31 359.748 318.537 361.22 319.886 362.57C321.236 363.919 322.708 365.122 324.278 366.201C325.873 367.281 327.566 368.189 329.333 368.949C332.989 370.52 336.939 371.329 341.012 371.329C345.085 371.329 349.011 370.52 352.692 368.949C354.458 368.189 356.151 367.281 357.746 366.201C359.317 365.146 360.789 363.919 362.138 362.57C363.488 361.22 364.69 359.748 365.77 358.178C366.85 356.583 367.757 354.89 368.518 353.123C370.088 349.467 370.898 345.517 370.898 341.444C370.898 337.37 370.088 333.445 368.518 329.764C367.757 327.997 366.85 326.304 365.77 324.709C364.715 323.139 363.488 321.667 362.138 320.317C360.789 318.968 359.317 317.766 357.746 316.686C356.151 315.606 354.458 314.698 352.692 313.938C349.036 312.367 345.085 311.558 341.012 311.558ZM341.012 302.749C346.288 302.749 351.367 303.804 356.078 305.792C358.36 306.773 360.568 307.951 362.629 309.349C364.666 310.723 366.58 312.294 368.322 314.036C370.064 315.778 371.634 317.667 373.033 319.704C374.431 321.765 375.634 323.949 376.615 326.231C378.652 330.966 379.731 336.095 379.731 341.419C379.731 346.743 378.676 351.774 376.689 356.485C375.707 358.766 374.53 360.975 373.131 363.036C371.757 365.072 370.187 366.986 368.444 368.728C366.702 370.471 364.813 372.041 362.776 373.439C360.715 374.838 358.532 376.04 356.25 377.022C351.514 379.058 346.386 380.138 341.061 380.138C335.737 380.138 330.707 379.083 325.996 377.095C323.714 376.114 321.506 374.936 319.444 373.538C317.408 372.164 315.494 370.593 313.752 368.851C312.01 367.109 310.439 365.22 309.041 363.183C307.642 361.122 306.44 358.938 305.458 356.656C303.422 351.921 302.342 346.793 302.342 341.468C302.342 336.144 303.397 331.114 305.385 326.402C306.366 324.121 307.544 321.912 308.943 319.851C310.317 317.815 311.887 315.901 313.629 314.159C315.371 312.417 317.261 310.846 319.297 309.448C321.358 308.049 323.542 306.847 325.824 305.865C330.56 303.829 335.688 302.749 341.012 302.749V302.749Z" fill="#66B4E1"/>
<path d="M341.012 290.824C334.142 290.824 327.493 292.173 321.26 294.823C318.267 296.099 315.396 297.67 312.697 299.485C310.022 301.301 307.52 303.362 305.238 305.644C302.956 307.926 300.895 310.429 299.079 313.103C297.263 315.802 295.693 318.673 294.417 321.667C291.767 327.899 290.417 334.524 290.417 341.394C290.417 348.265 291.767 354.914 294.417 361.122C295.693 364.115 297.263 366.986 299.079 369.685C300.895 372.36 302.956 374.862 305.238 377.144C307.52 379.426 310.022 381.487 312.697 383.303C315.396 385.119 318.267 386.689 321.26 387.965C327.493 390.615 334.117 391.965 341.012 391.965C347.907 391.965 354.532 390.615 360.74 387.965C363.733 386.689 366.604 385.119 369.303 383.303C371.978 381.487 374.48 379.426 376.762 377.144C379.044 374.862 381.105 372.36 382.921 369.685C384.737 366.986 386.307 364.115 387.583 361.122C390.233 354.889 391.583 348.265 391.583 341.394C391.583 334.524 390.233 327.874 387.583 321.667C386.307 318.673 384.737 315.802 382.921 313.103C381.105 310.429 379.044 307.926 376.762 305.644C374.48 303.362 371.978 301.301 369.303 299.485C366.604 297.67 363.733 296.099 360.74 294.823C354.508 292.173 347.883 290.824 341.012 290.824ZM341.012 282.58C349.011 282.58 356.716 284.15 363.905 287.217C367.389 288.689 370.751 290.505 373.867 292.64C376.983 294.725 379.879 297.13 382.553 299.78C385.203 302.43 387.608 305.325 389.718 308.441C391.853 311.582 393.668 314.919 395.165 318.403C398.257 325.642 399.852 333.395 399.852 341.443C399.852 349.491 398.281 357.147 395.214 364.336C393.742 367.82 391.926 371.182 389.791 374.298C387.706 377.414 385.301 380.31 382.651 382.984C380.001 385.634 377.106 388.039 373.99 390.149C370.849 392.284 367.512 394.099 364.028 395.596C356.789 398.688 349.036 400.283 340.988 400.283C332.94 400.283 325.284 398.712 318.095 395.645C314.611 394.173 311.249 392.357 308.133 390.222C305.017 388.137 302.122 385.732 299.447 383.082C296.772 380.432 294.392 377.537 292.282 374.421C290.148 371.28 288.332 367.943 286.86 364.459C283.768 357.22 282.173 349.467 282.173 341.419C282.173 333.371 283.743 325.715 286.811 318.526C288.283 315.042 290.098 311.68 292.233 308.564C294.319 305.448 296.723 302.553 299.373 299.878C302.023 297.228 304.919 294.823 308.035 292.713C311.176 290.579 314.513 288.763 317.997 287.266C325.235 284.174 332.989 282.58 341.037 282.58H341.012Z" fill="#66B4E1"/>
<path d="M341.012 270.091C331.345 270.091 321.996 272.004 313.212 275.709C308.992 277.501 304.919 279.709 301.115 282.285C297.337 284.837 293.803 287.757 290.589 290.971C287.375 294.186 284.455 297.743 281.903 301.498C279.327 305.301 277.118 309.374 275.327 313.594C271.598 322.378 269.708 331.727 269.708 341.394C269.708 351.062 271.622 360.41 275.327 369.195C277.118 373.415 279.327 377.488 281.903 381.291C284.455 385.07 287.375 388.603 290.589 391.818C293.803 395.032 297.361 397.952 301.115 400.504C304.919 403.08 308.992 405.288 313.212 407.079C321.996 410.809 331.345 412.698 341.012 412.698C350.68 412.698 360.028 410.784 368.812 407.079C373.033 405.288 377.106 403.08 380.909 400.504C384.688 397.952 388.221 395.032 391.435 391.818C394.65 388.603 397.57 385.045 400.121 381.291C402.698 377.488 404.906 373.415 406.697 369.195C410.427 360.41 412.316 351.062 412.316 341.394C412.316 331.727 410.402 322.378 406.697 313.594C404.906 309.374 402.698 305.301 400.121 301.498C397.57 297.719 394.65 294.186 391.435 290.971C388.221 287.757 384.663 284.837 380.909 282.285C377.106 279.709 373.033 277.501 368.812 275.709C360.028 271.98 350.68 270.091 341.012 270.091V270.091ZM341.012 262.435C351.71 262.435 362.065 264.545 371.757 268.643C376.443 270.63 380.934 273.059 385.154 275.906C389.325 278.727 393.251 281.966 396.809 285.524C400.367 289.082 403.606 293.008 406.427 297.179C409.274 301.375 411.727 305.89 413.715 310.552C417.837 320.268 419.972 330.672 419.972 341.419C419.972 352.166 417.861 362.472 413.764 372.164C411.776 376.85 409.347 381.34 406.501 385.561C403.679 389.732 400.44 393.658 396.882 397.216C393.325 400.773 389.399 404.012 385.228 406.834C381.032 409.68 376.517 412.134 371.855 414.121C362.138 418.244 351.735 420.378 340.988 420.378C330.241 420.378 319.935 418.268 310.243 414.171C305.557 412.183 301.066 409.754 296.846 406.908C292.675 404.086 288.749 400.847 285.191 397.289C281.633 393.731 278.394 389.806 275.573 385.634C272.726 381.438 270.273 376.924 268.285 372.262C264.163 362.545 262.028 352.142 262.028 341.394C262.028 330.647 264.138 320.342 268.236 310.65C270.224 305.963 272.653 301.473 275.499 297.253C278.321 293.082 281.56 289.156 285.117 285.598C288.675 282.04 292.601 278.801 296.772 275.979C300.968 273.133 305.483 270.679 310.145 268.692C319.862 264.57 330.265 262.435 341.012 262.435V262.435Z" fill="#66B4E1"/>
<path d="M341.012 249.357C328.547 249.357 316.475 251.81 305.139 256.62C299.692 258.926 294.441 261.772 289.534 265.109C284.676 268.397 280.087 272.176 275.941 276.323C271.794 280.469 268.015 285.058 264.727 289.916C261.415 294.823 258.544 300.074 256.238 305.521C251.428 316.857 248.975 328.93 248.975 341.394C248.975 353.859 251.428 365.931 256.238 377.267C258.544 382.714 261.39 387.965 264.727 392.872C268.015 397.731 271.794 402.319 275.941 406.466C280.087 410.613 284.676 414.391 289.534 417.679C294.441 420.992 299.692 423.862 305.139 426.169C316.475 430.978 328.547 433.432 341.012 433.432C353.477 433.432 365.549 430.978 376.885 426.169C382.332 423.862 387.583 421.016 392.49 417.679C397.349 414.391 401.937 410.613 406.084 406.466C410.23 402.295 414.009 397.731 417.297 392.872C420.61 387.965 423.48 382.714 425.787 377.267C430.596 365.931 433.05 353.859 433.05 341.394C433.05 328.93 430.596 316.857 425.787 305.521C423.48 300.074 420.634 294.823 417.297 289.916C414.009 285.058 410.23 280.469 406.084 276.323C401.912 272.176 397.349 268.397 392.49 265.109C387.583 261.797 382.332 258.926 376.885 256.62C365.549 251.81 353.477 249.357 341.012 249.357V249.357ZM341.012 242.266C354.434 242.266 367.438 244.916 379.609 250.068C385.473 252.547 391.141 255.614 396.441 259.196C401.692 262.729 406.599 266.802 411.089 271.268C415.579 275.734 419.628 280.666 423.186 285.892C426.768 291.167 429.835 296.835 432.338 302.7C437.515 314.895 440.19 327.924 440.19 341.394C440.19 354.865 437.54 367.82 432.387 379.991C429.909 385.855 426.842 391.523 423.259 396.823C419.726 402.074 415.653 406.981 411.187 411.471C406.722 415.962 401.79 420.01 396.563 423.568C391.288 427.15 385.62 430.217 379.756 432.72C367.561 437.897 354.532 440.572 341.061 440.572C327.591 440.572 314.635 437.922 302.465 432.769C296.601 430.291 290.933 427.224 285.633 423.642C280.382 420.108 275.474 416.035 270.984 411.569C266.494 407.104 262.445 402.172 258.888 396.946C255.305 391.67 252.238 386.002 249.735 380.138C244.558 367.943 241.884 354.914 241.884 341.443C241.884 327.973 244.534 315.017 249.686 302.847C252.164 296.983 255.232 291.315 258.814 286.015C262.347 280.764 266.42 275.856 270.886 271.366C275.352 266.876 280.284 262.827 285.51 259.27C290.785 255.687 296.453 252.62 302.318 250.117C314.512 244.94 327.541 242.266 341.012 242.266V242.266Z" fill="#66B4E1"/>
<path d="M341.012 228.623C325.75 228.623 310.955 231.617 297.067 237.506C290.393 240.328 283.94 243.836 277.928 247.909C271.966 251.933 266.347 256.571 261.268 261.675C256.164 266.778 251.551 272.373 247.503 278.335C243.43 284.347 239.945 290.8 237.099 297.474C231.21 311.362 228.217 326.157 228.217 341.419C228.217 356.681 231.21 371.477 237.099 385.364C239.921 392.038 243.43 398.492 247.503 404.503C251.527 410.466 256.164 416.085 261.268 421.164C266.371 426.267 271.966 430.88 277.928 434.929C283.94 439.002 290.393 442.486 297.067 445.332C310.955 451.221 325.75 454.215 341.012 454.215C356.274 454.215 371.07 451.221 384.958 445.332C391.632 442.511 398.085 439.002 404.096 434.929C410.059 430.905 415.678 426.267 420.757 421.164C425.861 416.06 430.473 410.466 434.522 404.503C438.595 398.492 442.079 392.038 444.926 385.364C450.814 371.477 453.808 356.681 453.808 341.419C453.808 326.157 450.814 311.362 444.926 297.474C442.104 290.8 438.595 284.347 434.522 278.335C430.498 272.373 425.861 266.754 420.757 261.675C415.653 256.571 410.059 251.958 404.096 247.909C398.085 243.836 391.632 240.352 384.958 237.506C371.07 231.617 356.274 228.623 341.012 228.623V228.623ZM341.012 222.097C357.158 222.097 372.787 225.262 387.436 231.47C394.503 234.463 401.324 238.168 407.679 242.462C413.985 246.732 419.923 251.614 425.321 257.013C430.719 262.411 435.602 268.324 439.871 274.63C444.19 280.985 447.87 287.806 450.888 294.873C457.12 309.57 460.31 325.225 460.31 341.419C460.31 357.613 457.145 373.194 450.937 387.843C447.944 394.909 444.239 401.73 439.945 408.086C435.675 414.391 430.792 420.329 425.394 425.727C419.996 431.126 414.083 436.008 407.777 440.278C401.422 444.596 394.601 448.277 387.534 451.295C372.837 457.527 357.182 460.717 340.988 460.717C324.794 460.717 309.213 457.552 294.564 451.344C287.498 448.35 280.676 444.645 274.321 440.351C268.015 436.082 262.077 431.199 256.679 425.801C251.281 420.403 246.398 414.49 242.129 408.184C237.811 401.829 234.13 395.007 231.112 387.941C224.88 373.243 221.69 357.589 221.69 341.395C221.69 325.2 224.855 309.619 231.063 294.971C234.056 287.904 237.762 281.083 242.055 274.728C246.325 268.422 251.208 262.484 256.606 257.086C262.004 251.688 267.917 246.805 274.223 242.536C280.578 238.217 287.399 234.537 294.466 231.519C309.164 225.286 324.818 222.097 341.012 222.097V222.097Z" fill="#66B4E1"/>
<path d="M341.012 207.89C322.953 207.89 305.458 211.423 289.019 218.392C281.118 221.729 273.487 225.876 266.347 230.709C259.28 235.494 252.631 240.966 246.595 247.002C240.559 253.038 235.087 259.687 230.302 266.754C225.493 273.894 221.346 281.5 217.985 289.426C211.016 305.865 207.483 323.385 207.483 341.419C207.483 359.454 211.016 376.973 217.985 393.413C221.322 401.314 225.469 408.944 230.302 416.085C235.087 423.151 240.559 429.776 246.595 435.837C252.631 441.873 259.28 447.345 266.347 452.129C273.487 456.938 281.093 461.085 289.019 464.447C305.458 471.415 322.978 474.948 341.012 474.948C359.047 474.948 376.566 471.415 393.006 464.447C400.907 461.11 408.538 456.963 415.678 452.129C422.744 447.345 429.394 441.873 435.43 435.837C441.466 429.801 446.938 423.151 451.722 416.085C456.531 408.944 460.678 401.338 464.04 393.413C471.008 376.973 474.541 359.454 474.541 341.419C474.541 323.385 470.984 305.865 464.04 289.426C460.703 281.525 456.556 273.894 451.722 266.754C446.938 259.687 441.466 253.038 435.43 247.002C429.394 240.966 422.744 235.494 415.678 230.709C408.538 225.9 400.931 221.753 393.006 218.392C376.566 211.423 359.047 207.89 341.012 207.89ZM341.012 201.952C359.881 201.952 378.136 205.657 395.288 212.92C403.557 216.404 411.506 220.747 418.966 225.777C426.351 230.758 433.271 236.475 439.577 242.781C445.882 249.087 451.6 256.007 456.605 263.392C461.635 270.827 465.978 278.801 469.462 287.046C476.75 304.221 480.455 322.526 480.455 341.419C480.455 360.313 476.75 378.543 469.487 395.695C466.003 403.964 461.66 411.913 456.63 419.373C451.649 426.758 445.932 433.678 439.626 439.983C433.32 446.289 426.4 452.007 419.015 457.012C411.58 462.042 403.606 466.385 395.361 469.869C378.186 477.157 359.881 480.862 340.988 480.862C322.094 480.862 303.864 477.157 286.712 469.894C278.443 466.41 270.494 462.067 263.034 457.037C255.649 452.056 248.729 446.339 242.423 440.033C236.118 433.727 230.4 426.807 225.395 419.422C220.365 411.987 216.022 404.013 212.538 395.768C205.25 378.592 201.545 360.288 201.545 341.395C201.545 322.501 205.25 304.271 212.513 287.119C215.997 278.85 220.34 270.901 225.37 263.441C230.351 256.056 236.068 249.136 242.374 242.83C248.68 236.524 255.6 230.807 262.985 225.826C270.42 220.796 278.394 216.453 286.639 212.969C303.814 205.682 322.119 201.977 341.012 201.977V201.952Z" fill="#66B4E1"/>
<path d="M341.012 187.156C320.156 187.156 299.938 191.254 280.946 199.302C271.818 203.179 263.01 207.963 254.765 213.533C246.595 219.054 238.939 225.385 231.946 232.353C224.978 239.321 218.647 247.002 213.126 255.172C207.557 263.417 202.772 272.225 198.895 281.353C190.847 300.369 186.749 320.563 186.749 341.419C186.749 362.275 190.847 382.494 198.895 401.485C202.772 410.613 207.557 419.422 213.126 427.666C218.647 435.837 224.978 443.492 231.946 450.485C238.915 457.453 246.595 463.784 254.765 469.305C263.01 474.875 271.818 479.659 280.946 483.536C299.962 491.584 320.156 495.682 341.012 495.682C361.868 495.682 382.087 491.584 401.078 483.536C410.206 479.659 419.015 474.875 427.259 469.305C435.43 463.784 443.085 457.453 450.078 450.485C457.047 443.517 463.377 435.837 468.898 427.666C474.468 419.422 479.252 410.613 483.129 401.485C491.177 382.469 495.275 362.275 495.275 341.419C495.275 320.563 491.177 300.344 483.129 281.353C479.252 272.225 474.468 263.417 468.898 255.172C463.377 247.002 457.047 239.346 450.078 232.353C443.11 225.385 435.43 219.054 427.259 213.533C419.015 207.963 410.206 203.179 401.078 199.302C382.062 191.254 361.868 187.156 341.012 187.156V187.156ZM341.012 181.783C362.58 181.783 383.51 186.028 403.139 194.321C412.586 198.321 421.714 203.277 430.228 209.019C438.669 214.736 446.619 221.262 453.832 228.476C461.046 235.69 467.597 243.615 473.315 252.056C479.081 260.57 484.037 269.698 488.037 279.145C496.379 298.799 500.624 319.753 500.624 341.345C500.624 362.938 496.379 383.843 488.086 403.473C484.086 412.919 479.13 422.047 473.388 430.561C467.671 439.002 461.144 446.952 453.93 454.166C446.717 461.379 438.791 467.931 430.351 473.648C421.836 479.414 412.709 484.37 403.262 488.37C383.608 496.712 362.654 500.957 341.061 500.957C319.469 500.957 298.564 496.712 278.934 488.419C269.487 484.419 260.36 479.463 251.846 473.721C243.405 468.004 235.455 461.478 228.241 454.264C221.027 447.05 214.476 439.125 208.759 430.684C202.993 422.17 198.036 413.042 194.037 403.595C185.694 383.941 181.449 362.987 181.449 341.395C181.449 319.802 185.694 298.897 193.988 279.267C197.987 269.821 202.944 260.693 208.685 252.179C214.402 243.738 220.929 235.788 228.143 228.574C235.357 221.361 243.282 214.809 251.723 209.092C260.237 203.326 269.365 198.37 278.811 194.37C298.465 186.028 319.42 181.783 341.012 181.783V181.783Z" fill="#66B4E1"/>
<path d="M341.012 166.447C317.359 166.447 294.441 171.085 272.874 180.212C262.519 184.604 252.508 190.027 243.16 196.333C233.909 202.59 225.199 209.779 217.273 217.68C209.348 225.605 202.183 234.291 195.926 243.566C189.62 252.915 184.173 262.901 179.806 273.28C170.678 294.848 166.04 317.766 166.04 341.419C166.04 365.073 170.678 387.99 179.806 409.558C184.198 419.912 189.62 429.923 195.926 439.272C202.183 448.522 209.372 457.233 217.273 465.158C225.199 473.083 233.885 480.248 243.16 486.505C252.508 492.836 262.495 498.258 272.874 502.626C294.441 511.753 317.359 516.391 341.012 516.391C364.666 516.391 387.583 511.753 409.151 502.626C419.505 498.234 429.516 492.811 438.865 486.505C448.115 480.248 456.826 473.059 464.751 465.158C472.677 457.233 479.841 448.547 486.098 439.272C492.429 429.923 497.851 419.937 502.219 409.558C511.347 387.99 515.984 365.073 515.984 341.419C515.984 317.766 511.347 294.848 502.219 273.28C497.827 262.926 492.404 252.915 486.098 243.566C479.841 234.316 472.652 225.605 464.751 217.68C456.826 209.779 448.14 202.59 438.865 196.333C429.516 190.027 419.53 184.58 409.151 180.212C387.583 171.085 364.666 166.447 341.012 166.447ZM341.012 161.663C365.304 161.663 388.859 166.423 410.991 175.796C421.64 180.311 431.921 185.88 441.515 192.358C451.035 198.787 459.967 206.172 468.113 214.294C476.234 222.416 483.62 231.347 490.049 240.867C496.551 250.461 502.121 260.742 506.636 271.391C516.009 293.548 520.793 317.103 520.793 341.444C520.793 365.784 516.033 389.29 506.66 411.423C502.145 422.071 496.575 432.352 490.098 441.946C483.669 451.467 476.284 460.398 468.162 468.544C460.04 476.69 451.084 484.051 441.589 490.48C431.995 496.982 421.714 502.552 411.065 507.067C388.908 516.44 365.353 521.225 341.012 521.225C316.672 521.225 293.166 516.465 271.033 507.091C260.384 502.577 250.103 497.007 240.51 490.529C230.989 484.101 222.058 476.715 213.912 468.593C205.79 460.472 198.404 451.516 191.976 442.02C185.474 432.426 179.904 422.145 175.389 411.496C166.016 389.339 161.231 365.784 161.231 341.444C161.231 317.103 165.991 293.597 175.364 271.465C179.879 260.816 185.449 250.535 191.927 240.941C198.355 231.421 205.741 222.489 213.863 214.343C221.984 206.221 230.94 198.836 240.436 192.407C250.03 185.905 260.311 180.335 270.96 175.82C293.116 166.447 316.672 161.663 341.012 161.663V161.663Z" fill="#66B4E1"/>
<path d="M341.012 145.713C314.562 145.713 288.921 150.891 264.801 161.098C253.195 166.005 242.031 172.066 231.578 179.133C221.224 186.126 211.483 194.174 202.625 203.031C193.767 211.889 185.743 221.63 178.726 231.985C171.659 242.437 165.599 253.626 160.691 265.208C150.484 289.327 145.307 314.968 145.307 341.419C145.307 367.87 150.484 393.51 160.691 417.63C165.599 429.236 171.659 440.4 178.726 450.853C185.719 461.207 193.767 470.949 202.625 479.806C211.483 488.664 221.224 496.688 231.578 503.705C242.031 510.772 253.22 516.832 264.801 521.74C288.921 531.947 314.562 537.124 341.012 537.124C367.463 537.124 393.104 531.947 417.224 521.74C428.829 516.832 439.994 510.772 450.446 503.705C460.801 496.712 470.542 488.664 479.4 479.806C488.258 470.949 496.281 461.207 503.299 450.853C510.365 440.4 516.426 429.212 521.333 417.63C531.54 393.51 536.718 367.87 536.718 341.419C536.718 314.968 531.54 289.327 521.333 265.208C516.426 253.602 510.365 242.437 503.299 231.985C496.306 221.63 488.258 211.889 479.4 203.031C470.542 194.174 460.801 186.15 450.446 179.133C439.994 172.066 428.805 166.005 417.224 161.098C393.104 150.891 367.463 145.713 341.012 145.713V145.713ZM341.012 141.493C368.027 141.493 394.208 146.793 418.818 157.197C430.67 162.202 442.079 168.41 452.777 175.624C463.353 182.764 473.315 190.984 482.344 200.013C491.398 209.043 499.594 219.005 506.758 229.58C513.972 240.254 520.18 251.688 525.185 263.515C535.614 288.15 540.938 314.355 540.938 341.394C540.938 368.434 535.638 394.59 525.234 419.2C520.229 431.052 514.021 442.461 506.807 453.159C499.667 463.735 491.447 473.697 482.418 482.726C473.388 491.78 463.426 499.976 452.851 507.14C442.177 514.354 430.743 520.562 418.917 525.567C394.282 535.996 368.076 541.296 341.037 541.296C313.997 541.296 287.841 535.996 263.231 525.592C251.379 520.586 239.97 514.379 229.272 507.165C218.696 500.025 208.734 491.805 199.705 482.775C190.651 473.746 182.456 463.784 175.291 453.208C168.077 442.535 161.869 431.101 156.864 419.274C146.436 394.639 141.111 368.434 141.111 341.394C141.111 314.355 146.411 288.199 156.815 263.588C161.82 251.737 168.028 240.327 175.242 229.629C182.382 219.054 190.602 209.092 199.631 200.062C208.661 191.008 218.623 182.813 229.198 175.648C239.872 168.435 251.281 162.227 263.133 157.221C287.767 146.793 313.973 141.493 341.012 141.493V141.493Z" fill="#66B4E1"/>
<path d="M341.012 124.98C311.764 124.98 283.424 130.722 256.753 142.009C243.92 147.431 231.554 154.154 219.997 161.957C208.538 169.686 197.766 178.593 187.976 188.383C178.186 198.173 169.304 208.945 161.55 220.404C153.747 231.96 147.024 244.327 141.602 257.16C130.315 283.831 124.573 312.196 124.573 341.419C124.573 370.642 130.315 399.007 141.602 425.678C147.024 438.511 153.747 450.878 161.55 462.435C169.304 473.893 178.186 484.665 187.976 494.455C197.766 504.245 208.538 513.127 219.997 520.881C231.554 528.708 243.92 535.407 256.753 540.83C283.424 552.116 311.789 557.858 341.012 557.858C370.236 557.858 398.6 552.116 425.272 540.83C438.104 535.407 450.471 528.684 462.028 520.881C473.486 513.152 484.258 504.245 494.048 494.455C503.838 484.665 512.721 473.893 520.474 462.435C528.301 450.878 535 438.511 540.423 425.678C551.71 399.007 557.451 370.642 557.451 341.419C557.451 312.196 551.71 283.831 540.423 257.16C535 244.327 528.277 231.96 520.474 220.404C512.745 208.945 503.838 198.173 494.048 188.383C484.258 178.593 473.486 169.711 462.028 161.957C450.471 154.13 438.104 147.431 425.272 142.009C398.6 130.722 370.236 124.98 341.012 124.98V124.98ZM341.012 121.349C370.751 121.349 399.557 127.188 426.67 138.647C439.699 144.168 452.287 150.989 464.04 158.939C475.695 166.815 486.638 175.845 496.6 185.807C506.562 195.769 515.591 206.712 523.468 218.367C531.418 230.12 538.239 242.708 543.76 255.737C555.243 282.85 561.083 311.705 561.083 341.444C561.083 371.182 555.243 399.988 543.784 427.102C538.263 440.131 531.442 452.718 523.492 464.471C515.616 476.126 506.586 487.069 496.624 497.031C486.663 506.993 475.719 516.023 464.064 523.899C452.311 531.849 439.748 538.67 426.695 544.191C399.582 555.674 370.726 561.514 340.988 561.514C311.249 561.514 282.443 555.674 255.33 544.216C242.301 538.695 229.713 531.874 217.96 523.924C206.305 516.047 195.362 507.018 185.4 497.056C175.438 487.094 166.408 476.151 158.532 464.496C150.582 452.742 143.761 440.18 138.24 427.126C126.757 400.013 120.917 371.158 120.917 341.419C120.917 311.68 126.757 282.874 138.216 255.761C143.736 242.732 150.558 230.145 158.508 218.392C166.384 206.737 175.413 195.793 185.375 185.831C195.337 175.869 206.281 166.84 217.936 158.964C229.689 151.014 242.252 144.192 255.305 138.672C282.418 127.188 311.274 121.349 341.012 121.349V121.349Z" fill="#66B4E1"/>
<path d="M341.012 104.246C308.992 104.246 277.904 110.528 248.68 122.894C234.621 128.832 221.076 136.193 208.391 144.757C195.828 153.246 184.026 162.987 173.303 173.71C162.581 184.433 152.84 196.235 144.35 208.798C135.786 221.483 128.425 235.027 122.488 249.087C110.121 278.31 103.84 309.374 103.84 341.419C103.84 373.464 110.121 404.528 122.488 433.751C128.425 447.81 135.786 461.355 144.35 474.04C152.84 486.603 162.581 498.405 173.303 509.128C184.026 519.85 195.828 529.591 208.391 538.081C221.076 546.645 234.621 554.006 248.68 559.943C277.904 572.31 308.992 578.591 341.012 578.591C373.033 578.591 404.121 572.31 433.344 559.943C447.404 554.006 460.948 546.645 473.633 538.081C486.196 529.591 497.999 519.85 508.721 509.128C519.444 498.405 529.185 486.603 537.674 474.04C546.238 461.355 553.599 447.81 559.537 433.751C571.903 404.528 578.185 373.464 578.185 341.419C578.185 309.374 571.903 278.31 559.537 249.087C553.599 235.027 546.238 221.483 537.674 208.798C529.185 196.235 519.444 184.433 508.721 173.71C497.999 162.987 486.196 153.246 473.633 144.757C460.948 136.193 447.404 128.832 433.344 122.894C404.121 110.528 373.057 104.246 341.012 104.246V104.246ZM341.012 101.179C373.45 101.179 404.93 107.534 434.522 120.048C448.753 126.059 462.469 133.519 475.326 142.205C488.037 150.793 500.011 160.656 510.88 171.526C521.75 182.396 531.614 194.345 540.202 207.055C548.888 219.888 556.322 233.604 562.358 247.86C574.897 277.476 581.252 308.957 581.252 341.419C581.252 373.881 574.897 405.337 562.383 434.929C556.372 449.16 548.912 462.876 540.226 475.733C531.638 488.443 521.775 500.417 510.905 511.287C500.035 522.157 488.086 532.021 475.376 540.608C462.543 549.295 448.827 556.729 434.571 562.765C404.955 575.304 373.474 581.659 341.012 581.659C308.55 581.659 277.094 575.304 247.502 562.79C233.271 556.778 219.555 549.319 206.698 540.633C193.988 532.045 182.014 522.181 171.144 511.312C160.274 500.442 150.41 488.492 141.823 475.782C133.136 462.95 125.702 449.234 119.666 434.978C107.127 405.362 100.772 373.881 100.772 341.419C100.772 308.957 107.127 277.501 119.641 247.909C125.653 233.678 133.112 219.962 141.773 207.105C150.361 194.394 160.225 182.42 171.095 171.551C181.965 160.681 193.914 150.817 206.624 142.229C219.457 133.543 233.173 126.109 247.404 120.073C277.02 107.534 308.501 101.179 340.963 101.179H341.012Z" fill="#66B4E1"/>
<path d="M341.012 83.5129C306.194 83.5129 272.407 90.3341 240.608 103.78C225.321 110.233 210.599 118.232 196.809 127.556C183.167 136.782 170.31 147.382 158.655 159.037C146.975 170.717 136.4 183.549 127.174 197.192C117.85 210.981 109.851 225.704 103.398 240.99C89.9518 272.79 83.1306 306.552 83.1306 341.395C83.1306 376.237 89.9518 409.999 103.398 441.799C109.851 457.085 117.85 471.808 127.174 485.597C136.4 499.24 147 512.097 158.655 523.752C170.334 535.431 183.167 546.007 196.809 555.233C210.599 564.557 225.321 572.556 240.608 579.009C272.407 592.455 306.17 599.276 341.012 599.276C375.854 599.276 409.617 592.455 441.417 579.009C456.703 572.556 471.425 564.557 485.215 555.233C498.857 546.007 511.715 535.407 523.37 523.752C535.049 512.072 545.624 499.24 554.85 485.597C564.174 471.808 572.173 457.085 578.626 441.799C592.073 409.999 598.894 376.237 598.894 341.395C598.894 306.552 592.073 272.79 578.626 240.99C572.173 225.704 564.174 210.981 554.85 197.192C545.624 183.549 535.025 170.692 523.37 159.037C511.69 147.358 498.857 136.782 485.215 127.556C471.425 118.232 456.703 110.233 441.417 103.78C409.617 90.3341 375.854 83.5129 341.012 83.5129V83.5129ZM341.012 81.0347C376.173 81.0347 410.28 87.9295 442.374 101.498C457.807 108.025 472.677 116.098 486.589 125.495C500.379 134.819 513.334 145.493 525.112 157.27C536.889 169.048 547.587 182.004 556.911 195.793C566.309 209.706 574.382 224.575 580.933 240.009C594.526 272.103 601.421 306.209 601.421 341.395C601.421 376.58 594.526 410.662 580.957 442.756C574.431 458.19 566.358 473.059 556.96 486.971C547.636 500.761 536.963 513.716 525.185 525.494C513.408 537.272 500.452 547.97 486.663 557.294C472.75 566.691 457.881 574.764 442.447 581.315C410.353 594.884 376.247 601.803 341.061 601.803C305.876 601.803 271.794 594.909 239.7 581.34C224.266 574.813 209.397 566.74 195.485 557.343C181.695 548.019 168.739 537.345 156.962 525.568C145.184 513.79 134.486 500.835 125.162 487.045C115.764 473.133 107.692 458.263 101.141 442.83C87.5472 410.735 80.6523 376.629 80.6523 341.444C80.6523 306.258 87.5472 272.176 101.116 240.082C107.643 224.648 115.715 209.779 125.113 195.867C134.437 182.077 145.11 169.122 156.888 157.344C168.666 145.566 181.621 134.868 195.411 125.544C209.323 116.147 224.193 108.05 239.626 101.523C271.72 87.954 305.826 81.0347 341.012 81.0347V81.0347Z" fill="#66B4E1"/>
<path d="M341.012 62.7791C303.397 62.7791 266.887 70.1401 232.56 84.6905C216.046 91.6834 200.122 100.32 185.228 110.38C170.482 120.342 156.594 131.801 144.006 144.388C131.394 157 119.96 170.864 109.998 185.61C99.9383 200.504 91.3014 216.428 84.3084 232.942C69.7826 267.293 62.397 303.779 62.397 341.394C62.397 379.009 69.7581 415.52 84.3084 449.847C91.3014 466.36 99.9383 482.285 109.998 497.178C119.96 511.925 131.419 525.813 144.006 538.4C156.618 551.012 170.482 562.446 185.228 572.408C200.122 582.468 216.046 591.105 232.56 598.098C266.911 612.624 303.397 620.01 341.012 620.01C378.627 620.01 415.138 612.648 449.465 598.098C465.978 591.105 481.902 582.468 496.796 572.408C511.543 562.446 525.431 550.988 538.018 538.4C550.63 525.788 562.064 511.925 572.026 497.178C582.086 482.285 590.723 466.36 597.716 449.847C612.242 415.495 619.627 379.009 619.627 341.394C619.627 303.779 612.266 267.269 597.716 232.942C590.723 216.428 582.086 200.504 572.026 185.61C562.064 170.864 550.605 156.976 538.018 144.388C525.406 131.777 511.543 120.342 496.796 110.38C481.902 100.32 465.978 91.6834 449.465 84.6905C415.113 70.1647 378.627 62.7791 341.012 62.7791V62.7791ZM341.012 60.8652C378.897 60.8652 415.629 68.2999 450.201 82.9238C466.812 89.9659 482.859 98.6519 497.851 108.786C512.696 118.821 526.682 130.353 539.368 143.039C552.053 155.724 563.585 169.686 573.621 184.555C583.755 199.547 592.465 215.57 599.483 232.206C614.107 266.778 621.541 303.534 621.541 341.419C621.541 379.304 614.107 416.035 599.507 450.608C592.465 467.219 583.779 483.266 573.645 498.258C563.61 513.103 552.078 527.089 539.392 539.774C526.707 552.46 512.745 563.992 497.876 574.028C482.884 584.161 466.861 592.872 450.225 599.889C415.653 614.513 378.897 621.948 341.012 621.948C303.127 621.948 266.396 614.513 231.824 599.914C215.212 592.872 199.165 584.186 184.173 574.052C169.328 564.017 155.342 552.484 142.657 539.799C129.971 527.113 118.439 513.152 108.403 498.283C98.2698 483.291 89.5592 467.268 82.5417 450.632C67.9178 416.06 60.4832 379.304 60.4832 341.419C60.4832 303.534 67.9178 266.802 82.5417 232.23C89.5838 215.619 98.2698 199.572 108.403 184.58C118.439 169.735 129.971 155.749 142.657 143.063C155.342 130.378 169.304 118.846 184.173 108.81C199.165 98.6764 215.188 89.9659 231.824 82.9483C266.396 68.3244 303.152 60.8898 341.037 60.8898L341.012 60.8652Z" fill="#66B4E1"/>
<path d="M341.012 42.0458C300.6 42.0458 261.39 49.9712 224.487 65.5766C206.747 73.0848 189.645 82.3598 173.647 93.1805C157.796 103.879 142.902 116.196 129.358 129.74C115.814 143.285 103.521 158.178 92.798 174.029C81.9773 190.027 72.7024 207.129 65.1941 224.869C49.5887 261.773 41.6634 300.983 41.6634 341.395C41.6634 381.807 49.5887 421.016 65.1941 457.92C72.7024 475.66 81.9773 492.762 92.798 508.76C103.496 524.611 115.814 539.505 129.358 553.049C142.902 566.593 157.796 578.886 173.647 589.609C189.645 600.429 206.747 609.704 224.487 617.213C261.39 632.818 300.6 640.743 341.012 640.743C381.424 640.743 420.634 632.818 457.537 617.213C475.277 609.704 492.38 600.429 508.378 589.609C524.228 578.911 539.122 566.593 552.666 553.049C566.211 539.505 578.504 524.611 589.226 508.76C600.047 492.762 609.322 475.66 616.83 457.92C632.436 421.016 640.361 381.807 640.361 341.395C640.361 300.983 632.436 261.773 616.83 224.869C609.322 207.129 600.047 190.027 589.226 174.029C578.528 158.178 566.211 143.285 552.666 129.74C539.122 116.196 524.228 103.903 508.378 93.1805C492.38 82.3598 475.277 73.0848 457.537 65.5766C420.634 49.9712 381.424 42.0458 341.012 42.0458V42.0458ZM341.012 40.6963C381.621 40.6963 421.002 48.6462 458.053 64.3252C475.866 71.858 493.042 81.182 509.138 92.0518C525.063 102.799 540.03 115.165 553.648 128.759C567.241 142.352 579.608 157.344 590.355 173.244C601.225 189.316 610.549 206.491 618.082 224.305C633.761 261.38 641.71 300.762 641.71 341.37C641.71 381.978 633.761 421.36 618.082 458.411C610.549 476.224 601.225 493.4 590.355 509.496C579.608 525.42 567.241 540.388 553.648 554.006C540.055 567.599 525.063 579.966 509.163 590.713C493.091 601.583 475.915 610.907 458.102 618.439C421.027 634.118 381.645 642.068 341.037 642.068C300.428 642.068 261.047 634.118 223.996 618.439C206.183 610.907 189.007 601.583 172.935 590.713C157.011 579.966 142.043 567.599 128.45 554.006C114.832 540.412 102.49 525.421 91.7429 509.521C80.8731 493.449 71.5492 476.273 64.0164 458.46C48.3374 421.385 40.3875 382.003 40.3875 341.395C40.3875 300.786 48.3374 261.405 64.0164 224.354C71.5492 206.54 80.8731 189.365 91.7429 173.269C102.49 157.344 114.857 142.377 128.45 128.783C142.043 115.165 157.035 102.823 172.935 92.0763C189.007 81.2065 206.183 71.8825 223.996 64.3497C261.071 48.6707 300.453 40.7208 341.061 40.7208L341.012 40.6963Z" fill="#66B4E1"/>
<path d="M341.012 21.3119C297.803 21.3119 255.87 29.7771 216.415 46.4621C197.448 54.4856 179.168 64.423 162.041 75.9799C145.086 87.4385 129.162 100.59 114.66 115.067C100.184 129.544 87.0321 145.493 75.5734 162.448C64.0165 179.55 54.0792 197.854 46.0556 216.821C29.3706 256.276 20.9054 298.21 20.9054 341.419C20.9054 384.628 29.3706 426.561 46.0556 466.017C54.0792 484.984 64.0165 503.263 75.5734 520.39C87.0321 537.345 100.184 553.269 114.66 567.771C129.137 582.247 145.086 595.399 162.041 606.858C179.143 618.415 197.448 628.352 216.415 636.376C255.87 653.061 297.803 661.526 341.012 661.526C384.222 661.526 426.155 653.061 465.61 636.376C484.577 628.352 502.857 618.415 519.984 606.858C536.939 595.399 552.863 582.247 567.364 567.771C581.841 553.294 594.993 537.345 606.451 520.39C618.008 503.288 627.945 484.984 635.969 466.017C652.654 426.561 661.119 384.628 661.119 341.419C661.119 298.21 652.654 256.276 635.969 216.821C627.945 197.854 618.008 179.574 606.451 162.448C594.993 145.493 581.841 129.568 567.364 115.067C552.887 100.59 536.939 87.4385 519.984 75.9799C502.881 64.423 484.577 54.4856 465.61 46.4621C426.155 29.7771 384.222 21.3119 341.012 21.3119V21.3119ZM341.012 20.5513C384.32 20.5513 426.351 29.041 465.905 45.7751C484.921 53.8232 503.25 63.7606 520.401 75.3665C537.38 86.8497 553.354 100.026 567.879 114.552C582.405 129.077 595.581 145.051 607.065 162.03C618.646 179.182 628.608 197.511 636.656 216.527C653.39 256.08 661.88 298.111 661.88 341.419C661.88 384.726 653.39 426.758 636.656 466.311C628.608 485.327 618.671 503.656 607.065 520.807C595.581 537.787 582.405 553.76 567.879 568.286C553.354 582.812 537.38 595.988 520.401 607.471C503.25 619.053 484.921 629.014 465.905 637.063C426.351 653.797 384.32 662.286 341.012 662.286C297.705 662.286 255.673 653.797 216.12 637.063C197.104 629.014 178.775 619.077 161.624 607.471C144.644 595.988 128.671 582.812 114.145 568.286C99.6194 553.76 86.4432 537.787 74.96 520.807C63.3786 503.656 53.4167 485.327 45.3686 466.311C28.6345 426.758 20.1448 384.726 20.1448 341.419C20.1448 298.111 28.6345 256.08 45.3686 216.527C53.4167 197.511 63.3541 179.182 74.96 162.03C86.4432 145.051 99.6194 129.077 114.145 114.552C128.671 100.026 144.644 86.8497 161.624 75.3665C178.775 63.7851 197.104 53.8232 216.12 45.7751C255.673 29.041 297.705 20.5513 341.012 20.5513V20.5513Z" fill="#66B4E1"/>
<path d="M341.012 0.603033C295.006 0.603033 250.373 9.60803 208.342 27.3972C188.148 35.936 168.666 46.5114 150.46 58.8288C132.425 71.0236 115.446 85.0341 100.012 100.443C84.5783 115.877 70.5923 132.832 58.3975 150.891C46.0801 169.122 35.5047 188.579 26.9659 208.773C9.20129 250.756 0.196294 295.388 0.196294 341.419C0.196294 387.45 9.20129 432.058 26.9905 474.089C35.5293 494.283 46.1046 513.765 58.4221 531.972C70.6169 550.031 84.6274 566.986 100.036 582.419C115.47 597.853 132.425 611.839 150.484 624.034C168.715 636.351 188.173 646.927 208.366 655.465C250.373 673.23 295.006 682.26 341.037 682.26C387.068 682.26 431.676 673.254 473.707 655.465C493.901 646.927 513.383 636.351 531.589 624.034C549.624 611.839 566.603 597.853 582.037 582.419C597.471 566.986 611.457 550.031 623.651 531.972C635.969 513.741 646.544 494.283 655.083 474.089C672.848 432.082 681.877 387.45 681.877 341.419C681.877 295.388 672.872 250.78 655.083 208.749C646.544 188.555 635.969 169.073 623.651 150.866C611.457 132.832 597.471 115.852 582.037 100.419C566.603 84.985 549.649 70.9991 531.589 58.8043C513.359 46.4868 493.901 35.9115 473.707 27.3727C431.651 9.60803 387.019 0.603033 341.012 0.603033ZM341.012 682.431C294.981 682.431 250.324 673.426 208.268 655.637C188.074 647.098 168.568 636.523 150.337 624.205C132.278 612.011 115.298 598 99.8647 582.567C84.4311 567.133 70.4206 550.153 58.2258 532.094C45.9083 513.864 35.333 494.381 26.7942 474.163C9.005 432.107 0 387.45 0 341.419C0 295.388 9.005 250.731 26.7942 208.675C35.333 188.481 45.9083 168.974 58.2258 150.744C70.4206 132.685 84.4311 115.705 99.8647 100.271C115.298 84.8378 132.278 70.8273 150.337 58.6325C168.568 46.3151 188.05 35.7397 208.268 27.2009C250.3 9.41174 294.957 0.406738 341.012 0.406738C387.068 0.406738 431.7 9.41174 473.756 27.2009C493.975 35.7397 513.457 46.3151 531.688 58.6325C549.747 70.8273 566.726 84.8378 582.16 100.271C597.593 115.705 611.604 132.685 623.799 150.744C636.116 168.974 646.692 188.457 655.23 208.675C673.02 250.706 682.024 295.363 682.024 341.419C682.024 387.475 673.02 432.107 655.23 474.163C646.692 494.381 636.116 513.864 623.799 532.094C611.604 550.153 597.593 567.133 582.16 582.567C566.726 598 549.747 612.011 531.688 624.205C513.457 636.523 493.975 647.098 473.756 655.637C431.725 673.426 387.068 682.431 341.012 682.431Z" fill="#66B4E1"/>
<path d="M341.012 332.267C335.982 332.267 331.885 336.364 331.885 341.394C331.885 346.424 335.982 350.522 341.012 350.522C346.042 350.522 350.14 346.424 350.14 341.394C350.14 336.364 346.042 332.267 341.012 332.267ZM341.012 359.92C330.805 359.92 322.487 351.602 322.487 341.394C322.487 331.187 330.805 322.869 341.012 322.869C351.22 322.869 359.538 331.187 359.538 341.394C359.538 351.602 351.22 359.92 341.012 359.92Z" fill="url(#paint0_linear_7757_165545)"/>
<path d="M341.012 311.558C336.939 311.558 333.013 312.367 329.333 313.938C327.566 314.698 325.873 315.606 324.278 316.686C322.708 317.741 321.236 318.968 319.886 320.317C318.537 321.667 317.334 323.139 316.255 324.709C315.175 326.304 314.267 327.997 313.507 329.764C311.936 333.42 311.126 337.37 311.126 341.444C311.126 345.517 311.936 349.443 313.507 353.123C314.267 354.89 315.175 356.583 316.255 358.178C317.31 359.748 318.537 361.22 319.886 362.57C321.236 363.919 322.708 365.122 324.278 366.201C325.873 367.281 327.566 368.189 329.333 368.949C332.989 370.52 336.939 371.329 341.012 371.329C345.085 371.329 349.011 370.52 352.692 368.949C354.458 368.189 356.151 367.281 357.746 366.201C359.317 365.146 360.789 363.919 362.138 362.57C363.488 361.22 364.69 359.748 365.77 358.178C366.85 356.583 367.757 354.89 368.518 353.123C370.088 349.467 370.898 345.517 370.898 341.444C370.898 337.37 370.088 333.445 368.518 329.764C367.757 327.997 366.85 326.304 365.77 324.709C364.715 323.139 363.488 321.667 362.138 320.317C360.789 318.968 359.317 317.766 357.746 316.686C356.151 315.606 354.458 314.698 352.692 313.938C349.036 312.367 345.085 311.558 341.012 311.558ZM341.012 302.749C346.288 302.749 351.367 303.804 356.078 305.792C358.36 306.773 360.568 307.951 362.629 309.349C364.666 310.723 366.58 312.294 368.322 314.036C370.064 315.778 371.634 317.667 373.033 319.704C374.431 321.765 375.634 323.949 376.615 326.231C378.652 330.966 379.731 336.095 379.731 341.419C379.731 346.743 378.676 351.774 376.689 356.485C375.707 358.766 374.53 360.975 373.131 363.036C371.757 365.072 370.187 366.986 368.444 368.728C366.702 370.471 364.813 372.041 362.776 373.439C360.715 374.838 358.532 376.04 356.25 377.022C351.514 379.058 346.386 380.138 341.061 380.138C335.737 380.138 330.707 379.083 325.996 377.095C323.714 376.114 321.506 374.936 319.444 373.538C317.408 372.164 315.494 370.593 313.752 368.851C312.01 367.109 310.439 365.22 309.041 363.183C307.642 361.122 306.44 358.938 305.458 356.656C303.422 351.921 302.342 346.793 302.342 341.468C302.342 336.144 303.397 331.114 305.385 326.402C306.366 324.121 307.544 321.912 308.943 319.851C310.317 317.815 311.887 315.901 313.629 314.159C315.371 312.417 317.261 310.846 319.297 309.448C321.358 308.049 323.542 306.847 325.824 305.865C330.56 303.829 335.688 302.749 341.012 302.749V302.749Z" fill="url(#paint1_linear_7757_165545)"/>
<path d="M341.012 290.824C334.142 290.824 327.493 292.173 321.26 294.823C318.267 296.099 315.396 297.67 312.697 299.485C310.022 301.301 307.52 303.362 305.238 305.644C302.956 307.926 300.895 310.429 299.079 313.103C297.263 315.802 295.693 318.673 294.417 321.667C291.767 327.899 290.417 334.524 290.417 341.394C290.417 348.265 291.767 354.914 294.417 361.122C295.693 364.115 297.263 366.986 299.079 369.685C300.895 372.36 302.956 374.862 305.238 377.144C307.52 379.426 310.022 381.487 312.697 383.303C315.396 385.119 318.267 386.689 321.26 387.965C327.493 390.615 334.117 391.965 341.012 391.965C347.907 391.965 354.532 390.615 360.74 387.965C363.733 386.689 366.604 385.119 369.303 383.303C371.978 381.487 374.48 379.426 376.762 377.144C379.044 374.862 381.105 372.36 382.921 369.685C384.737 366.986 386.307 364.115 387.583 361.122C390.233 354.889 391.583 348.265 391.583 341.394C391.583 334.524 390.233 327.874 387.583 321.667C386.307 318.673 384.737 315.802 382.921 313.103C381.105 310.429 379.044 307.926 376.762 305.644C374.48 303.362 371.978 301.301 369.303 299.485C366.604 297.67 363.733 296.099 360.74 294.823C354.508 292.173 347.883 290.824 341.012 290.824ZM341.012 282.58C349.011 282.58 356.716 284.15 363.905 287.217C367.389 288.689 370.751 290.505 373.867 292.64C376.983 294.725 379.879 297.13 382.553 299.78C385.203 302.43 387.608 305.325 389.718 308.441C391.853 311.582 393.668 314.919 395.165 318.403C398.257 325.642 399.852 333.395 399.852 341.443C399.852 349.491 398.281 357.147 395.214 364.336C393.742 367.82 391.926 371.182 389.791 374.298C387.706 377.414 385.301 380.31 382.651 382.984C380.001 385.634 377.106 388.039 373.99 390.149C370.849 392.284 367.512 394.099 364.028 395.596C356.789 398.688 349.036 400.283 340.988 400.283C332.94 400.283 325.284 398.712 318.095 395.645C314.611 394.173 311.249 392.357 308.133 390.222C305.017 388.137 302.122 385.732 299.447 383.082C296.772 380.432 294.392 377.537 292.282 374.421C290.148 371.28 288.332 367.943 286.86 364.459C283.768 357.22 282.173 349.467 282.173 341.419C282.173 333.371 283.743 325.715 286.811 318.526C288.283 315.042 290.098 311.68 292.233 308.564C294.319 305.448 296.723 302.553 299.373 299.878C302.023 297.228 304.919 294.823 308.035 292.713C311.176 290.579 314.513 288.763 317.997 287.266C325.235 284.174 332.989 282.58 341.037 282.58H341.012Z" fill="url(#paint2_linear_7757_165545)"/>
<path d="M341.012 270.091C331.345 270.091 321.996 272.004 313.212 275.709C308.992 277.501 304.919 279.709 301.115 282.285C297.337 284.837 293.803 287.757 290.589 290.971C287.375 294.186 284.455 297.743 281.903 301.498C279.327 305.301 277.118 309.374 275.327 313.594C271.598 322.378 269.708 331.727 269.708 341.394C269.708 351.062 271.622 360.41 275.327 369.195C277.118 373.415 279.327 377.488 281.903 381.291C284.455 385.07 287.375 388.603 290.589 391.818C293.803 395.032 297.361 397.952 301.115 400.504C304.919 403.08 308.992 405.288 313.212 407.079C321.996 410.809 331.345 412.698 341.012 412.698C350.68 412.698 360.028 410.784 368.812 407.079C373.033 405.288 377.106 403.08 380.909 400.504C384.688 397.952 388.221 395.032 391.435 391.818C394.65 388.603 397.57 385.045 400.121 381.291C402.698 377.488 404.906 373.415 406.697 369.195C410.427 360.41 412.316 351.062 412.316 341.394C412.316 331.727 410.402 322.378 406.697 313.594C404.906 309.374 402.698 305.301 400.121 301.498C397.57 297.719 394.65 294.186 391.435 290.971C388.221 287.757 384.663 284.837 380.909 282.285C377.106 279.709 373.033 277.501 368.812 275.709C360.028 271.98 350.68 270.091 341.012 270.091V270.091ZM341.012 262.435C351.71 262.435 362.065 264.545 371.757 268.643C376.443 270.63 380.934 273.059 385.154 275.906C389.325 278.727 393.251 281.966 396.809 285.524C400.367 289.082 403.606 293.008 406.427 297.179C409.274 301.375 411.727 305.89 413.715 310.552C417.837 320.268 419.972 330.672 419.972 341.419C419.972 352.166 417.861 362.472 413.764 372.164C411.776 376.85 409.347 381.34 406.501 385.561C403.679 389.732 400.44 393.658 396.882 397.216C393.325 400.773 389.399 404.012 385.228 406.834C381.032 409.68 376.517 412.134 371.855 414.121C362.138 418.244 351.735 420.378 340.988 420.378C330.241 420.378 319.935 418.268 310.243 414.171C305.557 412.183 301.066 409.754 296.846 406.908C292.675 404.086 288.749 400.847 285.191 397.289C281.633 393.731 278.394 389.806 275.573 385.634C272.726 381.438 270.273 376.924 268.285 372.262C264.163 362.545 262.028 352.142 262.028 341.394C262.028 330.647 264.138 320.342 268.236 310.65C270.224 305.963 272.653 301.473 275.499 297.253C278.321 293.082 281.56 289.156 285.117 285.598C288.675 282.04 292.601 278.801 296.772 275.979C300.968 273.133 305.483 270.679 310.145 268.692C319.862 264.57 330.265 262.435 341.012 262.435V262.435Z" fill="url(#paint3_linear_7757_165545)"/>
<path d="M341.012 249.357C328.547 249.357 316.475 251.81 305.139 256.62C299.692 258.926 294.441 261.772 289.534 265.109C284.676 268.397 280.087 272.176 275.941 276.323C271.794 280.469 268.015 285.058 264.727 289.916C261.415 294.823 258.544 300.074 256.238 305.521C251.428 316.857 248.975 328.93 248.975 341.394C248.975 353.859 251.428 365.931 256.238 377.267C258.544 382.714 261.39 387.965 264.727 392.872C268.015 397.731 271.794 402.319 275.941 406.466C280.087 410.613 284.676 414.391 289.534 417.679C294.441 420.992 299.692 423.862 305.139 426.169C316.475 430.978 328.547 433.432 341.012 433.432C353.477 433.432 365.549 430.978 376.885 426.169C382.332 423.862 387.583 421.016 392.49 417.679C397.349 414.391 401.937 410.613 406.084 406.466C410.23 402.295 414.009 397.731 417.297 392.872C420.61 387.965 423.48 382.714 425.787 377.267C430.596 365.931 433.05 353.859 433.05 341.394C433.05 328.93 430.596 316.857 425.787 305.521C423.48 300.074 420.634 294.823 417.297 289.916C414.009 285.058 410.23 280.469 406.084 276.323C401.912 272.176 397.349 268.397 392.49 265.109C387.583 261.797 382.332 258.926 376.885 256.62C365.549 251.81 353.477 249.357 341.012 249.357V249.357ZM341.012 242.266C354.434 242.266 367.438 244.916 379.609 250.068C385.473 252.547 391.141 255.614 396.441 259.196C401.692 262.729 406.599 266.802 411.089 271.268C415.579 275.734 419.628 280.666 423.186 285.892C426.768 291.167 429.835 296.835 432.338 302.7C437.515 314.895 440.19 327.924 440.19 341.394C440.19 354.865 437.54 367.82 432.387 379.991C429.909 385.855 426.842 391.523 423.259 396.823C419.726 402.074 415.653 406.981 411.187 411.471C406.722 415.962 401.79 420.01 396.563 423.568C391.288 427.15 385.62 430.217 379.756 432.72C367.561 437.897 354.532 440.572 341.061 440.572C327.591 440.572 314.635 437.922 302.465 432.769C296.601 430.291 290.933 427.224 285.633 423.642C280.382 420.108 275.474 416.035 270.984 411.569C266.494 407.104 262.445 402.172 258.888 396.946C255.305 391.67 252.238 386.002 249.735 380.138C244.558 367.943 241.884 354.914 241.884 341.443C241.884 327.973 244.534 315.017 249.686 302.847C252.164 296.983 255.232 291.315 258.814 286.015C262.347 280.764 266.42 275.856 270.886 271.366C275.352 266.876 280.284 262.827 285.51 259.27C290.785 255.687 296.453 252.62 302.318 250.117C314.512 244.94 327.541 242.266 341.012 242.266V242.266Z" fill="url(#paint4_linear_7757_165545)"/>
<path d="M341.012 228.623C325.75 228.623 310.955 231.617 297.067 237.506C290.393 240.328 283.94 243.836 277.928 247.909C271.966 251.933 266.347 256.571 261.268 261.675C256.164 266.778 251.551 272.373 247.503 278.335C243.43 284.347 239.945 290.8 237.099 297.474C231.21 311.362 228.217 326.157 228.217 341.419C228.217 356.681 231.21 371.477 237.099 385.364C239.921 392.038 243.43 398.492 247.503 404.503C251.527 410.466 256.164 416.085 261.268 421.164C266.371 426.267 271.966 430.88 277.928 434.929C283.94 439.002 290.393 442.486 297.067 445.332C310.955 451.221 325.75 454.215 341.012 454.215C356.274 454.215 371.07 451.221 384.958 445.332C391.632 442.511 398.085 439.002 404.096 434.929C410.059 430.905 415.678 426.267 420.757 421.164C425.861 416.06 430.473 410.466 434.522 404.503C438.595 398.492 442.079 392.038 444.926 385.364C450.814 371.477 453.808 356.681 453.808 341.419C453.808 326.157 450.814 311.362 444.926 297.474C442.104 290.8 438.595 284.347 434.522 278.335C430.498 272.373 425.861 266.754 420.757 261.675C415.653 256.571 410.059 251.958 404.096 247.909C398.085 243.836 391.632 240.352 384.958 237.506C371.07 231.617 356.274 228.623 341.012 228.623V228.623ZM341.012 222.097C357.158 222.097 372.787 225.262 387.436 231.47C394.503 234.463 401.324 238.168 407.679 242.462C413.985 246.732 419.923 251.614 425.321 257.013C430.719 262.411 435.602 268.324 439.871 274.63C444.19 280.985 447.87 287.806 450.888 294.873C457.12 309.57 460.31 325.225 460.31 341.419C460.31 357.613 457.145 373.194 450.937 387.843C447.944 394.909 444.239 401.73 439.945 408.086C435.675 414.391 430.792 420.329 425.394 425.727C419.996 431.126 414.083 436.008 407.777 440.278C401.422 444.596 394.601 448.277 387.534 451.295C372.837 457.527 357.182 460.717 340.988 460.717C324.794 460.717 309.213 457.552 294.564 451.344C287.498 448.35 280.676 444.645 274.321 440.351C268.015 436.082 262.077 431.199 256.679 425.801C251.281 420.403 246.398 414.49 242.129 408.184C237.811 401.829 234.13 395.007 231.112 387.941C224.88 373.243 221.69 357.589 221.69 341.395C221.69 325.2 224.855 309.619 231.063 294.971C234.056 287.904 237.762 281.083 242.055 274.728C246.325 268.422 251.208 262.484 256.606 257.086C262.004 251.688 267.917 246.805 274.223 242.536C280.578 238.217 287.399 234.537 294.466 231.519C309.164 225.286 324.818 222.097 341.012 222.097V222.097Z" fill="url(#paint5_linear_7757_165545)"/>
<path d="M341.012 207.89C322.953 207.89 305.458 211.423 289.019 218.392C281.118 221.729 273.487 225.876 266.347 230.709C259.28 235.494 252.631 240.966 246.595 247.002C240.559 253.038 235.087 259.687 230.302 266.754C225.493 273.894 221.346 281.5 217.985 289.426C211.016 305.865 207.483 323.385 207.483 341.419C207.483 359.454 211.016 376.973 217.985 393.413C221.322 401.314 225.469 408.944 230.302 416.085C235.087 423.151 240.559 429.776 246.595 435.837C252.631 441.873 259.28 447.345 266.347 452.129C273.487 456.938 281.093 461.085 289.019 464.447C305.458 471.415 322.978 474.948 341.012 474.948C359.047 474.948 376.566 471.415 393.006 464.447C400.907 461.11 408.538 456.963 415.678 452.129C422.744 447.345 429.394 441.873 435.43 435.837C441.466 429.801 446.938 423.151 451.722 416.085C456.531 408.944 460.678 401.338 464.04 393.413C471.008 376.973 474.541 359.454 474.541 341.419C474.541 323.385 470.984 305.865 464.04 289.426C460.703 281.525 456.556 273.894 451.722 266.754C446.938 259.687 441.466 253.038 435.43 247.002C429.394 240.966 422.744 235.494 415.678 230.709C408.538 225.9 400.931 221.753 393.006 218.392C376.566 211.423 359.047 207.89 341.012 207.89ZM341.012 201.952C359.881 201.952 378.136 205.657 395.288 212.92C403.557 216.404 411.506 220.747 418.966 225.777C426.351 230.758 433.271 236.475 439.577 242.781C445.882 249.087 451.6 256.007 456.605 263.392C461.635 270.827 465.978 278.801 469.462 287.046C476.75 304.221 480.455 322.526 480.455 341.419C480.455 360.313 476.75 378.543 469.487 395.695C466.003 403.964 461.66 411.913 456.63 419.373C451.649 426.758 445.932 433.678 439.626 439.983C433.32 446.289 426.4 452.007 419.015 457.012C411.58 462.042 403.606 466.385 395.361 469.869C378.186 477.157 359.881 480.862 340.988 480.862C322.094 480.862 303.864 477.157 286.712 469.894C278.443 466.41 270.494 462.067 263.034 457.037C255.649 452.056 248.729 446.339 242.423 440.033C236.118 433.727 230.4 426.807 225.395 419.422C220.365 411.987 216.022 404.013 212.538 395.768C205.25 378.592 201.545 360.288 201.545 341.395C201.545 322.501 205.25 304.271 212.513 287.119C215.997 278.85 220.34 270.901 225.37 263.441C230.351 256.056 236.068 249.136 242.374 242.83C248.68 236.524 255.6 230.807 262.985 225.826C270.42 220.796 278.394 216.453 286.639 212.969C303.814 205.682 322.119 201.977 341.012 201.977V201.952Z" fill="url(#paint6_linear_7757_165545)"/>
<path d="M341.012 187.156C320.156 187.156 299.938 191.254 280.946 199.302C271.818 203.179 263.01 207.963 254.765 213.533C246.595 219.054 238.939 225.385 231.946 232.353C224.978 239.321 218.647 247.002 213.126 255.172C207.557 263.417 202.772 272.225 198.895 281.353C190.847 300.369 186.749 320.563 186.749 341.419C186.749 362.275 190.847 382.494 198.895 401.485C202.772 410.613 207.557 419.422 213.126 427.666C218.647 435.837 224.978 443.492 231.946 450.485C238.915 457.453 246.595 463.784 254.765 469.305C263.01 474.875 271.818 479.659 280.946 483.536C299.962 491.584 320.156 495.682 341.012 495.682C361.868 495.682 382.087 491.584 401.078 483.536C410.206 479.659 419.015 474.875 427.259 469.305C435.43 463.784 443.085 457.453 450.078 450.485C457.047 443.517 463.377 435.837 468.898 427.666C474.468 419.422 479.252 410.613 483.129 401.485C491.177 382.469 495.275 362.275 495.275 341.419C495.275 320.563 491.177 300.344 483.129 281.353C479.252 272.225 474.468 263.417 468.898 255.172C463.377 247.002 457.047 239.346 450.078 232.353C443.11 225.385 435.43 219.054 427.259 213.533C419.015 207.963 410.206 203.179 401.078 199.302C382.062 191.254 361.868 187.156 341.012 187.156V187.156ZM341.012 181.783C362.58 181.783 383.51 186.028 403.139 194.321C412.586 198.321 421.714 203.277 430.228 209.019C438.669 214.736 446.619 221.262 453.832 228.476C461.046 235.69 467.597 243.615 473.315 252.056C479.081 260.57 484.037 269.698 488.037 279.145C496.379 298.799 500.624 319.753 500.624 341.345C500.624 362.938 496.379 383.843 488.086 403.473C484.086 412.919 479.13 422.047 473.388 430.561C467.671 439.002 461.144 446.952 453.93 454.166C446.717 461.379 438.791 467.931 430.351 473.648C421.836 479.414 412.709 484.37 403.262 488.37C383.608 496.712 362.654 500.957 341.061 500.957C319.469 500.957 298.564 496.712 278.934 488.419C269.487 484.419 260.36 479.463 251.846 473.721C243.405 468.004 235.455 461.478 228.241 454.264C221.027 447.05 214.476 439.125 208.759 430.684C202.993 422.17 198.036 413.042 194.037 403.595C185.694 383.941 181.449 362.987 181.449 341.395C181.449 319.802 185.694 298.897 193.988 279.267C197.987 269.821 202.944 260.693 208.685 252.179C214.402 243.738 220.929 235.788 228.143 228.574C235.357 221.361 243.282 214.809 251.723 209.092C260.237 203.326 269.365 198.37 278.811 194.37C298.465 186.028 319.42 181.783 341.012 181.783V181.783Z" fill="url(#paint7_linear_7757_165545)"/>
<path d="M341.012 166.447C317.359 166.447 294.441 171.085 272.874 180.212C262.519 184.604 252.508 190.027 243.16 196.333C233.909 202.59 225.199 209.779 217.273 217.68C209.348 225.605 202.183 234.291 195.926 243.566C189.62 252.915 184.173 262.901 179.806 273.28C170.678 294.848 166.04 317.766 166.04 341.419C166.04 365.073 170.678 387.99 179.806 409.558C184.198 419.912 189.62 429.923 195.926 439.272C202.183 448.522 209.372 457.233 217.273 465.158C225.199 473.083 233.885 480.248 243.16 486.505C252.508 492.836 262.495 498.258 272.874 502.626C294.441 511.753 317.359 516.391 341.012 516.391C364.666 516.391 387.583 511.753 409.151 502.626C419.505 498.234 429.516 492.811 438.865 486.505C448.115 480.248 456.826 473.059 464.751 465.158C472.677 457.233 479.841 448.547 486.098 439.272C492.429 429.923 497.851 419.937 502.219 409.558C511.347 387.99 515.984 365.073 515.984 341.419C515.984 317.766 511.347 294.848 502.219 273.28C497.827 262.926 492.404 252.915 486.098 243.566C479.841 234.316 472.652 225.605 464.751 217.68C456.826 209.779 448.14 202.59 438.865 196.333C429.516 190.027 419.53 184.58 409.151 180.212C387.583 171.085 364.666 166.447 341.012 166.447ZM341.012 161.663C365.304 161.663 388.859 166.423 410.991 175.796C421.64 180.311 431.921 185.88 441.515 192.358C451.035 198.787 459.967 206.172 468.113 214.294C476.234 222.416 483.62 231.347 490.049 240.867C496.551 250.461 502.121 260.742 506.636 271.391C516.009 293.548 520.793 317.103 520.793 341.444C520.793 365.784 516.033 389.29 506.66 411.423C502.145 422.071 496.575 432.352 490.098 441.946C483.669 451.467 476.284 460.398 468.162 468.544C460.04 476.69 451.084 484.051 441.589 490.48C431.995 496.982 421.714 502.552 411.065 507.067C388.908 516.44 365.353 521.225 341.012 521.225C316.672 521.225 293.166 516.465 271.033 507.091C260.384 502.577 250.103 497.007 240.51 490.529C230.989 484.101 222.058 476.715 213.912 468.593C205.79 460.472 198.404 451.516 191.976 442.02C185.474 432.426 179.904 422.145 175.389 411.496C166.016 389.339 161.231 365.784 161.231 341.444C161.231 317.103 165.991 293.597 175.364 271.465C179.879 260.816 185.449 250.535 191.927 240.941C198.355 231.421 205.741 222.489 213.863 214.343C221.984 206.221 230.94 198.836 240.436 192.407C250.03 185.905 260.311 180.335 270.96 175.82C293.116 166.447 316.672 161.663 341.012 161.663V161.663Z" fill="url(#paint8_linear_7757_165545)"/>
<path d="M341.012 145.713C314.562 145.713 288.921 150.891 264.801 161.098C253.195 166.005 242.031 172.066 231.578 179.133C221.224 186.126 211.483 194.174 202.625 203.031C193.767 211.889 185.743 221.63 178.726 231.985C171.659 242.437 165.599 253.626 160.691 265.208C150.484 289.327 145.307 314.968 145.307 341.419C145.307 367.87 150.484 393.51 160.691 417.63C165.599 429.236 171.659 440.4 178.726 450.853C185.719 461.207 193.767 470.949 202.625 479.806C211.483 488.664 221.224 496.688 231.578 503.705C242.031 510.772 253.22 516.832 264.801 521.74C288.921 531.947 314.562 537.124 341.012 537.124C367.463 537.124 393.104 531.947 417.224 521.74C428.829 516.832 439.994 510.772 450.446 503.705C460.801 496.712 470.542 488.664 479.4 479.806C488.258 470.949 496.281 461.207 503.299 450.853C510.365 440.4 516.426 429.212 521.333 417.63C531.54 393.51 536.718 367.87 536.718 341.419C536.718 314.968 531.54 289.327 521.333 265.208C516.426 253.602 510.365 242.437 503.299 231.985C496.306 221.63 488.258 211.889 479.4 203.031C470.542 194.174 460.801 186.15 450.446 179.133C439.994 172.066 428.805 166.005 417.224 161.098C393.104 150.891 367.463 145.713 341.012 145.713V145.713ZM341.012 141.493C368.027 141.493 394.208 146.793 418.818 157.197C430.67 162.202 442.079 168.41 452.777 175.624C463.353 182.764 473.315 190.984 482.344 200.013C491.398 209.043 499.594 219.005 506.758 229.58C513.972 240.254 520.18 251.688 525.185 263.515C535.614 288.15 540.938 314.355 540.938 341.394C540.938 368.434 535.638 394.59 525.234 419.2C520.229 431.052 514.021 442.461 506.807 453.159C499.667 463.735 491.447 473.697 482.418 482.726C473.388 491.78 463.426 499.976 452.851 507.14C442.177 514.354 430.743 520.562 418.917 525.567C394.282 535.996 368.076 541.296 341.037 541.296C313.997 541.296 287.841 535.996 263.231 525.592C251.379 520.586 239.97 514.379 229.272 507.165C218.696 500.025 208.734 491.805 199.705 482.775C190.651 473.746 182.456 463.784 175.291 453.208C168.077 442.535 161.869 431.101 156.864 419.274C146.436 394.639 141.111 368.434 141.111 341.394C141.111 314.355 146.411 288.199 156.815 263.588C161.82 251.737 168.028 240.327 175.242 229.629C182.382 219.054 190.602 209.092 199.631 200.062C208.661 191.008 218.623 182.813 229.198 175.648C239.872 168.435 251.281 162.227 263.133 157.221C287.767 146.793 313.973 141.493 341.012 141.493V141.493Z" fill="url(#paint9_linear_7757_165545)"/>
<path d="M341.012 124.98C311.764 124.98 283.424 130.722 256.753 142.009C243.92 147.431 231.554 154.154 219.997 161.957C208.538 169.686 197.766 178.593 187.976 188.383C178.186 198.173 169.304 208.945 161.55 220.404C153.747 231.96 147.024 244.327 141.602 257.16C130.315 283.831 124.573 312.196 124.573 341.419C124.573 370.642 130.315 399.007 141.602 425.678C147.024 438.511 153.747 450.878 161.55 462.435C169.304 473.893 178.186 484.665 187.976 494.455C197.766 504.245 208.538 513.127 219.997 520.881C231.554 528.708 243.92 535.407 256.753 540.83C283.424 552.116 311.789 557.858 341.012 557.858C370.236 557.858 398.6 552.116 425.272 540.83C438.104 535.407 450.471 528.684 462.028 520.881C473.486 513.152 484.258 504.245 494.048 494.455C503.838 484.665 512.721 473.893 520.474 462.435C528.301 450.878 535 438.511 540.423 425.678C551.71 399.007 557.451 370.642 557.451 341.419C557.451 312.196 551.71 283.831 540.423 257.16C535 244.327 528.277 231.96 520.474 220.404C512.745 208.945 503.838 198.173 494.048 188.383C484.258 178.593 473.486 169.711 462.028 161.957C450.471 154.13 438.104 147.431 425.272 142.009C398.6 130.722 370.236 124.98 341.012 124.98V124.98ZM341.012 121.349C370.751 121.349 399.557 127.188 426.67 138.647C439.699 144.168 452.287 150.989 464.04 158.939C475.695 166.815 486.638 175.845 496.6 185.807C506.562 195.769 515.591 206.712 523.468 218.367C531.418 230.12 538.239 242.708 543.76 255.737C555.243 282.85 561.083 311.705 561.083 341.444C561.083 371.182 555.243 399.988 543.784 427.102C538.263 440.131 531.442 452.718 523.492 464.471C515.616 476.126 506.586 487.069 496.624 497.031C486.663 506.993 475.719 516.023 464.064 523.899C452.311 531.849 439.748 538.67 426.695 544.191C399.582 555.674 370.726 561.514 340.988 561.514C311.249 561.514 282.443 555.674 255.33 544.216C242.301 538.695 229.713 531.874 217.96 523.924C206.305 516.047 195.362 507.018 185.4 497.056C175.438 487.094 166.408 476.151 158.532 464.496C150.582 452.742 143.761 440.18 138.24 427.126C126.757 400.013 120.917 371.158 120.917 341.419C120.917 311.68 126.757 282.874 138.216 255.761C143.736 242.732 150.558 230.145 158.508 218.392C166.384 206.737 175.413 195.793 185.375 185.831C195.337 175.869 206.281 166.84 217.936 158.964C229.689 151.014 242.252 144.192 255.305 138.672C282.418 127.188 311.274 121.349 341.012 121.349V121.349Z" fill="url(#paint10_linear_7757_165545)"/>
<path d="M341.012 104.246C308.992 104.246 277.904 110.528 248.68 122.894C234.621 128.832 221.076 136.193 208.391 144.757C195.828 153.246 184.026 162.987 173.303 173.71C162.581 184.433 152.84 196.235 144.35 208.798C135.786 221.483 128.425 235.027 122.488 249.087C110.121 278.31 103.84 309.374 103.84 341.419C103.84 373.464 110.121 404.528 122.488 433.751C128.425 447.81 135.786 461.355 144.35 474.04C152.84 486.603 162.581 498.405 173.303 509.128C184.026 519.85 195.828 529.591 208.391 538.081C221.076 546.645 234.621 554.006 248.68 559.943C277.904 572.31 308.992 578.591 341.012 578.591C373.033 578.591 404.121 572.31 433.344 559.943C447.404 554.006 460.948 546.645 473.633 538.081C486.196 529.591 497.999 519.85 508.721 509.128C519.444 498.405 529.185 486.603 537.674 474.04C546.238 461.355 553.599 447.81 559.537 433.751C571.903 404.528 578.185 373.464 578.185 341.419C578.185 309.374 571.903 278.31 559.537 249.087C553.599 235.027 546.238 221.483 537.674 208.798C529.185 196.235 519.444 184.433 508.721 173.71C497.999 162.987 486.196 153.246 473.633 144.757C460.948 136.193 447.404 128.832 433.344 122.894C404.121 110.528 373.057 104.246 341.012 104.246V104.246ZM341.012 101.179C373.45 101.179 404.93 107.534 434.522 120.048C448.753 126.059 462.469 133.519 475.326 142.205C488.037 150.793 500.011 160.656 510.88 171.526C521.75 182.396 531.614 194.345 540.202 207.055C548.888 219.888 556.322 233.604 562.358 247.86C574.897 277.476 581.252 308.957 581.252 341.419C581.252 373.881 574.897 405.337 562.383 434.929C556.372 449.16 548.912 462.876 540.226 475.733C531.638 488.443 521.775 500.417 510.905 511.287C500.035 522.157 488.086 532.021 475.376 540.608C462.543 549.295 448.827 556.729 434.571 562.765C404.955 575.304 373.474 581.659 341.012 581.659C308.55 581.659 277.094 575.304 247.502 562.79C233.271 556.778 219.555 549.319 206.698 540.633C193.988 532.045 182.014 522.181 171.144 511.312C160.274 500.442 150.41 488.492 141.823 475.782C133.136 462.95 125.702 449.234 119.666 434.978C107.127 405.362 100.772 373.881 100.772 341.419C100.772 308.957 107.127 277.501 119.641 247.909C125.653 233.678 133.112 219.962 141.773 207.105C150.361 194.394 160.225 182.42 171.095 171.551C181.965 160.681 193.914 150.817 206.624 142.229C219.457 133.543 233.173 126.109 247.404 120.073C277.02 107.534 308.501 101.179 340.963 101.179H341.012Z" fill="url(#paint11_linear_7757_165545)"/>
<path d="M341.012 83.5129C306.194 83.5129 272.407 90.3341 240.608 103.78C225.321 110.233 210.599 118.232 196.809 127.556C183.167 136.782 170.31 147.382 158.655 159.037C146.975 170.717 136.4 183.549 127.174 197.192C117.85 210.981 109.851 225.704 103.398 240.99C89.9518 272.79 83.1306 306.552 83.1306 341.395C83.1306 376.237 89.9518 409.999 103.398 441.799C109.851 457.085 117.85 471.808 127.174 485.597C136.4 499.24 147 512.097 158.655 523.752C170.334 535.431 183.167 546.007 196.809 555.233C210.599 564.557 225.321 572.556 240.608 579.009C272.407 592.455 306.17 599.276 341.012 599.276C375.854 599.276 409.617 592.455 441.417 579.009C456.703 572.556 471.425 564.557 485.215 555.233C498.857 546.007 511.715 535.407 523.37 523.752C535.049 512.072 545.624 499.24 554.85 485.597C564.174 471.808 572.173 457.085 578.626 441.799C592.073 409.999 598.894 376.237 598.894 341.395C598.894 306.552 592.073 272.79 578.626 240.99C572.173 225.704 564.174 210.981 554.85 197.192C545.624 183.549 535.025 170.692 523.37 159.037C511.69 147.358 498.857 136.782 485.215 127.556C471.425 118.232 456.703 110.233 441.417 103.78C409.617 90.3341 375.854 83.5129 341.012 83.5129V83.5129ZM341.012 81.0347C376.173 81.0347 410.28 87.9295 442.374 101.498C457.807 108.025 472.677 116.098 486.589 125.495C500.379 134.819 513.334 145.493 525.112 157.27C536.889 169.048 547.587 182.004 556.911 195.793C566.309 209.706 574.382 224.575 580.933 240.009C594.526 272.103 601.421 306.209 601.421 341.395C601.421 376.58 594.526 410.662 580.957 442.756C574.431 458.19 566.358 473.059 556.96 486.971C547.636 500.761 536.963 513.716 525.185 525.494C513.408 537.272 500.452 547.97 486.663 557.294C472.75 566.691 457.881 574.764 442.447 581.315C410.353 594.884 376.247 601.803 341.061 601.803C305.876 601.803 271.794 594.909 239.7 581.34C224.266 574.813 209.397 566.74 195.485 557.343C181.695 548.019 168.739 537.345 156.962 525.568C145.184 513.79 134.486 500.835 125.162 487.045C115.764 473.133 107.692 458.263 101.141 442.83C87.5472 410.735 80.6523 376.629 80.6523 341.444C80.6523 306.258 87.5472 272.176 101.116 240.082C107.643 224.648 115.715 209.779 125.113 195.867C134.437 182.077 145.11 169.122 156.888 157.344C168.666 145.566 181.621 134.868 195.411 125.544C209.323 116.147 224.193 108.05 239.626 101.523C271.72 87.954 305.826 81.0347 341.012 81.0347V81.0347Z" fill="url(#paint12_linear_7757_165545)"/>
<path d="M341.012 62.7791C303.397 62.7791 266.887 70.1401 232.56 84.6905C216.046 91.6834 200.122 100.32 185.228 110.38C170.482 120.342 156.594 131.801 144.006 144.388C131.394 157 119.96 170.864 109.998 185.61C99.9383 200.504 91.3014 216.428 84.3084 232.942C69.7826 267.293 62.397 303.779 62.397 341.394C62.397 379.009 69.7581 415.52 84.3084 449.847C91.3014 466.36 99.9383 482.285 109.998 497.178C119.96 511.925 131.419 525.813 144.006 538.4C156.618 551.012 170.482 562.446 185.228 572.408C200.122 582.468 216.046 591.105 232.56 598.098C266.911 612.624 303.397 620.01 341.012 620.01C378.627 620.01 415.138 612.648 449.465 598.098C465.978 591.105 481.902 582.468 496.796 572.408C511.543 562.446 525.431 550.988 538.018 538.4C550.63 525.788 562.064 511.925 572.026 497.178C582.086 482.285 590.723 466.36 597.716 449.847C612.242 415.495 619.627 379.009 619.627 341.394C619.627 303.779 612.266 267.269 597.716 232.942C590.723 216.428 582.086 200.504 572.026 185.61C562.064 170.864 550.605 156.976 538.018 144.388C525.406 131.777 511.543 120.342 496.796 110.38C481.902 100.32 465.978 91.6834 449.465 84.6905C415.113 70.1647 378.627 62.7791 341.012 62.7791V62.7791ZM341.012 60.8652C378.897 60.8652 415.629 68.2999 450.201 82.9238C466.812 89.9659 482.859 98.6519 497.851 108.786C512.696 118.821 526.682 130.353 539.368 143.039C552.053 155.724 563.585 169.686 573.621 184.555C583.755 199.547 592.465 215.57 599.483 232.206C614.107 266.778 621.541 303.534 621.541 341.419C621.541 379.304 614.107 416.035 599.507 450.608C592.465 467.219 583.779 483.266 573.645 498.258C563.61 513.103 552.078 527.089 539.392 539.774C526.707 552.46 512.745 563.992 497.876 574.028C482.884 584.161 466.861 592.872 450.225 599.889C415.653 614.513 378.897 621.948 341.012 621.948C303.127 621.948 266.396 614.513 231.824 599.914C215.212 592.872 199.165 584.186 184.173 574.052C169.328 564.017 155.342 552.484 142.657 539.799C129.971 527.113 118.439 513.152 108.403 498.283C98.2698 483.291 89.5592 467.268 82.5417 450.632C67.9178 416.06 60.4832 379.304 60.4832 341.419C60.4832 303.534 67.9178 266.802 82.5417 232.23C89.5838 215.619 98.2698 199.572 108.403 184.58C118.439 169.735 129.971 155.749 142.657 143.063C155.342 130.378 169.304 118.846 184.173 108.81C199.165 98.6764 215.188 89.9659 231.824 82.9483C266.396 68.3244 303.152 60.8898 341.037 60.8898L341.012 60.8652Z" fill="url(#paint13_linear_7757_165545)"/>
<path d="M341.012 42.0458C300.6 42.0458 261.39 49.9712 224.487 65.5766C206.747 73.0848 189.645 82.3598 173.647 93.1805C157.796 103.879 142.902 116.196 129.358 129.74C115.814 143.285 103.521 158.178 92.798 174.029C81.9773 190.027 72.7024 207.129 65.1941 224.869C49.5887 261.773 41.6634 300.983 41.6634 341.395C41.6634 381.807 49.5887 421.016 65.1941 457.92C72.7024 475.66 81.9773 492.762 92.798 508.76C103.496 524.611 115.814 539.505 129.358 553.049C142.902 566.593 157.796 578.886 173.647 589.609C189.645 600.429 206.747 609.704 224.487 617.213C261.39 632.818 300.6 640.743 341.012 640.743C381.424 640.743 420.634 632.818 457.537 617.213C475.277 609.704 492.38 600.429 508.378 589.609C524.228 578.911 539.122 566.593 552.666 553.049C566.211 539.505 578.504 524.611 589.226 508.76C600.047 492.762 609.322 475.66 616.83 457.92C632.436 421.016 640.361 381.807 640.361 341.395C640.361 300.983 632.436 261.773 616.83 224.869C609.322 207.129 600.047 190.027 589.226 174.029C578.528 158.178 566.211 143.285 552.666 129.74C539.122 116.196 524.228 103.903 508.378 93.1805C492.38 82.3598 475.277 73.0848 457.537 65.5766C420.634 49.9712 381.424 42.0458 341.012 42.0458V42.0458ZM341.012 40.6963C381.621 40.6963 421.002 48.6462 458.053 64.3252C475.866 71.858 493.042 81.182 509.138 92.0518C525.063 102.799 540.03 115.165 553.648 128.759C567.241 142.352 579.608 157.344 590.355 173.244C601.225 189.316 610.549 206.491 618.082 224.305C633.761 261.38 641.71 300.762 641.71 341.37C641.71 381.978 633.761 421.36 618.082 458.411C610.549 476.224 601.225 493.4 590.355 509.496C579.608 525.42 567.241 540.388 553.648 554.006C540.055 567.599 525.063 579.966 509.163 590.713C493.091 601.583 475.915 610.907 458.102 618.439C421.027 634.118 381.645 642.068 341.037 642.068C300.428 642.068 261.047 634.118 223.996 618.439C206.183 610.907 189.007 601.583 172.935 590.713C157.011 579.966 142.043 567.599 128.45 554.006C114.832 540.412 102.49 525.421 91.7429 509.521C80.8731 493.449 71.5492 476.273 64.0164 458.46C48.3374 421.385 40.3875 382.003 40.3875 341.395C40.3875 300.786 48.3374 261.405 64.0164 224.354C71.5492 206.54 80.8731 189.365 91.7429 173.269C102.49 157.344 114.857 142.377 128.45 128.783C142.043 115.165 157.035 102.823 172.935 92.0763C189.007 81.2065 206.183 71.8825 223.996 64.3497C261.071 48.6707 300.453 40.7208 341.061 40.7208L341.012 40.6963Z" fill="url(#paint14_linear_7757_165545)"/>
<path d="M341.012 21.3119C297.803 21.3119 255.87 29.7771 216.415 46.4621C197.448 54.4856 179.168 64.423 162.041 75.9799C145.086 87.4385 129.162 100.59 114.66 115.067C100.184 129.544 87.0321 145.493 75.5734 162.448C64.0165 179.55 54.0792 197.854 46.0556 216.821C29.3706 256.276 20.9054 298.21 20.9054 341.419C20.9054 384.628 29.3706 426.561 46.0556 466.017C54.0792 484.984 64.0165 503.263 75.5734 520.39C87.0321 537.345 100.184 553.269 114.66 567.771C129.137 582.247 145.086 595.399 162.041 606.858C179.143 618.415 197.448 628.352 216.415 636.376C255.87 653.061 297.803 661.526 341.012 661.526C384.222 661.526 426.155 653.061 465.61 636.376C484.577 628.352 502.857 618.415 519.984 606.858C536.939 595.399 552.863 582.247 567.364 567.771C581.841 553.294 594.993 537.345 606.451 520.39C618.008 503.288 627.945 484.984 635.969 466.017C652.654 426.561 661.119 384.628 661.119 341.419C661.119 298.21 652.654 256.276 635.969 216.821C627.945 197.854 618.008 179.574 606.451 162.448C594.993 145.493 581.841 129.568 567.364 115.067C552.887 100.59 536.939 87.4385 519.984 75.9799C502.881 64.423 484.577 54.4856 465.61 46.4621C426.155 29.7771 384.222 21.3119 341.012 21.3119V21.3119ZM341.012 20.5513C384.32 20.5513 426.351 29.041 465.905 45.7751C484.921 53.8232 503.25 63.7606 520.401 75.3665C537.38 86.8497 553.354 100.026 567.879 114.552C582.405 129.077 595.581 145.051 607.065 162.03C618.646 179.182 628.608 197.511 636.656 216.527C653.39 256.08 661.88 298.111 661.88 341.419C661.88 384.726 653.39 426.758 636.656 466.311C628.608 485.327 618.671 503.656 607.065 520.807C595.581 537.787 582.405 553.76 567.879 568.286C553.354 582.812 537.38 595.988 520.401 607.471C503.25 619.053 484.921 629.014 465.905 637.063C426.351 653.797 384.32 662.286 341.012 662.286C297.705 662.286 255.673 653.797 216.12 637.063C197.104 629.014 178.775 619.077 161.624 607.471C144.644 595.988 128.671 582.812 114.145 568.286C99.6194 553.76 86.4432 537.787 74.96 520.807C63.3786 503.656 53.4167 485.327 45.3686 466.311C28.6345 426.758 20.1448 384.726 20.1448 341.419C20.1448 298.111 28.6345 256.08 45.3686 216.527C53.4167 197.511 63.3541 179.182 74.96 162.03C86.4432 145.051 99.6194 129.077 114.145 114.552C128.671 100.026 144.644 86.8497 161.624 75.3665C178.775 63.7851 197.104 53.8232 216.12 45.7751C255.673 29.041 297.705 20.5513 341.012 20.5513V20.5513Z" fill="url(#paint15_linear_7757_165545)"/>
<path d="M341.012 0.603033C295.006 0.603033 250.373 9.60803 208.342 27.3972C188.148 35.936 168.666 46.5114 150.46 58.8288C132.425 71.0236 115.446 85.0341 100.012 100.443C84.5783 115.877 70.5923 132.832 58.3975 150.891C46.0801 169.122 35.5047 188.579 26.9659 208.773C9.20129 250.756 0.196294 295.388 0.196294 341.419C0.196294 387.45 9.20129 432.058 26.9905 474.089C35.5293 494.283 46.1046 513.765 58.4221 531.972C70.6169 550.031 84.6274 566.986 100.036 582.419C115.47 597.853 132.425 611.839 150.484 624.034C168.715 636.351 188.173 646.927 208.366 655.465C250.373 673.23 295.006 682.26 341.037 682.26C387.068 682.26 431.676 673.254 473.707 655.465C493.901 646.927 513.383 636.351 531.589 624.034C549.624 611.839 566.603 597.853 582.037 582.419C597.471 566.986 611.457 550.031 623.651 531.972C635.969 513.741 646.544 494.283 655.083 474.089C672.848 432.082 681.877 387.45 681.877 341.419C681.877 295.388 672.872 250.78 655.083 208.749C646.544 188.555 635.969 169.073 623.651 150.866C611.457 132.832 597.471 115.852 582.037 100.419C566.603 84.985 549.649 70.9991 531.589 58.8043C513.359 46.4868 493.901 35.9115 473.707 27.3727C431.651 9.60803 387.019 0.603033 341.012 0.603033ZM341.012 682.431C294.981 682.431 250.324 673.426 208.268 655.637C188.074 647.098 168.568 636.523 150.337 624.205C132.278 612.011 115.298 598 99.8647 582.567C84.4311 567.133 70.4206 550.153 58.2258 532.094C45.9083 513.864 35.333 494.381 26.7942 474.163C9.005 432.107 0 387.45 0 341.419C0 295.388 9.005 250.731 26.7942 208.675C35.333 188.481 45.9083 168.974 58.2258 150.744C70.4206 132.685 84.4311 115.705 99.8647 100.271C115.298 84.8378 132.278 70.8273 150.337 58.6325C168.568 46.3151 188.05 35.7397 208.268 27.2009C250.3 9.41174 294.957 0.406738 341.012 0.406738C387.068 0.406738 431.7 9.41174 473.756 27.2009C493.975 35.7397 513.457 46.3151 531.688 58.6325C549.747 70.8273 566.726 84.8378 582.16 100.271C597.593 115.705 611.604 132.685 623.799 150.744C636.116 168.974 646.692 188.457 655.23 208.675C673.02 250.706 682.024 295.363 682.024 341.419C682.024 387.475 673.02 432.107 655.23 474.163C646.692 494.381 636.116 513.864 623.799 532.094C611.604 550.153 597.593 567.133 582.16 582.567C566.726 598 549.747 612.011 531.688 624.205C513.457 636.523 493.975 647.098 473.756 655.637C431.725 673.426 387.068 682.431 341.012 682.431Z" fill="url(#paint16_linear_7757_165545)"/>
</g>
</g>
<defs>
<linearGradient id="paint0_linear_7757_165545" x1="-5.74447e-05" y1="341.419" x2="682" y2="341.419" gradientUnits="userSpaceOnUse">
<stop stop-color="#8B4D9E"/>
<stop offset="0.7" stop-color="#6387C4"/>
<stop offset="1" stop-color="#87C2EA"/>
</linearGradient>
<linearGradient id="paint1_linear_7757_165545" x1="6.73482e-05" y1="341.419" x2="682" y2="341.419" gradientUnits="userSpaceOnUse">
<stop stop-color="#8B4D9E"/>
<stop offset="0.7" stop-color="#6387C4"/>
<stop offset="1" stop-color="#87C2EA"/>
</linearGradient>
<linearGradient id="paint2_linear_7757_165545" x1="2.92862e-05" y1="341.419" x2="682" y2="341.419" gradientUnits="userSpaceOnUse">
<stop stop-color="#8B4D9E"/>
<stop offset="0.7" stop-color="#6387C4"/>
<stop offset="1" stop-color="#87C2EA"/>
</linearGradient>
<linearGradient id="paint3_linear_7757_165545" x1="-3.37366e-05" y1="341.419" x2="682" y2="341.419" gradientUnits="userSpaceOnUse">
<stop stop-color="#8B4D9E"/>
<stop offset="0.7" stop-color="#6387C4"/>
<stop offset="1" stop-color="#87C2EA"/>
</linearGradient>
<linearGradient id="paint4_linear_7757_165545" x1="-7.56876e-05" y1="341.419" x2="682" y2="341.419" gradientUnits="userSpaceOnUse">
<stop stop-color="#8B4D9E"/>
<stop offset="0.7" stop-color="#6387C4"/>
<stop offset="1" stop-color="#87C2EA"/>
</linearGradient>
<linearGradient id="paint5_linear_7757_165545" x1="6.26655e-05" y1="341.419" x2="682" y2="341.419" gradientUnits="userSpaceOnUse">
<stop stop-color="#8B4D9E"/>
<stop offset="0.7" stop-color="#6387C4"/>
<stop offset="1" stop-color="#87C2EA"/>
</linearGradient>
<linearGradient id="paint6_linear_7757_165545" x1="3.39688e-06" y1="341.419" x2="682" y2="341.419" gradientUnits="userSpaceOnUse">
<stop stop-color="#8B4D9E"/>
<stop offset="0.7" stop-color="#6387C4"/>
<stop offset="1" stop-color="#87C2EA"/>
</linearGradient>
<linearGradient id="paint7_linear_7757_165545" x1="-7.78183e-05" y1="341.419" x2="682" y2="341.419" gradientUnits="userSpaceOnUse">
<stop stop-color="#8B4D9E"/>
<stop offset="0.7" stop-color="#6387C4"/>
<stop offset="1" stop-color="#87C2EA"/>
</linearGradient>
<linearGradient id="paint8_linear_7757_165545" x1="-1.67026e-05" y1="341.419" x2="682" y2="341.419" gradientUnits="userSpaceOnUse">
<stop stop-color="#8B4D9E"/>
<stop offset="0.7" stop-color="#6387C4"/>
<stop offset="1" stop-color="#87C2EA"/>
</linearGradient>
<linearGradient id="paint9_linear_7757_165545" x1="8.93751e-06" y1="341.419" x2="682" y2="341.419" gradientUnits="userSpaceOnUse">
<stop stop-color="#8B4D9E"/>
<stop offset="0.7" stop-color="#6387C4"/>
<stop offset="1" stop-color="#87C2EA"/>
</linearGradient>
<linearGradient id="paint10_linear_7757_165545" x1="-3.88706e-05" y1="341.419" x2="682" y2="341.419" gradientUnits="userSpaceOnUse">
<stop stop-color="#8B4D9E"/>
<stop offset="0.7" stop-color="#6387C4"/>
<stop offset="1" stop-color="#87C2EA"/>
</linearGradient>
<linearGradient id="paint11_linear_7757_165545" x1="-0.000123985" y1="341.419" x2="682" y2="341.419" gradientUnits="userSpaceOnUse">
<stop stop-color="#8B4D9E"/>
<stop offset="0.7" stop-color="#6387C4"/>
<stop offset="1" stop-color="#87C2EA"/>
</linearGradient>
<linearGradient id="paint12_linear_7757_165545" x1="-6.90092e-05" y1="341.419" x2="682" y2="341.419" gradientUnits="userSpaceOnUse">
<stop stop-color="#8B4D9E"/>
<stop offset="0.7" stop-color="#6387C4"/>
<stop offset="1" stop-color="#87C2EA"/>
</linearGradient>
<linearGradient id="paint13_linear_7757_165545" x1="-2.50675e-05" y1="341.419" x2="682" y2="341.419" gradientUnits="userSpaceOnUse">
<stop stop-color="#8B4D9E"/>
<stop offset="0.7" stop-color="#6387C4"/>
<stop offset="1" stop-color="#87C2EA"/>
</linearGradient>
<linearGradient id="paint14_linear_7757_165545" x1="-0.00010276" y1="341.419" x2="682" y2="341.419" gradientUnits="userSpaceOnUse">
<stop stop-color="#8B4D9E"/>
<stop offset="0.7" stop-color="#6387C4"/>
<stop offset="1" stop-color="#87C2EA"/>
</linearGradient>
<linearGradient id="paint15_linear_7757_165545" x1="7.31888e-05" y1="341.419" x2="682" y2="341.419" gradientUnits="userSpaceOnUse">
<stop stop-color="#8B4D9E"/>
<stop offset="0.7" stop-color="#6387C4"/>
<stop offset="1" stop-color="#87C2EA"/>
</linearGradient>
<linearGradient id="paint16_linear_7757_165545" x1="0" y1="341.419" x2="682" y2="341.419" gradientUnits="userSpaceOnUse">
<stop stop-color="#8B4D9E"/>
<stop offset="0.7" stop-color="#6387C4"/>
<stop offset="1" stop-color="#87C2EA"/>
</linearGradient>
<clipPath id="clip0_7757_165545">
<rect width="682" height="682" fill="white" transform="translate(0 0.406738)"/>
</clipPath>
</defs>
</svg>
