<?xml version="1.0" encoding="utf-8"?>
<!-- Generator: Adobe Illustrator 25.2.3, SVG Export Plug-In . SVG Version: 6.00 Build 0)  -->
<svg version="1.1" id="Layer_1" xmlns="http://www.w3.org/2000/svg" xmlns:xlink="http://www.w3.org/1999/xlink" x="0px" y="0px"
	 viewBox="0 0 88 88" enable-background="new 0 0 88 88" xml:space="preserve">
<path fill="#007D3F" d="M42.9,13.2c0.9-2.4,1.6-4.8,2.6-7.2c1.6,3.4,2.6,7,4.1,10.3c3.9,1.5,8,2.2,12,3.6c-8.4,4.2-17,8.3-25.5,12.3
	C38.3,25.8,40.7,19.5,42.9,13.2z M28.5,20.4c3.9-2.1,7.7-4.4,11.5-6.4c-3.1,9.5-6.6,18.9-9.8,28.4c-3.5-6.5-6.5-13.3-9.7-19.9
	c-1-2.2-2.2-4.4-3.1-6.6C21.2,17.2,24.7,19.3,28.5,20.4z M45.6,30.4c8.6-4.2,17.2-8.4,25.8-12.6c-1.4,3.6-3,7.1-4.5,10.6
	c2,3.8,4.4,7.3,6.3,11.2C63.9,36.8,54.7,33.6,45.6,30.4z M19.6,25.9c2.6,4.8,4.8,9.9,7.2,14.8c1.6,3.4,3.4,6.8,4.8,10.2
	c-8.5-3-17.1-6-25.6-9.2c3.4-1.5,6.9-2.6,10.3-4C17.4,33.7,18.5,29.8,19.6,25.9z M53.7,35.3c7.2,2.3,14.3,4.9,21.4,7.4
	c2.3,0.8,4.7,1.5,6.9,2.6c-3.8,1.5-7.5,2.9-11.2,4.4c-1.4,4.3-2.3,8.7-3.8,13c-2.9-5.4-5.4-11-8.1-16.4C57.1,42.6,55.2,39,53.7,35.3
	z M53.4,53.8c0.9-2.7,1.7-5.4,2.9-8.1c1.3,2.3,2.4,4.6,3.6,7c3,6.3,6.2,12.4,9,18.6c-3.6-1.4-7.1-3.1-10.7-4.6
	c-3.8,2-7.3,4.4-11.2,6.3C49,66.5,51.3,60.2,53.4,53.8z M14.1,47.7c8.1,2.5,16,5.5,24,8.2c1.2,0.4,2.4,0.8,3.5,1.4
	c-8.6,4-17.2,8.4-25.9,12.2c1.4-3.5,3.2-6.9,4.5-10.5C18.5,55.2,16,51.6,14.1,47.7z M31.2,64.5c6.6-3.2,13-6.5,19.7-9.5
	c-1.8,5.9-4,11.7-6,17.6c-1.1,3.1-2.1,6.4-3.4,9.4c-1.6-3.4-2.8-7.1-4.3-10.5c-4.1-1.5-8.3-2.4-12.5-3.5
	C26.7,66.4,29.1,65.6,31.2,64.5z"/>
</svg>
