<?xml version="1.0" encoding="utf-8"?>
<!-- Generator: Adobe Illustrator 25.2.3, SVG Export Plug-In . SVG Version: 6.00 Build 0)  -->
<svg version="1.1" id="Warstwa_1" xmlns="http://www.w3.org/2000/svg" xmlns:xlink="http://www.w3.org/1999/xlink" x="0px" y="0px"
	 viewBox="0 0 88 88" enable-background="new 0 0 88 88" xml:space="preserve">
<g>
	<path fill="#FD6B2B" d="M17.9,44.6c1.6-0.8,2.7-2.5,2.9-3.4c0.1-0.5-0.1-0.8-0.6-0.9c-0.3-0.1-2.3-0.1-4.2-0.1
		c-0.5,0-1.4-1.2-2-1.6l0,0c-0.2,0,0.4,0.8-0.1,1.4c-0.1,0.1-0.3,0.1-0.5,0.1c-0.5-0.1-1-0.4-1.6-0.5c-0.9-0.1,0.2,0.3,0.1,1.3
		c-0.1,0.3-0.2,0.5-0.3,0.7c-0.4,0.8-1.8,3.7-2,4.5c-0.2,0.7-0.2,1.3,0.4,1.5c0.1,0,7.7,0,7.7,0l0.4-0.7l0.3-0.6l0,0l0,0
		c0.1-0.1,0.3-0.5,0.3-0.8c-0.4,0.1-0.8,0.5-0.9,0.6c0-0.1,0.1-0.4,0.1-0.6c-0.3,0.2-0.6,0.5-0.7,0.7c0-0.1,0.1-0.4,0.1-0.6
		c-0.2,0.1-0.5,0.4-0.6,0.5c0-0.1,0.1-0.4,0.1-0.5c-0.2,0.2-0.5,0.5-0.6,0.6h-0.1c-0.9,0-2.3,0.4-2.6-1.3c-0.3-2.1,1-1.1,2.4-0.7
		c0,0.1-0.2,0.5-0.2,0.7c0.3-0.1,0.7-0.4,0.8-0.5c0,0.1-0.2,0.5-0.2,0.7c0.3-0.1,0.7-0.4,0.8-0.5h0.1c0,0.1-0.2,0.4-0.2,0.4
		C17.3,45,17.7,44.8,17.9,44.6z M15.4,42c0.7-0.4,1.2-0.5,1.6-0.5C19.1,41.4,18.3,44.9,15.4,42z"/>
	<path fill="#FD6B2B" d="M10.3,37.5H8.6l-0.3,0.7c-0.2,0.4-1,2.2-1.8,4c-1.2,2.6-1.6,3.4-1.8,3.5C4.5,46,4.3,46,2.6,46H0.8l-0.4,0.8
		C0.2,47.2,0,47.6,0,47.6s4.7,0,5.2,0c0.7,0,1-0.1,1.3-0.2c0.7-0.3,1.2-0.6,1.7-1.3c0.2-0.3,3.9-8.4,3.9-8.6
		C12.1,37.5,11.3,37.5,10.3,37.5z"/>
	<path fill="#FD6B2B" d="M87.9,40.8c-0.2-0.3-0.9-0.5-1.1-0.5h-7.3l-4.6,10.3h3.4l1.3-2.8c0,0,4.2,0,4.4,0s0.9-0.1,1.4-0.7
		c0.6-0.6,0.8-1,0.9-1.3c0.1-0.1,1.5-3.3,1.5-3.3C87.9,42.4,88.1,41.3,87.9,40.8z M84.5,42l-1.7,3.7c-0.1,0.2-0.1,0.2-0.2,0.3
		c-0.2,0.1-0.4,0.1-0.4,0.1h-1.6c0,0-0.2,0-0.2-0.1c-0.1-0.1,0-0.2,0-0.3l1.7-3.7c0.1-0.1,0.1-0.3,0.2-0.4s0.3-0.1,0.3-0.1h1.6
		c0.2,0,0.3,0.1,0.3,0.1C84.6,41.9,84.5,42,84.5,42z"/>
	<polygon fill="#FD6B2B" points="67,40.2 64.8,40.2 60.7,42.8 63.1,37.5 59.7,37.5 55.1,47.6 58.5,47.6 59.8,44.8 60.6,44.1 
		60.7,47.6 64.7,47.6 64.1,41.9 	"/>
	<path fill="#FD6B2B" d="M37.6,42.8c-0.3-0.3-1-0.4-1.2-0.5c-0.1,0-0.2-0.1-0.4-0.1c0.1,0,0.9,0,1.4-0.2c0.6-0.3,0.9-0.6,1.1-1
		l0.8-1.8c0.2-0.5,0.2-0.9,0-1.3c-0.2-0.4-1.1-0.5-1.3-0.5h-7.6L29.2,40h-2.7l0.7-1.6h-3.4L23,40h-1.4L21,41.6h1.5l-1,2.2
		c-0.5,1.2-1,2.4-1,2.6c-0.1,0.4,0.2,1.1,0.5,1.2c0.1,0,3.5,0,5,0c0.4,0,0.7,0,0.7,0h7c0.1,0,1.2,0.1,1.8-0.3c1-0.7,1.2-1.3,1.3-1.5
		l1-2.3C37.9,43.2,37.8,43.1,37.6,42.8z M25.5,46.2c-1.3,0-1.5,0-1.5-0.3c0-0.1,1.9-4.4,1.9-4.4h2.7l-2.1,4.6
		C26.2,46.2,25.8,46.2,25.5,46.2z M33.9,43.6l-0.8,1.8c-0.1,0.2-0.1,0.2-0.3,0.4c-0.1,0.1-0.3,0.2-0.4,0.2h-2.3l1.2-2.8h2.3
		c0,0,0.1,0,0.2,0.1C33.9,43.4,33.9,43.5,33.9,43.6z M35.7,39.5L35,41.1c0,0.1,0,0.2-0.2,0.3c-0.1,0.1-0.4,0.1-0.5,0.1h-2.2l1.1-2.4
		h2.2c0,0,0.1,0,0.3,0.1C35.8,39.5,35.7,39.5,35.7,39.5z"/>
	<path fill="#FD6B2B" d="M78.5,40.2H75l-2.5,5.6c0,0.1-0.1,0.2-0.2,0.3S72,46.2,72,46.2h-1.5c0,0-0.2,0-0.2-0.1c0-0.2,0-0.2,0-0.3
		l2.5-5.6h-3.4l-2.5,5.1c-0.3,0.7-0.3,1.1-0.2,1.5c0.2,0.4,0.5,0.6,0.6,0.6c0.1,0,7.6,0,7.6,0L78.5,40.2z"/>
	<path fill="#FD6B2B" d="M48.2,41.2c0-0.1,0-0.5-0.1-0.7s-0.5-0.4-0.6-0.4c-0.1,0-0.3-0.1-0.5-0.1h-6.5l-0.7,1.5h4.7
		c0.4,0,0.2,0.4,0.1,0.6c-0.2,0.4-0.6,0.4-0.6,0.4h-3.5c-0.2,0-0.9,0-1.4,0.4c-0.2,0.1-0.6,0.3-1.2,1.7c0,0-0.5,1.2-0.6,1.4
		s-0.2,0.4-0.1,0.9c0,0.1,0.1,0.3,0.3,0.5s0.6,0.2,0.8,0.2l3.1,0c0.1,0,0.3,0,0.5-0.1c0.6-0.2,1-0.7,1-0.7l-0.2,0.8h3l2.2-4.9
		C47.9,42.5,48.2,41.9,48.2,41.2z M43.1,45.8c0,0.1-0.1,0.2-0.2,0.3c-0.1,0.2-0.4,0.2-0.4,0.2h-1.3c-0.1,0-0.2,0-0.3-0.2
		c0,0,0-0.1,0-0.3l0.5-1.1c0.1-0.2,0.2-0.3,0.4-0.4C42,44,42.2,44,42.3,44H44L43.1,45.8z"/>
	<path fill="#FD6B2B" d="M50.9,45.9c-0.1-0.1-0.1-0.2,0-0.4l1.5-3.4c0.1-0.2,0.1-0.2,0.4-0.4c0.1-0.1,0.5-0.2,0.5-0.2h3.4l0.7-1.5
		h-5.6c-0.1,0-0.5,0-0.7,0.1c-0.2,0.1-0.5,0.2-0.9,0.5c-0.3,0.2-0.6,0.6-0.8,0.8c-0.2,0.3-0.4,0.6-0.5,0.8l-1.4,3.1
		c-0.1,0.2-0.2,0.4-0.2,0.7c0,0.1,0,0.3,0,0.6c0.1,0.4,0.3,0.5,0.4,0.6c0.2,0.2,0.7,0.2,0.9,0.2H54l0.7-1.5h-3.4
		C51.3,46,50.9,46,50.9,45.9z"/>
</g>
</svg>
