<?xml version="1.0" encoding="utf-8"?>
<!-- Generator: Adobe Illustrator 25.2.3, SVG Export Plug-In . SVG Version: 6.00 Build 0)  -->
<svg version="1.1" id="Layer_1" xmlns="http://www.w3.org/2000/svg" xmlns:xlink="http://www.w3.org/1999/xlink" x="0px" y="0px"
	 viewBox="0 0 88 88" enable-background="new 0 0 88 88" xml:space="preserve">
<g>
	<path fill="#003545" d="M18.5,65.2l2.9,11.2h-2.2l-1.9-8.1l-3.7,8.1h-1.9l-3.6-8.1l-2,8.1H4l2.9-11.2h1.9l3.9,8.7l3.9-8.7
		L18.5,65.2z"/>
	<path fill="#003545" d="M29.7,69.6v-1.3h2.1v8.2h-2.1v-1.3c-0.6,1-1.7,1.5-3.1,1.5c-2.9,0-4.6-2.1-4.6-4.4c0-2.3,1.5-4.1,4.3-4.1
		C27.8,68.1,29.1,68.6,29.7,69.6z M24.3,72.3c0,1.5,1,2.8,2.8,2.8c1.8,0,2.7-1.3,2.7-2.8s-1-2.8-2.8-2.8
		C25.2,69.6,24.3,70.9,24.3,72.3L24.3,72.3z"/>
	<path fill="#003545" d="M36.6,76.5h-2.1v-8.2h2.1v1.8c0.5-1.2,1.7-2,3-2c0.5,0,0.9,0.1,1.3,0.2l-0.5,1.5c-0.4-0.1-0.7-0.1-1.1-0.2
		c-1.5,0-2.7,1.2-2.7,2.8V76.5z"/>
	<path fill="#003545" d="M41.9,66.1c0-0.6,0.5-1.1,1-1.1c0,0,0.1,0,0.1,0c0.6,0,1.1,0.5,1.2,1.1c0,0,0,0,0,0.1c0,0.6-0.5,1.1-1,1.1
		c0,0-0.1,0-0.1,0C42.5,67.3,42,66.8,41.9,66.1C41.9,66.2,41.9,66.1,41.9,66.1z M42,68.3h2.1v6c0,0.4,0.1,0.6,0.4,0.6
		c0.1,0,0.3,0,0.4,0l0.3,1.5c-0.4,0.2-0.9,0.3-1.4,0.3c-0.9,0-1.8-0.3-1.8-2.3L42,68.3z"/>
	<path fill="#003545" d="M53.6,69.6v-1.3h2.1v8.2h-2.1v-1.3c-0.6,1-1.7,1.5-3.1,1.5c-2.9,0-4.6-2.1-4.6-4.4c0-2.3,1.5-4.1,4.3-4.1
		C51.7,68.1,53,68.6,53.6,69.6z M48.2,72.3c0,1.5,1,2.8,2.8,2.8c1.8,0,2.7-1.3,2.7-2.8s-1-2.8-2.8-2.8
		C49.1,69.6,48.2,70.9,48.2,72.3L48.2,72.3z"/>
	<path fill="#003545" d="M59,65.2h5.1c4.3,0,6.4,2.4,6.4,5.6c0,3.4-2.3,5.6-6,5.6H59V65.2z M60.4,66.2v9.3h3.9
		c3.4,0,4.7-2.3,4.7-4.7c0-2.7-1.6-4.6-4.7-4.6L60.4,66.2z"/>
	<path fill="#003545" d="M79.1,76.5h-6.5V65.2h5.8c2.2,0,4.3,0.4,4.3,2.9c0,1.8-1.1,2.2-2.2,2.4c1.6,0.1,2.6,1.2,2.6,2.9
		C83.2,76,80.9,76.5,79.1,76.5z M78.6,70.1c2.2,0,2.7-0.9,2.7-1.9c0-1.6-1-2-2.7-2H74v4L78.6,70.1z M78.7,71.1H74v4.4h4.9
		c1.4,0,2.8-0.5,2.8-2.2C81.7,71.4,80,71.1,78.7,71.1L78.7,71.1z"/>
	<path fill="#003545" d="M83.6,11.6c-0.2-0.2-0.5-0.3-0.7-0.2c-0.7,0-1.7,0.5-2.2,0.8l-0.2,0.1c-0.9,0.4-1.8,0.6-2.7,0.7
		c-1,0-1.8,0.1-2.9,0.2c-6.5,0.7-9.3,5.6-12.1,10.4c-1.5,2.6-3.1,5.3-5.2,7.4c-0.4,0.4-0.9,0.8-1.4,1.2c-2.2,1.6-5,2.8-7.2,3.7
		c-2.1,0.8-4.4,1.5-6.5,2.2c-2,0.6-3.9,1.2-5.7,1.9c-0.8,0.3-1.5,0.5-2,0.7c-1.6,0.5-2.7,0.9-4.4,2.1c-0.7,0.4-1.3,0.9-1.8,1.3
		c-1.3,1.1-2.5,2.3-3.5,3.7c-0.9,1.3-1.8,2.5-2.9,3.5c-0.4,0.3-1,0.5-1.9,0.5c-1.1,0-2.4-0.2-3.8-0.5c-1.5-0.3-3-0.5-4.3-0.5
		c-1,0-1.9,0.2-2.5,0.5c0,0-1,0.6-1.4,1.4l0.4,0.2c0.6,0.4,1.2,0.8,1.8,1.3c0.6,0.5,1.2,1,1.9,1.3c0.2,0.1,0.4,0.2,0.6,0.4
		c-0.2,0.3-0.4,0.6-0.7,0.9c-1.5,1.9-2.4,3.2-1.9,3.9c0.2,0.1,0.5,0.2,0.8,0.2c3.2,0,5-0.8,7.2-1.9c0.6-0.3,1.3-0.6,2.1-1
		c1.3-0.6,2.7-1.5,4.2-2.4c1.9-1.3,3.9-2.5,5.9-3.2c1.6-0.5,3.3-0.7,5-0.7c2.1,0,4.2,0.3,6.3,0.5c1.6,0.2,3.2,0.4,4.8,0.5
		c0.6,0,1.2,0.1,1.7,0.1c0.7,0,1.5,0,2.2-0.1l0.2-0.1c1.1-0.7,1.6-2.2,2.1-3.6c0.3-0.9,0.6-1.7,1-2.3c0,0,0.1,0,0.1-0.1
		c0,0,0.1,0,0.1,0c0,0,0,0,0,0c-0.3,5.6-2.5,9.1-4.8,12.2l-1.5,1.6c0,0,2.1,0,3.3-0.5c4.4-1.3,7.7-4.2,10.1-8.8
		c0.6-1.2,1.1-2.4,1.6-3.6c0-0.1,0.4-0.3,0.4,0.2c0,0.2,0,0.3,0,0.5l0,0c0,0.1,0,0.2,0,0.3c-0.1,0.8-0.2,2.4-0.2,2.4l1.4-0.7
		c3.3-2.1,5.8-6.2,7.7-12.7c0.8-2.7,1.4-5.4,1.9-7.7c0.6-2.8,1.1-5.3,1.8-6.2c1-1.5,2.4-2.5,3.8-3.5c0.2-0.1,0.4-0.3,0.6-0.4
		c1.8-1.2,3.5-2.7,3.9-5.3v-0.1C84.2,12.4,83.9,11.9,83.6,11.6z"/>
</g>
</svg>
