<?xml version="1.0" encoding="utf-8"?>
<!-- Generator: Adobe Illustrator 25.2.3, SVG Export Plug-In . SVG Version: 6.00 Build 0)  -->
<svg version="1.1" id="Warstwa_1" xmlns="http://www.w3.org/2000/svg" xmlns:xlink="http://www.w3.org/1999/xlink" x="0px" y="0px"
	 viewBox="0 0 88 88" enable-background="new 0 0 88 88" xml:space="preserve">
<g>
	
		<linearGradient id="SVGID_1_" gradientUnits="userSpaceOnUse" x1="44" y1="12" x2="44" y2="76" gradientTransform="matrix(1 0 0 -1 0 88)">
		<stop  offset="0" style="stop-color:#574C4A"/>
		<stop  offset="1" style="stop-color:#80716D"/>
	</linearGradient>
	<path fill="url(#SVGID_1_)" d="M12,55.2V32.8C12,14.6,14.6,12,32.7,12h22.5C73.4,12,76,14.6,76,32.8v22.5C76,73.4,73.4,76,55.3,76
		H32.7C14.6,76,12,73.4,12,55.2z"/>
	
		<linearGradient id="SVGID_2_" gradientUnits="userSpaceOnUse" x1="54.6899" y1="23.0229" x2="32.1045" y2="66.214" gradientTransform="matrix(1 0 0 -1 0 88)">
		<stop  offset="0" style="stop-color:#268D83"/>
		<stop  offset="1" style="stop-color:#2EA19E"/>
	</linearGradient>
	<path fill="url(#SVGID_2_)" d="M25.3,23.3c-3.2,20.4-1.5,39.5-1.5,39.5h10.1c-1-5.1-4.4-28.4-1.5-28.5c1.5,0.2,8.6,19.8,8.6,19.8
		s1.5-0.2,3.1-0.2s3.1,0.2,3.1,0.2s7-19.5,8.6-19.8c2.9,0.1-0.6,23.4-1.5,28.5h10.1c0,0,1.7-19.1-1.5-39.5h-9.4
		c-1.8,0-8.6,11.9-9.3,11.9c-0.8,0-7.6-11.8-9.3-11.9H25.3z"/>
	
		<radialGradient id="SVGID_3_" cx="14.749" cy="64.2115" r="1.3964" gradientTransform="matrix(2.0219 0 0 -2.0219 8.9872 189.4215)" gradientUnits="userSpaceOnUse">
		<stop  offset="0" style="stop-color:#DB7C7C"/>
		<stop  offset="1" style="stop-color:#C83737"/>
	</radialGradient>
	<path fill="url(#SVGID_3_)" d="M42.1,60c0,0.7-0.3,1.5-0.8,2c-0.5,0.5-1.2,0.8-2,0.8c-0.7,0-1.5-0.3-2-0.8c-0.5-0.5-0.8-1.2-0.8-2
		c0-0.7,0.3-1.5,0.8-2c0.5-0.5,1.2-0.8,2-0.8c0.7,0,1.5,0.3,2,0.8C41.8,58.5,42.1,59.3,42.1,60z"/>
	
		<radialGradient id="SVGID_4_" cx="16.0934" cy="64.2115" r="1.3964" gradientTransform="matrix(2.0221 0 0 -2.0221 15.8405 189.4283)" gradientUnits="userSpaceOnUse">
		<stop  offset="0" style="stop-color:#DB7C7C"/>
		<stop  offset="1" style="stop-color:#C83737"/>
	</radialGradient>
	<path fill="url(#SVGID_4_)" d="M51.5,60c0,0.7-0.3,1.5-0.8,2c-0.5,0.5-1.2,0.8-2,0.8c-0.7,0-1.5-0.3-2-0.8c-0.5-0.5-0.8-1.2-0.8-2
		c0-0.7,0.3-1.5,0.8-2c0.5-0.5,1.2-0.8,2-0.8c0.7,0,1.5,0.3,2,0.8C51.2,58.5,51.5,59.3,51.5,60z"/>
	<path opacity="0.1" enable-background="new    " d="M62.3,24c1.4,9.8,1.7,19.3,1.7,26.3c0,7.2-0.4,11.9-0.4,11.9h-8.2l-0.9,0.7h9.8
		c0,0,1.6-19.1-1.5-39.5L62.3,24z M35.8,24c2.6,2.9,7,10.8,7.6,10.8C41.8,32.6,37.8,25.7,35.8,24z M31.6,33.7
		c-2.8,0.1,0.6,23.4,1.5,28.5h-8.5L24,62.8h9.8c-0.9-5.1-4.2-28.1-1.5-28.5C32,34,31.8,33.7,31.6,33.7z M55,33.7
		c-1.5,0.2-8.6,19.8-8.6,19.8s-1.5-0.2-3-0.2c-0.7,0-1.5,0-2.2,0.1l-0.2,0.8c0,0,1.5-0.2,3-0.2c1.5,0,3,0.2,3,0.2s7-19.4,8.6-19.8
		C55.5,33.9,55.3,33.7,55,33.7z"/>
	<path opacity="0.3" fill="#FFFFFF" enable-background="new    " d="M25.3,23.3c-3.2,20.4-1.5,39.5-1.5,39.5l0.6-0.7
		C24,57.6,23.2,41.3,26,24h9.4c0.2,0,0.5,0.2,0.8,0.4c-0.6-0.7-1.1-1.1-1.5-1.1H25.3z M53.4,23.3c-1.8,0-8.6,11.9-9.4,11.9
		c0.3,0.4,0.6,0.7,0.7,0.7c0.8,0,7.6-11.8,9.4-11.9h8.3l0.4-0.7L53.4,23.3z M33,35c2.3,3.4,8,19.1,8,19.1l0.2-0.8
		C39.7,49.5,34.4,35.3,33,35C33,35,33,35,33,35z M56.5,35c1.5,3.9-1.4,23.2-2.2,27.8l0.9-0.7C56.3,55.3,59.1,35.1,56.5,35z"/>
</g>
</svg>
