<?xml version="1.0" encoding="utf-8"?>
<!-- Generator: Adobe Illustrator 25.2.3, SVG Export Plug-In . SVG Version: 6.00 Build 0)  -->
<svg version="1.1" id="Layer_1" xmlns="http://www.w3.org/2000/svg" xmlns:xlink="http://www.w3.org/1999/xlink" x="0px" y="0px"
	 viewBox="0 0 88 88" enable-background="new 0 0 88 88" xml:space="preserve">
<g>
	<path fill="#97A3AA" d="M77.8,34c-2.9-3.8-7.1-6.2-11.8-6.9c-3.7-0.5-7.4,0.2-10.7,1.9c-0.4,0.2-0.9,0.5-1.3,0.8l-1.5,1.1l3.8,5
		l1.2-0.9c0.2-0.1,0.5-0.3,0.7-0.4c2.1-1.1,4.5-1.5,6.9-1.2c3,0.4,5.7,2,7.6,4.4s2.7,5.5,2.2,8.5C74,52.6,68.2,57,62,56.1
		c-2.4-0.3-4.6-1.4-6.3-3c-0.2-0.2-0.4-0.4-0.6-0.6l-14.5-19l-1.6-2c-0.4-0.3-0.7-0.8-1.1-1.1c-2.8-2.7-6.4-4.4-10.2-4.9
		c-10.2-1.4-19.6,5.8-21,15.9c-1.4,10.2,5.8,19.6,16,21c3.9,0.5,7.7-0.2,11.2-2c0.1-0.1,0.3-0.2,0.4-0.2L30.4,55
		c-2.1,1-4.5,1.4-6.9,1.1C16.8,55.2,12.1,49,13,42.3s7.1-11.4,13.8-10.5c2.5,0.3,4.9,1.5,6.8,3.2c0.2,0.2,0.4,0.4,0.6,0.6l11.4,14.9
		l4.6,6c0,0,0.9,0.9,1.2,1.3c2.7,2.6,6.1,4.2,9.8,4.7c0.8,0.1,1.6,0.2,2.4,0.2c8.8,0,16.4-6.5,17.7-15.4
		C81.9,42.5,80.7,37.8,77.8,34z"/>
	<path fill="#99FFFF" d="M46.9,59.1c-0.1-0.1-0.1-0.1-0.2-0.2l-7.3-9.6c-0.3-0.4-0.7-0.7-1-1.1c-2.7-2.6-6.1-4.2-9.8-4.7
		c-0.4,0-0.7-0.1-1.1-0.1H27l2.7,3.5c0.1,0.1,0.1,0.1,0.2,0.2l7.3,9.6c0.3,0.4,0.7,0.7,1,1.1c2.7,2.6,6.1,4.2,9.8,4.7
		c0.4,0,0.7,0.1,1.1,0.1h0.5L46.9,59.1z"/>
</g>
</svg>
