<?xml version="1.0" encoding="utf-8"?>
<!-- Generator: Adobe Illustrator 25.2.3, SVG Export Plug-In . SVG Version: 6.00 Build 0)  -->
<svg version="1.1" id="Layer_1" xmlns="http://www.w3.org/2000/svg" xmlns:xlink="http://www.w3.org/1999/xlink" x="0px" y="0px"
	 viewBox="0 0 88 88" enable-background="new 0 0 88 88" xml:space="preserve">
<g>
	<g>
		<path fill="#319B42" d="M35,32.9c8.2,3.5,16.4,6.9,24.6,10.4c6.4,2.7,13,4.7,16.1,11.7c2.4,5.4,4.9,10.9,7.3,16.3
			c-1-6-2-11.8-3-17.9c-1.2-7.1-7.4-10.8-12.6-14.8c-12.1-9.3-24.2-18.7-36.3-28c1.1,6.9,2.3,13.8,3.4,20.7
			C34.6,31.8,34.8,32.4,35,32.9z"/>
	</g>
	<g>
		<path fill="#319B42" d="M24.5,47.7c9.1,1.5,18.2,2.9,27.3,4.4c6.8,1.1,13.8,1.5,18.4,7.5c3.8,4.9,7.6,9.7,11.4,14.6
			c-2.6-5.8-5.2-11.6-7.8-17.4c-2.7-6-9.5-8.3-15.6-10.9C43.9,39.9,29.9,33.9,15.7,28c2.9,6.4,5.7,12.7,8.6,19.1
			C24.3,47.3,24.4,47.5,24.5,47.7z"/>
	</g>
	<path fill="#319B42" d="M80.8,77.5C80.8,77.5,80.8,77.5,80.8,77.5c-4.2-5.3-8.4-10.7-12.6-16.1c-4-5.1-11.2-5.7-17.6-6.7
		C35.4,52.4,20.2,49.8,5,47.5c4.3,5.4,8.5,11,12.8,16.4c0.5,0.6,1.1,1.2,1.7,1.7c4.3,3.5,10.2,3.9,15.9,4.8c2.4,0.4,4.8,0.8,7.2,1.2
		C55.3,73.4,68,75.5,80.8,77.5C80.8,77.5,80.8,77.5,80.8,77.5C80.8,77.5,80.8,77.5,80.8,77.5C80.8,77.5,80.8,77.5,80.8,77.5
		C80.8,77.5,80.8,77.5,80.8,77.5z"/>
</g>
</svg>
