<?xml version="1.0" encoding="utf-8"?>
<!-- Generator: Adobe Illustrator 25.2.3, SVG Export Plug-In . SVG Version: 6.00 Build 0)  -->
<svg version="1.1" id="Layer_1" xmlns="http://www.w3.org/2000/svg" xmlns:xlink="http://www.w3.org/1999/xlink" x="0px" y="0px"
	 viewBox="0 0 88 88" enable-background="new 0 0 88 88" xml:space="preserve">
<g>
	<path fill="#1D1D1B" d="M5.8,30.4l1.4,3.4H4.5L5.8,30.4z M4.5,28.3L1,37.1h2.3L4,35.3h3.9L8.6,37H11l-3.9-8.8L4.5,28.3L4.5,28.3z"
		/>
	<polygon fill="#1D1D1B" points="19.5,28.3 21.4,28.3 21.4,37.1 19.2,37.1 19.2,31.6 16.9,34.3 16.5,34.3 14.2,31.6 14.2,37.1 
		12,37.1 12,28.3 13.9,28.3 16.7,31.5 	"/>
	<path fill="#1D1D1B" d="M27,28.3c3.2,0,4.8,2,4.8,4.4c0,2.5-1.6,4.4-5.1,4.4h-3.6v-8.8C23.1,28.3,27,28.3,27,28.3z M25.3,35.4h1.4
		c2.2,0,2.9-1.5,2.9-2.8c0-1.5-0.8-2.8-2.9-2.8h-1.4V35.4z"/>
	<polygon fill="#1D1D1B" points="40.7,30.4 36.2,30.4 33.4,27.6 43.4,27.6 43.4,37.6 40.7,34.9 	"/>
	<polygon fill="#1D1D1B" points="36.2,34.9 36.2,30.9 33.3,33.8 33.3,37.7 37.3,37.7 40.1,34.9 	"/>
	<rect x="1.4" y="42.2" fill="#13110C" width="18.1" height="3.6"/>
	<polygon fill="#13110C" points="1.4,49.5 1.4,60.4 19.6,60.4 19.6,56.8 5.1,56.8 5.1,53.1 19.6,53.1 19.6,49.5 	"/>
	<polygon fill="#13110C" points="55.8,49.4 50.6,42.2 46.2,42.2 54,53.1 54,60.4 57.6,60.4 57.6,53.1 65.5,42.2 61,42.2 	"/>
	<path fill="#13110C" d="M68.9,56.8c0,2,1.5,3.6,3.5,3.6H87v-3.6H72.7c-0.1,0-0.3-0.1-0.3-0.3V46.1c0-0.1,0.1-0.3,0.3-0.3H87v-3.6
		H72.5c-2,0-3.6,1.6-3.6,3.6V56.8L68.9,56.8z"/>
	<path fill="#13110C" d="M39.8,42.2H25.3v3.6h14.3c0.1,0,0.3,0.1,0.3,0.3v3.1c0,0.1-0.1,0.3-0.3,0.3H25.3v10.9h3.6v-7.3h10.9
		c2,0,3.6-1.6,3.6-3.6v-3.6C43.4,43.9,41.8,42.2,39.8,42.2"/>
</g>
</svg>
