<svg width="12" height="13" viewBox="0 0 12 13" fill="none" xmlns="http://www.w3.org/2000/svg">
<g clip-path="url(#clip0)">
<path d="M8.50003 8.00195H3.50003C3.36743 8.00195 3.24025 8.05463 3.14648 8.1484C3.05271 8.24217 3.00003 8.36934 3.00003 8.50195V9.00195C2.99924 9.06753 3.01217 9.13255 3.038 9.19282C3.06384 9.2531 3.102 9.30731 3.15004 9.35195L5.65003 11.852C5.69493 11.8998 5.74914 11.9379 5.80934 11.964C5.86954 11.99 5.93444 12.0035 6.00003 12.0035C6.06563 12.0035 6.13053 11.99 6.19073 11.964C6.25093 11.9379 6.30514 11.8998 6.35003 11.852L8.85004 9.35195C8.89807 9.30731 8.93623 9.2531 8.96207 9.19282C8.9879 9.13255 9.00083 9.06753 9.00003 9.00195V8.50195C9.00003 8.36934 8.94736 8.24217 8.85359 8.1484C8.75982 8.05463 8.63264 8.00195 8.50003 8.00195Z" fill="#CEC9DF"/>
<path d="M3.49997 4.00391L8.49997 4.00391C8.63257 4.00391 8.75975 3.95123 8.85352 3.85746C8.94729 3.76369 8.99997 3.63651 8.99997 3.50391L8.99996 3.00391C9.00076 2.93833 8.98783 2.87331 8.962 2.81304C8.93616 2.75276 8.898 2.69855 8.84996 2.65391L6.34996 0.153906C6.30507 0.106075 6.25086 0.0679536 6.19066 0.0418933C6.13046 0.0158329 6.06556 0.00238826 5.99996 0.00238826C5.93437 0.00238827 5.86947 0.0158329 5.80927 0.0418933C5.74907 0.0679536 5.69486 0.106075 5.64996 0.153906L3.14996 2.65391C3.10193 2.69855 3.06377 2.75276 3.03793 2.81304C3.0121 2.87331 2.99917 2.93833 2.99997 3.00391L2.99997 3.50391C2.99997 3.63652 3.05264 3.76369 3.14641 3.85746C3.24018 3.95123 3.36736 4.00391 3.49997 4.00391Z" fill="#CEC9DF"/>
</g>
<defs>
<clipPath id="clip0">
<rect width="12" height="12" fill="white" transform="translate(0 0.00195312)"/>
</clipPath>
</defs>
</svg>
