<svg width="12" height="13" viewBox="0 0 12 13" fill="none" xmlns="http://www.w3.org/2000/svg">
    <g clip-path="url(#clip0)">
        <path d="M8.85004 2.65152L6.35003 0.151519C6.30514 0.103688 6.25093 0.0655656 6.19073 0.0395054C6.13053 0.0134451 6.06563 0 6.00003 0C5.93444 0 5.86954 0.0134451 5.80934 0.0395054C5.74914 0.0655656 5.69493 0.103688 5.65003 0.151519L3.15004 2.65152C3.102 2.69616 3.06384 2.75037 3.038 2.81065C3.01217 2.87093 2.99924 2.93594 3.00003 3.00152V3.50152C3.00003 3.63413 3.05271 3.7613 3.14648 3.85507C3.24025 3.94884 3.36743 4.00152 3.50003 4.00152H8.50003C8.63264 4.00152 8.75982 3.94884 8.85359 3.85507C8.94736 3.7613 9.00003 3.63413 9.00003 3.50152V3.00152C9.00083 2.93594 8.9879 2.87093 8.96207 2.81065C8.93623 2.75037 8.89807 2.69616 8.85004 2.65152Z" fill="#B9BDC5"/>
        <path d="M3.14996 9.35043L5.64997 11.8504C5.69486 11.8983 5.74907 11.9364 5.80927 11.9624C5.86947 11.9885 5.93437 12.002 5.99997 12.002C6.06556 12.002 6.13046 11.9885 6.19066 11.9624C6.25086 11.9364 6.30507 11.8983 6.34997 11.8504L8.84996 9.35043C8.898 9.30579 8.93616 9.25158 8.962 9.19131C8.98783 9.13103 9.00076 9.06601 8.99996 9.00043L8.99996 8.50043C8.99996 8.36783 8.94729 8.24065 8.85352 8.14688C8.75975 8.05311 8.63257 8.00043 8.49996 8.00043L3.49996 8.00043C3.36736 8.00043 3.24018 8.05311 3.14641 8.14688C3.05264 8.24065 2.99996 8.36783 2.99996 8.50043L2.99996 9.00043C2.99917 9.06601 3.0121 9.13103 3.03793 9.19131C3.06377 9.25158 3.10193 9.30579 3.14996 9.35043Z" fill="#CC2628"/>
    </g>
    <defs>
        <clipPath id="clip0">
            <rect width="12" height="12" fill="white" transform="translate(0 0.00195312)"/>
        </clipPath>
    </defs>
</svg>
