<svg width="145" height="47" viewBox="0 0 145 47" fill="none" xmlns="http://www.w3.org/2000/svg">
<g clip-path="url(#clip0)">
<g clip-path="url(#clip1)">
<path d="M142.905 38.2313C142.224 38.2313 141.683 37.6993 141.683 37.0292C141.683 36.3789 142.224 35.8271 142.905 35.8271C143.566 35.8271 144.127 36.3592 144.127 37.0292C144.127 37.6796 143.566 38.2313 142.905 38.2313ZM142.905 36.0636C142.364 36.0636 141.923 36.4972 141.923 37.0292C141.923 37.5613 142.364 37.9949 142.905 37.9949C143.446 37.9949 143.887 37.5613 143.887 37.0292C143.887 36.4972 143.446 36.0636 142.905 36.0636ZM143.526 37.6599H143.245L143.005 37.2066H142.684V37.6599H142.424V36.3395H143.065C143.346 36.3395 143.526 36.5169 143.526 36.7731C143.526 36.9701 143.406 37.1081 143.245 37.1672L143.526 37.6599ZM143.045 36.9701C143.145 36.9701 143.245 36.911 143.245 36.7731C143.245 36.6154 143.165 36.576 143.045 36.576H142.644V36.9701H143.045Z" fill="#404041"/>
<path d="M15.5752 35.708H18.7008V44.0833H24.1306V46.7634H15.5752V35.708Z" fill="#404041"/>
<path d="M27.3555 41.2654V41.226C27.3555 38.0532 29.9602 35.4717 33.4264 35.4717C36.8927 35.4717 39.4573 38.0138 39.4573 41.1866V41.226C39.4573 44.3987 36.8526 46.9803 33.3864 46.9803C29.9201 46.9803 27.3555 44.4381 27.3555 41.2654ZM36.2916 41.2654V41.226C36.2916 39.6298 35.1295 38.2503 33.4064 38.2503C31.7033 38.2503 30.5613 39.61 30.5613 41.2063V41.2457C30.5613 42.8419 31.7234 44.2214 33.4264 44.2214C35.1495 44.2214 36.2916 42.8616 36.2916 41.2654Z" fill="#404041"/>
<path d="M43.2842 41.9156V35.708H46.4499V41.8564C46.4499 43.4527 47.2714 44.2015 48.5136 44.2015C49.7559 44.2015 50.5773 43.4724 50.5773 41.9353V35.708H53.7431V41.8367C53.7431 45.4036 51.6793 46.9604 48.4736 46.9604C45.2878 46.9604 43.2842 45.3839 43.2842 41.9156Z" fill="#404041"/>
<path d="M58.5117 35.708H62.8395C66.8468 35.708 69.191 37.9743 69.191 41.1667V41.2061C69.191 44.3986 66.8267 46.7634 62.7794 46.7634H58.5117V35.708ZM62.8996 44.0439C64.763 44.0439 66.0052 43.0388 66.0052 41.2455V41.2061C66.0052 39.4325 64.763 38.4078 62.8996 38.4078H61.6374V44.0241H62.8996V44.0439Z" fill="#404041"/>
<path d="M73.7197 35.708H82.716V38.3881H76.8253V40.2799H82.155V42.8221H76.8253V46.7634H73.7197V35.708Z" fill="#404041"/>
<path d="M87.0439 35.708H90.1496V44.0833H95.5994V46.7634H87.0439V35.708Z" fill="#404041"/>
<path d="M103.734 35.6299H106.74L111.529 46.7641H108.182L107.361 44.7934H103.033L102.232 46.7641H98.9658L103.734 35.6299ZM106.479 42.4089L105.237 39.2756L103.975 42.4089H106.479Z" fill="#404041"/>
<path d="M115.535 35.708H120.845C122.568 35.708 123.75 36.1416 124.511 36.9101C125.173 37.5407 125.513 38.3881 125.513 39.4917V39.5311C125.513 41.2258 124.592 42.3491 123.209 42.9206L125.894 46.7831H122.287L120.023 43.433H118.661V46.7831H115.535V35.708ZM120.704 41.0091C121.766 41.0091 122.367 40.4967 122.367 39.7084V39.669C122.367 38.8019 121.726 38.3684 120.684 38.3684H118.641V41.0091H120.704Z" fill="#404041"/>
<path d="M130.001 35.708H139.037V38.3093H133.087V39.9843H138.476V42.4082H133.087V44.1621H139.117V46.7634H130.001V35.708Z" fill="#404041"/>
<path d="M8.76254 42.5668C8.32175 43.5324 7.40008 44.2222 6.19791 44.2222C4.49484 44.2222 3.33274 42.823 3.33274 41.2465V41.2071C3.33274 39.6108 4.4748 38.2511 6.17788 38.2511C7.46019 38.2511 8.44197 39.0196 8.84269 40.0838H12.1286C11.6077 37.4431 9.24341 35.4922 6.19791 35.4922C2.73166 35.4922 0.126953 38.0737 0.126953 41.2465V41.2859C0.126953 44.4586 2.69158 47.0008 6.15784 47.0008C9.1232 47.0008 11.4474 45.109 12.0485 42.5865L8.76254 42.5668Z" fill="#404041"/>
<path d="M135.352 18.0702L126.756 13.2224L125.274 12.5918L90.1104 12.8283V30.3868H135.352V18.0702Z" fill="white"/>
<path d="M119.704 28.7715C120.124 27.3526 119.964 26.052 119.263 25.0864C118.622 24.1996 117.54 23.6872 116.237 23.6281L91.5728 23.3128C91.4125 23.3128 91.2723 23.234 91.1921 23.1157C91.112 22.9975 91.092 22.8398 91.132 22.6822C91.2122 22.4457 91.4526 22.2683 91.7131 22.2486L116.598 21.9333C119.543 21.7954 122.749 19.4503 123.871 16.5732L125.294 12.9275C125.354 12.7698 125.374 12.6122 125.334 12.4545C123.731 5.32076 117.259 0 109.525 0C102.392 0 96.3414 4.5325 94.1775 10.8189C92.775 9.79413 90.9918 9.24235 89.0683 9.41971C85.6421 9.75472 82.8972 12.4545 82.5565 15.8243C82.4764 16.6914 82.5365 17.5388 82.7369 18.327C77.1468 18.4847 72.6787 22.9778 72.6787 28.5153C72.6787 29.008 72.7188 29.5006 72.7789 29.9933C72.819 30.2298 73.0193 30.4071 73.2598 30.4071H118.782C119.042 30.4071 119.283 30.2298 119.363 29.9736L119.704 28.7715Z" fill="#F38020"/>
<path d="M127.558 13.1836C127.337 13.1836 127.097 13.1836 126.876 13.2033C126.716 13.2033 126.576 13.3215 126.516 13.4792L125.554 16.7702C125.133 18.189 125.293 19.4897 125.995 20.4553C126.636 21.3421 127.718 21.8545 129.02 21.9136L134.27 22.2289C134.43 22.2289 134.57 22.3077 134.65 22.4259C134.73 22.5442 134.751 22.7215 134.71 22.8595C134.63 23.096 134.39 23.2733 134.129 23.293L128.66 23.6083C125.694 23.7463 122.508 26.0914 121.386 28.9685L120.986 29.9735C120.906 30.1706 121.046 30.3677 121.266 30.3677H140.06C140.281 30.3677 140.481 30.2297 140.541 30.0129C140.862 28.87 141.042 27.6679 141.042 26.4264C141.042 19.135 134.991 13.1836 127.558 13.1836Z" fill="#FAAE40"/>
</g>
</g>
<defs>
<clipPath id="clip0">
<rect width="144" height="47" fill="white" transform="translate(0.126953)"/>
</clipPath>
<clipPath id="clip1">
<rect width="144" height="47" fill="white" transform="translate(0.126953)"/>
</clipPath>
</defs>
</svg>
