<svg width="246" height="51" viewBox="0 0 246 51" fill="none" xmlns="http://www.w3.org/2000/svg">
<g clip-path="url(#clip0)">
<path d="M73.5527 22.5203V22.456C73.5527 17.6304 77.3192 13.5776 82.4835 13.5776C85.1797 13.5776 87.03 14.4459 88.4917 15.7C88.7504 15.9242 89.1085 16.4075 89.1085 17.0525C89.1085 18.0504 88.295 18.8203 87.2887 18.8203C86.8018 18.8203 86.3807 18.6283 86.121 18.4344C85.1138 17.5992 84.0101 16.9882 82.451 16.9882C79.5925 16.9882 77.4815 19.4322 77.4815 22.3926V22.456C77.4815 25.4797 79.5925 27.8925 82.6133 27.8925C84.1724 27.8925 85.3735 27.2815 86.4457 26.3811C86.6729 26.1872 87.0624 25.9621 87.5159 25.9621C88.4573 25.9621 89.2058 26.7339 89.2058 27.6674C89.2058 28.1828 89.0101 28.5999 88.654 28.8903C87.1264 30.3383 85.277 31.304 82.4185 31.304C77.3192 31.3031 73.5527 27.3458 73.5527 22.5203Z" fill="white"/>
<path d="M91.4482 9.20286C91.4482 8.14071 92.2913 7.27246 93.395 7.27246C94.5006 7.27246 95.3771 8.14071 95.3771 9.20286V16.5367C96.4807 14.961 98.0714 13.5772 100.734 13.5772C104.598 13.5772 106.84 16.1508 106.84 20.0759V29.1462C106.84 30.2396 105.995 31.0766 104.891 31.0766C103.787 31.0766 102.911 30.2396 102.911 29.1462V21.2657C102.911 18.6279 101.579 17.1146 99.2409 17.1146C96.9677 17.1146 95.3771 18.6922 95.3771 21.33V29.1462C95.3771 30.2396 94.5006 31.0766 93.395 31.0766C92.3247 31.0766 91.4482 30.2396 91.4482 29.1462V9.20286Z" fill="white"/>
<path d="M117.85 31.3026C112.882 31.3026 109.05 27.7322 109.05 22.4896V22.4252C109.05 17.5666 112.524 13.5781 117.428 13.5781C122.882 13.5781 125.577 18.0168 125.577 21.9429C125.577 23.0362 124.733 23.8099 123.727 23.8099H112.979C113.402 26.5755 115.383 28.12 117.915 28.12C119.57 28.12 120.871 27.5421 121.974 26.6407C122.267 26.4166 122.526 26.2879 122.981 26.2879C123.858 26.2879 124.541 26.9632 124.541 27.8636C124.541 28.347 124.313 28.7631 124.02 29.0544C122.461 30.4344 120.513 31.3026 117.85 31.3026ZM121.747 21.2326C121.488 18.7243 119.994 16.7617 117.394 16.7617C114.992 16.7617 113.303 18.5947 112.947 21.2326H121.747Z" fill="white"/>
<path d="M128.017 15.7C128.017 14.6067 128.86 13.7384 129.963 13.7384C131.068 13.7384 131.945 14.6067 131.945 15.7V16.5059C133.048 14.9926 134.543 13.5776 137.173 13.5776C139.642 13.5776 141.396 14.7675 142.304 16.5683C143.669 14.7675 145.486 13.5776 148.084 13.5776C151.819 13.5776 154.093 15.9242 154.093 20.0763V29.1466C154.093 30.24 153.247 31.077 152.144 31.077C151.04 31.077 150.164 30.24 150.164 29.1466V21.2661C150.164 18.564 148.898 17.115 146.69 17.115C144.545 17.115 143.019 18.5952 143.019 21.3304V29.1466C143.019 30.24 142.142 31.077 141.07 31.077C139.967 31.077 139.091 30.24 139.091 29.1466V21.233C139.091 18.5971 137.791 17.115 135.614 17.115C133.441 17.115 131.944 18.7228 131.944 21.3304V29.1466C131.944 30.24 131.068 31.077 129.963 31.077C128.893 31.077 128.017 30.24 128.017 29.1466V15.7Z" fill="white"/>
<path d="M157.213 9.36354C157.213 8.20493 158.188 7.46436 159.456 7.46436C160.721 7.46436 161.695 8.20493 161.695 9.36354V9.55554C161.695 10.7142 160.721 11.4859 159.456 11.4859C158.188 11.4859 157.213 10.7142 157.213 9.55554V9.36354ZM157.507 15.6995C157.507 14.6062 158.352 13.7379 159.456 13.7379C160.558 13.7379 161.435 14.6062 161.435 15.6995V29.1461C161.435 30.2395 160.558 31.0765 159.456 31.0765C158.383 31.0765 157.507 30.2395 157.507 29.1461V15.6995Z" fill="white"/>
<path d="M163.871 22.3912V22.3288C163.871 17.4058 167.67 13.353 172.998 13.353C175.627 13.353 177.478 14.0605 178.939 15.2834C179.266 15.5397 179.718 16.1205 179.718 16.9566C179.718 18.1795 178.711 19.1442 177.478 19.1442C176.826 19.1442 176.341 18.887 176.05 18.66C175.172 17.9856 174.264 17.5666 172.964 17.5666C170.497 17.5666 168.742 19.7221 168.742 22.2645V22.3288C168.742 24.9666 170.464 27.089 173.16 27.089C174.457 27.089 175.465 26.6369 176.406 25.8992C176.665 25.7053 177.153 25.4471 177.738 25.4471C178.907 25.4471 179.817 26.3797 179.817 27.5383C179.817 28.1814 179.524 28.6979 179.101 29.0828C177.641 30.4031 175.789 31.3026 172.933 31.3026C167.701 31.3026 163.871 27.3141 163.871 22.3912Z" fill="white"/>
<path d="M181.896 9.68512C181.896 8.33261 183 7.23926 184.364 7.23926C185.728 7.23926 186.832 8.33261 186.832 9.68512V28.6638C186.832 30.0163 185.728 31.1096 184.364 31.1096C183 31.1096 181.896 30.0163 181.896 28.6638V9.68512Z" fill="white"/>
<path d="M189.04 22.3912V22.3288C189.04 17.3746 193.066 13.353 198.488 13.353C203.879 13.353 207.873 17.3112 207.873 22.2645V22.3288C207.873 27.281 203.845 31.3026 198.424 31.3026C193.036 31.3026 189.04 27.3453 189.04 22.3912ZM203.003 22.3912V22.3288C203.003 19.7864 201.153 17.5666 198.423 17.5666C195.598 17.5666 193.909 19.7221 193.909 22.2645V22.3288C193.909 24.8692 195.76 27.089 198.487 27.089C201.313 27.089 203.003 24.9326 203.003 22.3912Z" fill="white"/>
<path d="M225.671 28.665C225.671 30.0175 224.567 31.1109 223.204 31.1109C221.838 31.1109 220.734 30.0175 220.734 28.665V28.473C219.6 29.9192 218.136 31.2386 215.636 31.2386C211.901 31.2386 209.728 28.7946 209.728 24.8373V15.9259C209.728 14.5753 210.831 13.4819 212.195 13.4819C213.561 13.4819 214.664 14.5753 214.664 15.9259V23.2928C214.664 25.6091 215.767 26.7989 217.651 26.7989C219.536 26.7989 220.734 25.6091 220.734 23.2928V15.9259C220.734 14.5753 221.838 13.4819 223.204 13.4819C224.567 13.4819 225.671 14.5753 225.671 15.9259V28.665Z" fill="white"/>
<path d="M246 28.6647C246 30.0172 244.897 31.1106 243.533 31.1106C242.167 31.1106 241.063 30.0172 241.063 28.6647V28.4386C239.862 30.0475 238.208 31.2373 235.64 31.2373C231.581 31.2373 227.717 28.0859 227.717 22.3278V22.2635C227.717 16.5054 231.516 13.352 235.64 13.352C238.272 13.352 239.894 14.5419 241.063 15.9256V9.68512C241.063 8.33261 242.167 7.23926 243.533 7.23926C244.897 7.23926 246 8.33261 246 9.68512V28.6647ZM232.656 22.2635V22.3278C232.656 25.1888 234.604 27.088 236.909 27.088C239.215 27.088 241.131 25.1888 241.131 22.3278V22.2635C241.131 19.4014 239.215 17.5013 236.909 17.5013C234.604 17.5013 232.656 19.3664 232.656 22.2635Z" fill="white"/>
<path d="M17.5492 11.3771C16.6222 11.2334 15.6283 11.1558 14.5466 11.1558C6.13999 11.1558 0.127936 17.4899 0.0057285 25.2352H0C0 25.255 0.0019095 25.2739 0.003819 25.2938C0.0019095 25.3137 0 25.3326 0 25.3534H0.0057285C0.128891 33.0977 6.14095 39.4318 14.5466 39.4318C15.6283 39.4318 16.6222 39.3542 17.5492 39.2086C18.8487 45.6703 24.391 50.5876 31.796 50.5876C35.9921 50.5876 38.9414 49.4592 41.2729 47.508C41.7913 47.0985 42.5169 46.1763 42.5169 44.8409C42.5169 42.8915 40.911 41.3527 38.9423 41.3527C37.9055 41.3527 37.1302 41.7613 36.6652 42.1207C35.2646 43.198 33.8163 43.8648 31.7445 43.8648C27.8319 43.8648 25.0479 40.4693 25.0144 36.4496C25.0479 32.4299 27.8319 29.0345 31.7445 29.0345C33.1728 29.0345 34.3032 29.3579 35.3286 29.9084C37.2343 35.43 42.387 39.4308 49.0646 39.4308C53.2588 39.4308 56.2099 38.3025 58.5414 36.3513C59.0617 35.9417 59.7854 35.0196 59.7854 33.6841C59.7854 31.7348 58.1776 30.1959 56.2109 30.1959C55.174 30.1959 54.3988 30.6055 53.9338 30.9639C52.5332 32.0431 51.0848 32.7099 49.013 32.7099C45.1004 32.7099 42.3164 29.3144 42.283 25.2947C42.3164 21.2751 45.1004 17.8777 49.013 17.8777C51.0848 17.8777 52.5341 18.5445 53.9338 19.6237C54.3978 19.9821 55.174 20.3926 56.2109 20.3926C58.1786 20.3926 59.7854 18.8538 59.7854 16.9045C59.7854 15.569 59.0617 14.6459 58.5414 14.2363C56.2109 12.2861 53.2588 11.1577 49.0646 11.1577C42.387 11.1577 37.2343 15.1585 35.3286 20.6801C34.3032 21.2306 33.1728 21.5541 31.7445 21.5541C27.8319 21.5541 25.0479 18.1586 25.0144 14.1389C25.0479 10.1192 27.8319 6.72282 31.7445 6.72282C33.8163 6.72282 35.2656 7.38867 36.6652 8.46784C37.1292 8.82725 37.9055 9.23678 38.9423 9.23678C40.912 9.23678 42.5169 7.69795 42.5169 5.74863C42.5169 4.4141 41.7913 3.49099 41.2729 3.0805C38.9414 1.12835 35.9912 0 31.796 0C24.391 0 18.8506 4.91632 17.5492 11.3771ZM22.7593 25.2929C20.5854 26.9632 18.9556 29.2312 18.0562 31.8473C17.0385 32.3902 15.9138 32.708 14.495 32.708C10.5824 32.708 7.8003 29.3125 7.76498 25.2929C7.8003 21.2732 10.5824 17.8758 14.495 17.8758C15.9138 17.8758 17.0385 18.1955 18.0562 18.7365C18.9556 21.3526 20.5834 23.6235 22.7593 25.2929Z" fill="white"/>
<path opacity="0.64" d="M79.7545 44.0397C80.2202 44.0397 80.5451 43.719 80.5451 43.2593V40.6187C80.5451 39.9131 80.3394 39.3571 79.9386 38.9616C79.5379 38.5553 79.0397 38.3522 78.444 38.3522C77.6859 38.3522 77.101 38.6409 76.7003 39.2288V37.219C76.7003 36.7806 76.3646 36.4492 75.9205 36.4492C75.4548 36.4492 75.1299 36.7593 75.1299 37.219V43.2593C75.1299 43.719 75.4548 44.0397 75.9205 44.0397C76.3862 44.0397 76.7003 43.719 76.7003 43.2593V41.0997C76.7111 40.2338 77.1985 39.7848 77.8808 39.7848C78.5307 39.7848 78.9747 40.2338 78.9747 41.1211V43.2593C78.9747 43.719 79.2888 44.0397 79.7545 44.0397ZM84.5091 44.0932C85.3755 44.0932 86.1012 43.8152 86.686 43.2593C87.2709 42.6927 87.5633 42.0085 87.5633 41.196C87.5633 40.3835 87.2817 39.7099 86.7077 39.1647C86.1445 38.6195 85.4297 38.3522 84.5633 38.3522C83.6968 38.3522 82.9712 38.6302 82.3863 39.1968C81.8015 39.7527 81.5091 40.4369 81.5091 41.2494C81.5091 42.0619 81.7906 42.7354 82.3538 43.2807C82.9279 43.8259 83.6427 44.0932 84.5091 44.0932ZM84.5416 42.6713C84.1192 42.6713 83.7726 42.5323 83.491 42.2544C83.2203 41.9764 83.0795 41.6343 83.0795 41.228C83.0795 40.8218 83.2203 40.4797 83.491 40.2017C83.7726 39.9238 84.1192 39.7848 84.5416 39.7848C84.9532 39.7848 85.2997 39.9238 85.5705 40.2017C85.8521 40.4797 85.9929 40.8218 85.9929 41.228C85.9929 41.6343 85.8521 41.9764 85.5705 42.2544C85.2997 42.5323 84.9532 42.6713 84.5416 42.6713ZM90.4009 44.0932C91.798 44.0932 92.6428 43.3769 92.6428 42.3506C92.6428 41.5701 92.0472 40.9715 90.9316 40.64C90.1193 40.3942 89.9135 40.191 89.9135 39.9238C89.9135 39.6992 90.141 39.5068 90.5634 39.5068C90.8775 39.5068 91.1915 39.603 91.5056 39.7955C91.6789 39.8917 91.8197 39.9344 91.928 39.9344C92.2638 39.9344 92.502 39.6992 92.502 39.3464C92.502 39.1219 92.3721 38.9402 92.123 38.7905C91.6573 38.5019 91.1266 38.3522 90.5092 38.3522C89.8377 38.3522 89.307 38.5126 88.928 38.8333C88.5489 39.154 88.3539 39.5389 88.3539 39.9986C88.3539 40.779 88.8738 41.3243 89.9027 41.6557C90.8558 41.955 91.0832 42.1688 91.0832 42.4682C91.0832 42.7355 90.8341 42.9386 90.3901 42.9386C89.946 42.9386 89.5236 42.7996 89.1229 42.5216C89.0038 42.4468 88.8738 42.4147 88.7438 42.4147C88.3864 42.4147 88.159 42.6499 88.159 42.992C88.159 43.1952 88.2673 43.3769 88.4947 43.548C88.9605 43.9114 89.5995 44.0932 90.4009 44.0932ZM96.0978 44.0932C96.4443 44.0932 96.7693 44.0504 97.0725 43.9649C97.4299 43.8366 97.614 43.6014 97.614 43.27C97.614 42.8744 97.3541 42.6285 96.9317 42.6285C96.8992 42.6285 96.6718 42.6713 96.4985 42.6713C96.0544 42.6713 95.8378 42.4254 95.8378 41.9443V39.7206H96.9967C97.3758 39.7206 97.6249 39.464 97.6249 39.0899C97.6249 38.7157 97.3758 38.4591 96.9967 38.4591H95.8378V37.8604C95.8378 37.4007 95.5237 37.0907 95.058 37.0907C94.5923 37.0907 94.2674 37.4007 94.2674 37.8604V38.4591H93.8234C93.4335 38.4591 93.1844 38.7157 93.1844 39.0899C93.1844 39.464 93.4335 39.7206 93.8234 39.7206H94.2674V42.3399C94.2674 43.4517 94.9714 44.0932 96.0978 44.0932ZM99.4011 37.839C99.9534 37.839 100.343 37.4649 100.343 36.941C100.343 36.4278 99.9534 36.043 99.4011 36.043C98.8379 36.043 98.448 36.4278 98.448 36.941C98.448 37.4649 98.8379 37.839 99.4011 37.839ZM99.4011 44.0397C99.8668 44.0397 100.192 43.7083 100.192 43.2486V39.1968C100.192 38.7371 99.8668 38.4057 99.4011 38.4057C98.9245 38.4057 98.5996 38.7371 98.5996 39.1968V43.2486C98.5996 43.7083 98.9245 44.0397 99.4011 44.0397ZM106.17 44.0397C106.636 44.0397 106.961 43.719 106.961 43.2593V40.6187C106.961 39.9131 106.766 39.3571 106.365 38.9616C105.975 38.5553 105.477 38.3522 104.86 38.3522C104.091 38.3522 103.398 38.6836 103.008 39.3251V39.1326C103.008 38.7157 102.704 38.4057 102.282 38.4057C101.849 38.4057 101.546 38.7157 101.546 39.1326V43.2593C101.546 43.719 101.87 44.0397 102.336 44.0397C102.802 44.0397 103.116 43.719 103.116 43.2593V41.1746C103.116 40.2445 103.603 39.7848 104.296 39.7848C104.946 39.7848 105.39 40.2338 105.39 41.1211V43.2593C105.39 43.719 105.704 44.0397 106.17 44.0397ZM110.751 45.8037C111.759 45.8037 112.538 45.5151 113.091 44.9378C113.643 44.3605 113.925 43.58 113.925 42.6072V39.1326C113.925 38.705 113.622 38.4057 113.199 38.4057C112.798 38.4057 112.506 38.6836 112.474 39.0792C112.019 38.5981 111.434 38.3522 110.719 38.3522C109.907 38.3522 109.235 38.5981 108.704 39.1006C108.185 39.603 107.925 40.2231 107.925 40.9608C107.925 41.6664 108.185 42.2651 108.715 42.7675C109.246 43.2593 109.896 43.5052 110.665 43.5052C111.38 43.5052 111.943 43.2807 112.344 42.8317V42.9493C112.344 43.9435 111.705 44.4994 110.621 44.4994C110.091 44.4994 109.56 44.3605 109.019 44.0825C108.845 44.0077 108.704 43.9649 108.596 43.9649C108.217 43.9649 107.968 44.2215 107.968 44.5957C107.968 44.8415 108.098 45.0447 108.358 45.1943C108.997 45.6006 109.798 45.8037 110.751 45.8037ZM110.946 42.2757C110.535 42.2757 110.188 42.1475 109.907 41.9016C109.636 41.645 109.495 41.3349 109.495 40.9715C109.495 40.608 109.636 40.2979 109.907 40.052C110.188 39.7955 110.535 39.6672 110.946 39.6672C111.358 39.6672 111.705 39.7955 111.975 40.052C112.257 40.2979 112.398 40.608 112.398 40.9715C112.398 41.3349 112.257 41.645 111.975 41.9016C111.705 42.1475 111.358 42.2757 110.946 42.2757ZM120.651 44.0932C120.997 44.0932 121.322 44.0504 121.625 43.9649C121.983 43.8366 122.167 43.6014 122.167 43.27C122.167 42.8744 121.907 42.6285 121.484 42.6285C121.452 42.6285 121.225 42.6713 121.051 42.6713C120.607 42.6713 120.391 42.4254 120.391 41.9443V39.7206H121.549C121.929 39.7206 122.178 39.464 122.178 39.0899C122.178 38.7157 121.929 38.4591 121.549 38.4591H120.391V37.8604C120.391 37.4007 120.077 37.0907 119.611 37.0907C119.145 37.0907 118.82 37.4007 118.82 37.8604V38.4591H118.376C117.986 38.4591 117.737 38.7157 117.737 39.0899C117.737 39.464 117.986 39.7206 118.376 39.7206H118.82V42.3399C118.82 43.4517 119.524 44.0932 120.651 44.0932ZM127.723 44.0397C128.189 44.0397 128.514 43.719 128.514 43.2593V40.6187C128.514 39.9131 128.308 39.3571 127.907 38.9616C127.506 38.5553 127.008 38.3522 126.412 38.3522C125.654 38.3522 125.069 38.6409 124.669 39.2288V37.219C124.669 36.7806 124.333 36.4492 123.889 36.4492C123.423 36.4492 123.098 36.7593 123.098 37.219V43.2593C123.098 43.719 123.423 44.0397 123.889 44.0397C124.355 44.0397 124.669 43.719 124.669 43.2593V41.0997C124.679 40.2338 125.167 39.7848 125.849 39.7848C126.499 39.7848 126.943 40.2338 126.943 41.1211V43.2593C126.943 43.719 127.257 44.0397 127.723 44.0397ZM131.654 44.0932C132.348 44.0932 132.9 43.9114 133.322 43.548C133.409 43.8794 133.636 44.0397 133.994 44.0397C134.416 44.0397 134.709 43.7511 134.709 43.3341V40.8539C134.709 39.2823 133.745 38.3522 132.174 38.3522C131.394 38.3522 130.755 38.5126 130.268 38.8333C130.019 38.9723 129.9 39.1647 129.9 39.4106C129.9 39.7527 130.149 39.9986 130.506 39.9986C130.636 39.9986 130.755 39.9665 130.875 39.9131C131.189 39.742 131.524 39.6565 131.86 39.6565C132.607 39.6565 133.127 40.0841 133.127 40.8432V41.0784C132.748 40.8111 132.272 40.6828 131.698 40.6828C131.037 40.6828 130.506 40.8432 130.106 41.1746C129.705 41.506 129.499 41.9123 129.499 42.4147C129.499 43.3983 130.344 44.0932 131.654 44.0932ZM132.109 43.1096C131.503 43.1096 131.08 42.7782 131.08 42.3506C131.08 41.9229 131.503 41.5915 132.109 41.5915C132.759 41.5915 133.181 41.9229 133.181 42.3506C133.181 42.7782 132.759 43.1096 132.109 43.1096ZM138.358 44.0932C138.705 44.0932 139.03 44.0504 139.333 43.9649C139.691 43.8366 139.875 43.6014 139.875 43.27C139.875 42.8744 139.615 42.6285 139.192 42.6285C139.16 42.6285 138.932 42.6713 138.759 42.6713C138.315 42.6713 138.099 42.4254 138.099 41.9443V39.7206H139.257C139.636 39.7206 139.886 39.464 139.886 39.0899C139.886 38.7157 139.636 38.4591 139.257 38.4591H138.099V37.8604C138.099 37.4007 137.784 37.0907 137.319 37.0907C136.853 37.0907 136.528 37.4007 136.528 37.8604V38.4591H136.084C135.694 38.4591 135.445 38.7157 135.445 39.0899C135.445 39.464 135.694 39.7206 136.084 39.7206H136.528V42.3399C136.528 43.4517 137.232 44.0932 138.358 44.0932ZM145.615 44.0932C147.012 44.0932 147.857 43.3769 147.857 42.3506C147.857 41.5701 147.261 40.9715 146.146 40.64C145.333 40.3942 145.128 40.191 145.128 39.9238C145.128 39.6992 145.355 39.5068 145.777 39.5068C146.091 39.5068 146.406 39.603 146.72 39.7955C146.893 39.8917 147.034 39.9344 147.142 39.9344C147.478 39.9344 147.716 39.6992 147.716 39.3464C147.716 39.1219 147.586 38.9402 147.337 38.7905C146.871 38.5019 146.341 38.3522 145.723 38.3522C145.052 38.3522 144.521 38.5126 144.142 38.8333C143.763 39.154 143.568 39.5389 143.568 39.9986C143.568 40.779 144.088 41.3243 145.117 41.6557C146.07 41.955 146.297 42.1688 146.297 42.4682C146.297 42.7355 146.048 42.9386 145.604 42.9386C145.16 42.9386 144.738 42.7996 144.337 42.5216C144.218 42.4468 144.088 42.4147 143.958 42.4147C143.6 42.4147 143.373 42.6499 143.373 42.992C143.373 43.1952 143.481 43.3769 143.709 43.548C144.174 43.9114 144.813 44.0932 145.615 44.0932ZM149.741 37.839C150.294 37.839 150.684 37.4649 150.684 36.941C150.684 36.4278 150.294 36.043 149.741 36.043C149.178 36.043 148.788 36.4278 148.788 36.941C148.788 37.4649 149.178 37.839 149.741 37.839ZM149.741 44.0397C150.207 44.0397 150.532 43.7083 150.532 43.2486V39.1968C150.532 38.7371 150.207 38.4057 149.741 38.4057C149.265 38.4057 148.94 38.7371 148.94 39.1968V43.2486C148.94 43.7083 149.265 44.0397 149.741 44.0397ZM160.139 44.0397C160.604 44.0397 160.929 43.719 160.929 43.2593V40.608C160.929 39.9131 160.734 39.3571 160.344 38.9616C159.965 38.5553 159.467 38.3522 158.871 38.3522C158.038 38.3522 157.323 38.7798 156.976 39.5175C156.64 38.7584 155.969 38.3522 155.146 38.3522C154.398 38.3522 153.727 38.705 153.348 39.3144V39.1326C153.348 38.7157 153.045 38.4057 152.622 38.4057C152.189 38.4057 151.886 38.7157 151.886 39.1326V43.2593C151.886 43.719 152.211 44.0397 152.676 44.0397C153.142 44.0397 153.456 43.719 153.456 43.2593V41.057C153.489 40.2017 153.944 39.7848 154.583 39.7848C155.2 39.7848 155.622 40.2231 155.622 41.1104V43.2593C155.622 43.719 155.936 44.0397 156.402 44.0397C156.868 44.0397 157.193 43.719 157.193 43.2593V41.057C157.204 40.2017 157.68 39.7848 158.319 39.7848C158.936 39.7848 159.348 40.2231 159.348 41.1104V43.2593C159.348 43.719 159.673 44.0397 160.139 44.0397ZM162.955 45.7503C163.399 45.7503 163.734 45.4189 163.734 44.9805V43.3662C164.168 43.8473 164.731 44.0932 165.413 44.0932C166.16 44.0932 166.81 43.8152 167.352 43.2486C167.893 42.682 168.164 41.9978 168.164 41.196C168.164 40.3942 167.904 39.7206 167.373 39.1754C166.843 38.6302 166.215 38.3522 165.467 38.3522C164.698 38.3522 164.081 38.6515 163.615 39.2609V39.1326C163.615 38.705 163.312 38.4057 162.89 38.4057C162.456 38.4057 162.164 38.705 162.164 39.1326V44.9805C162.164 45.4402 162.489 45.7503 162.955 45.7503ZM165.131 42.6713C164.72 42.6713 164.373 42.5323 164.092 42.2544C163.821 41.9764 163.68 41.6343 163.68 41.228C163.68 40.8218 163.821 40.4797 164.092 40.2017C164.373 39.9238 164.72 39.7848 165.131 39.7848C165.543 39.7848 165.89 39.9238 166.16 40.2017C166.442 40.4797 166.583 40.8218 166.583 41.228C166.583 41.6343 166.442 41.9764 166.16 42.2544C165.89 42.5323 165.543 42.6713 165.131 42.6713ZM170.049 44.0397C170.514 44.0397 170.839 43.7083 170.839 43.2486V37.2297C170.839 36.7699 170.514 36.4492 170.049 36.4492C169.572 36.4492 169.247 36.7699 169.247 37.2297V43.2486C169.247 43.7083 169.572 44.0397 170.049 44.0397ZM172.854 45.8037C173.926 45.8037 174.597 45.2371 175.117 44.0397L177.045 39.5389C177.11 39.3999 177.143 39.2609 177.143 39.1433C177.143 38.7264 176.818 38.4057 176.374 38.4057C176.016 38.4057 175.756 38.5981 175.615 38.9936L174.435 42.1581L173.265 39.0471C173.103 38.6195 172.854 38.4057 172.496 38.4057C172.009 38.4057 171.673 38.7264 171.673 39.1968C171.673 39.2823 171.706 39.4213 171.781 39.6244L173.601 43.9008C173.449 44.2429 173.189 44.4139 172.821 44.4139C172.659 44.4139 172.355 44.3391 172.225 44.3391C171.836 44.3391 171.565 44.6063 171.565 44.9912C171.565 45.2906 171.727 45.5044 172.041 45.6327C172.301 45.7503 172.572 45.8037 172.854 45.8037ZM186.208 44.0397C186.673 44.0397 186.987 43.8045 187.15 43.3448L188.493 39.4854C188.536 39.3678 188.558 39.2502 188.558 39.154C188.558 38.7157 188.244 38.4057 187.8 38.4057C187.453 38.4057 187.172 38.6302 187.052 38.9723L186.132 41.8481L185.255 38.983C185.157 38.6302 184.876 38.4057 184.518 38.4057C184.139 38.4057 183.89 38.5981 183.771 38.983L182.883 41.8909L181.962 38.9723C181.865 38.6195 181.572 38.4057 181.193 38.4057C180.727 38.4057 180.403 38.7264 180.403 39.1861C180.403 39.2823 180.424 39.3892 180.457 39.4961L181.789 43.3448C181.951 43.8045 182.265 44.0397 182.731 44.0397C183.197 44.0397 183.543 43.7832 183.673 43.3448L184.464 40.8218L185.265 43.3341C185.406 43.8045 185.72 44.0397 186.208 44.0397ZM192.056 44.0932C192.923 44.0932 193.648 43.8152 194.233 43.2593C194.818 42.6927 195.11 42.0085 195.11 41.196C195.11 40.3835 194.829 39.7099 194.255 39.1647C193.692 38.6195 192.977 38.3522 192.11 38.3522C191.244 38.3522 190.518 38.6302 189.933 39.1968C189.349 39.7527 189.056 40.4369 189.056 41.2494C189.056 42.0619 189.338 42.7354 189.901 43.2807C190.475 43.8259 191.19 44.0932 192.056 44.0932ZM192.089 42.6713C191.666 42.6713 191.32 42.5323 191.038 42.2544C190.767 41.9764 190.627 41.6343 190.627 41.228C190.627 40.8218 190.767 40.4797 191.038 40.2017C191.32 39.9238 191.666 39.7848 192.089 39.7848C192.5 39.7848 192.847 39.9238 193.118 40.2017C193.399 40.4797 193.54 40.8218 193.54 41.228C193.54 41.6343 193.399 41.9764 193.118 42.2544C192.847 42.5323 192.5 42.6713 192.089 42.6713ZM196.93 44.0397C197.396 44.0397 197.71 43.719 197.71 43.2593V41.5488C197.71 40.4904 198.251 39.9451 199.118 39.9451C199.594 39.9451 199.93 39.6244 199.93 39.1433C199.93 38.6836 199.594 38.3522 199.118 38.3522C198.414 38.3522 197.894 38.7478 197.547 39.5389L197.536 39.0899C197.536 38.6943 197.255 38.4057 196.832 38.4057C196.432 38.4057 196.139 38.6943 196.139 39.0899V43.2593C196.139 43.719 196.464 44.0397 196.93 44.0397ZM205.02 44.0397C205.454 44.0397 205.746 43.7404 205.746 43.3234C205.746 43.131 205.681 42.96 205.551 42.8103L203.829 41.0142L205.432 39.603C205.573 39.464 205.648 39.2823 205.648 39.0792C205.648 38.6836 205.378 38.4057 204.977 38.4057C204.76 38.4057 204.576 38.4912 204.414 38.6622L202.194 40.8752V37.219C202.194 36.7806 201.858 36.4492 201.414 36.4492C200.948 36.4492 200.623 36.7593 200.623 37.219V43.2593C200.623 43.719 200.948 44.0397 201.414 44.0397C201.879 44.0397 202.194 43.719 202.194 43.2593V41.2387L204.381 43.7083C204.555 43.9328 204.771 44.0397 205.02 44.0397ZM208.367 44.0932C209.764 44.0932 210.609 43.3769 210.609 42.3506C210.609 41.5701 210.013 40.9715 208.898 40.64C208.085 40.3942 207.88 40.191 207.88 39.9238C207.88 39.6992 208.107 39.5068 208.529 39.5068C208.843 39.5068 209.158 39.603 209.472 39.7955C209.645 39.8917 209.786 39.9344 209.894 39.9344C210.23 39.9344 210.468 39.6992 210.468 39.3464C210.468 39.1219 210.338 38.9402 210.089 38.7905C209.623 38.5019 209.093 38.3522 208.475 38.3522C207.804 38.3522 207.273 38.5126 206.894 38.8333C206.515 39.154 206.32 39.5389 206.32 39.9986C206.32 40.779 206.84 41.3243 207.869 41.6557C208.822 41.955 209.049 42.1688 209.049 42.4682C209.049 42.7355 208.8 42.9386 208.356 42.9386C207.912 42.9386 207.49 42.7996 207.089 42.5216C206.97 42.4468 206.84 42.4147 206.71 42.4147C206.352 42.4147 206.125 42.6499 206.125 42.992C206.125 43.1952 206.233 43.3769 206.461 43.548C206.926 43.9114 207.565 44.0932 208.367 44.0932Z" fill="white"/>
</g>
<defs>
<clipPath id="clip0">
<rect width="246" height="50.5876" fill="white"/>
</clipPath>
</defs>
</svg>
