<svg width="155" height="36" viewBox="0 0 155 36" fill="none" xmlns="http://www.w3.org/2000/svg">
<g clip-path="url(#clip0)">
<path d="M44.6228 13.9177H44.7285C45.4992 12.6855 47.3047 10.4252 51.07 10.4252C56.9518 10.4252 59.5319 15.4082 59.5319 23.2112C59.5319 30.0445 57.158 36 49.1644 36C42.714 36 38.8975 32.3517 38.8975 25.0622V0H44.6228V13.9177ZM49.1644 31.9955C52.8268 31.9955 53.4464 27.2146 53.4464 23.2112C53.4464 18.7983 52.9817 14.07 49.1644 14.07C45.7085 14.07 44.6228 19.1048 44.6228 23.2112C44.6228 29.3205 45.5541 31.9955 49.1644 31.9955Z" fill="#0075B2"/>
<path d="M62.8828 0H68.6078V35.4364H62.8828V0Z" fill="#0075B2"/>
<path d="M91.1503 35.0198C89.0829 35.6913 86.9192 35.9998 84.284 35.9998C76.3442 35.9998 71.9082 30.9162 71.9082 21.9306C71.9082 15.0991 75.0026 10.4248 82.4318 10.4248C88.6701 10.4248 91.7679 14.3788 91.7679 20.3333V21.7232H77.2185C77.2185 25.1098 79.5428 31.9953 86.4543 31.9953C88.2609 31.9953 90.1133 31.4271 91.1505 31.0701V35.0198H91.1503ZM86.3534 18.2815C86.3534 16.7423 85.5797 14.0698 82.0146 14.0698C78.6682 14.0698 77.5294 16.8437 77.3719 18.2815H86.3534Z" fill="#0075B2"/>
<path d="M107.4 16.1761C106.779 15.8672 104.455 14.5328 101.928 14.5328C100.178 14.5328 98.1088 15.3553 98.1088 16.7927C98.1088 20.0261 108.895 21.6705 108.895 28.6567C108.895 33.6866 105.02 35.9998 99.6037 35.9998C96.2548 35.9998 94.2417 35.3847 93.1088 35.0198V30.0909C94.7612 30.8091 97.0269 31.5825 99.3475 31.5825C100.742 31.5825 103.578 31.3248 103.578 29.3738C103.578 26.4972 93.0029 24.082 93.0029 17.6139C93.0029 13.0431 96.5111 10.4248 101.827 10.4248C104.247 10.4248 106.21 11.0409 107.399 11.3496V16.1761H107.4Z" fill="#0075B2"/>
<path d="M125.707 35.5885C124.157 35.8444 122.561 36 121.011 36C114.512 36 113.479 32.916 113.479 29.2729V14.9444H108.683V10.9924H113.479V5.18629L119.207 1.74707V10.9924H126.483V14.9444H119.207V26.4973C119.207 29.4285 119.569 31.9952 123.072 31.9952C124.003 31.9952 124.878 31.789 125.707 31.5827V35.5885H125.707Z" fill="#0075B2"/>
<path d="M140.201 32.6064H140.095C139.321 34.2035 137.625 35.9998 133.703 35.9998C129.573 35.9998 126.482 33.5309 126.482 29.5823C126.482 21.4663 136.794 21.4118 140.201 21.3126V18.8982C140.201 16.4836 139.584 14.4314 136.741 14.4314C133.596 14.4314 132.979 16.5369 132.979 18.1813H127.406C127.406 13.5068 130.502 10.4248 136.741 10.4248C142.831 10.4248 145.666 13.0431 145.666 18.0253V35.4361H140.201V32.6064H140.201ZM135.091 31.9953C138.811 31.9953 140.201 27.9862 140.201 24.6525C136.483 24.6525 132.052 25.7782 132.052 29.0654C132.052 30.963 133.13 31.9953 135.091 31.9953Z" fill="#0075B2"/>
<path d="M146.551 6.71609H145.175V5.92676H148.757V6.71609H147.382V11.3655H146.551V6.71609ZM149.374 5.92695H150.88L151.784 10.2015H151.823L152.747 5.92695H154.254V11.3655H153.429V6.45202H153.39L152.315 11.3655H151.32L150.245 6.45202H150.206V11.3655H149.374V5.92695H149.374Z" fill="#0075B2"/>
<path d="M9.23641 17.45H12.5389C13.5794 17.45 14.4303 16.6036 14.4303 15.5665V12.2764C14.4303 11.2398 13.5796 10.3945 12.5389 10.3945H9.23641C8.19229 10.3945 7.34375 11.2398 7.34375 12.2764V15.5665C7.34394 16.6038 8.19229 17.45 9.23641 17.45Z" fill="#0075B2"/>
<path d="M26.717 17.45C27.7561 17.45 28.6095 16.6036 28.6095 15.5665V12.2764C28.6095 11.2398 27.7561 10.3945 26.717 10.3945H23.4129C22.3725 10.3945 21.5186 11.2398 21.5186 12.2764V15.5665C21.5186 16.6036 22.3725 17.45 23.4129 17.45H26.717Z" fill="#0075B2"/>
<path d="M33.8067 21.8613H30.5026C29.4635 21.8613 28.6095 22.7124 28.6095 23.7483V27.0385C28.6095 28.0729 27.7562 28.9174 26.7171 28.9174H9.23615C8.19203 28.9174 7.34349 28.0731 7.34349 27.0385V23.7483C7.34349 22.7126 6.49014 21.8613 5.44852 21.8613H2.14483C1.10533 21.8613 0.253906 22.7124 0.253906 23.7483V27.0385C0.253906 28.0729 1.10533 28.9174 2.14483 28.9174H5.4489C6.49052 28.9174 7.34387 29.7662 7.34387 30.7989V34.0921C7.34387 35.1309 8.19241 35.9766 9.23653 35.9766H26.7175C27.7566 35.9766 28.6099 35.1309 28.6099 34.0921V30.7989C28.6099 29.766 29.4639 28.9174 30.503 28.9174H33.8067C34.8458 28.9174 35.7001 28.0731 35.7001 27.0385V23.7483C35.7003 22.7124 34.8458 21.8613 33.8067 21.8613Z" fill="#6AB31D"/>
</g>
<defs>
<clipPath id="clip0">
<rect width="154" height="36" fill="white" transform="translate(0.253906)"/>
</clipPath>
</defs>
</svg>
