<svg width="152" height="48" viewBox="0 0 152 48" fill="none" xmlns="http://www.w3.org/2000/svg">
<path d="M113.324 30.7292C109.524 30.7292 106.447 27.5998 106.447 23.7645C106.447 19.9292 109.547 16.8233 113.347 16.8233C116.121 16.8233 118.639 18.5174 119.688 21.1057H124.281C124.188 20.7292 124.094 20.3762 123.978 20.0233L126.635 17.5998L125.33 15.2704L121.786 16.2586C121.483 15.9057 121.157 15.5762 120.784 15.2468L121.856 11.8586L119.572 10.4704L116.867 12.9409C116.401 12.7762 115.935 12.6586 115.469 12.5645L114.629 9.10566L111.972 9.05859L111.062 12.588C110.573 12.6821 110.083 12.8233 109.594 12.988L107.099 10.3762L104.768 11.6704L105.747 15.2939C105.421 15.5998 105.094 15.9057 104.791 16.2586L101.248 15.2704L99.849 17.5527L102.53 20.188C102.39 20.6351 102.25 21.0821 102.18 21.5527L98.7067 22.5409L98.6367 25.2233L102.204 26.188C102.297 26.6821 102.437 27.1527 102.6 27.6233L99.8723 29.9998L101.131 32.3527L104.815 31.3409C105.094 31.6704 105.397 31.9762 105.724 32.2586L104.861 35.9762L107.123 37.2704L109.804 34.6351C110.2 34.7762 110.62 34.8704 111.039 34.9645L111.902 38.6115H114.559L115.445 34.9645C115.935 34.8704 116.401 34.7292 116.867 34.588L119.315 37.2468L121.67 35.9292L120.691 32.3998C121.064 32.0704 121.413 31.7409 121.74 31.3645L125.167 32.3998L126.519 30.0939L124.374 27.9762H118.896C117.59 29.7174 115.515 30.7527 113.324 30.7292Z" fill="#7ABF42"/>
<path d="M5.03516 10.5414H10.0707L16.3885 30.5414L22.7996 10.4473H26.9026L33.337 30.5414L39.6548 10.5414H44.5272L35.9247 37.7179H31.0757L24.7812 18.3296L18.8131 37.7179H13.8241L5.03516 10.5414Z" fill="#043855"/>
<path d="M46.8125 10.541H51.3818V21.7645H63.0383V10.541H67.6076V37.5293H63.0383V26.141H51.3818V37.5293H46.8125V10.541Z" fill="#043855"/>
<path d="M70.7314 10.541H76.0002L83.7867 21.7881L91.5965 10.541H97.075V37.5293H92.1094V17.5293L83.8566 29.5998L75.394 17.5998V37.5293H70.7314V10.541Z" fill="#043855"/>
<path d="M126.659 30.6347V35.6936C129.317 37.0818 132.254 37.8583 135.238 37.9289C139.784 37.9289 144.936 35.67 144.936 30.3289C144.936 24.9877 141.696 22.7759 136.87 21.4818C132.044 20.1877 131.205 19.2936 131.205 17.8112C131.205 16.5171 132.208 14.5171 136.707 14.5171C139.062 14.4936 141.37 15.3171 143.188 16.823V11.9524C143.188 11.9524 139.435 10.1406 136.031 10.1406C132.627 10.1406 126.659 10.9406 126.659 18.2347C126.659 27.8112 139.971 23.9994 139.971 30.1171C139.971 32.5877 137.64 33.4112 134.306 33.3642C130.622 33.3171 126.659 30.6347 126.659 30.6347Z" fill="#043855"/>
<path d="M121.227 11.8825C118.756 11.8825 116.751 13.906 116.774 16.4237C116.774 18.9178 118.779 20.9413 121.274 20.9178C123.745 20.9178 125.726 18.8943 125.726 16.4001C125.726 13.906 123.698 11.8825 121.227 11.8825ZM128.431 17.906C128.361 18.2119 128.291 18.5413 128.174 18.8237L129.829 20.4707L128.944 21.9766L126.729 21.2943C126.519 21.5295 126.286 21.7648 126.053 21.9766L126.659 24.259L125.167 25.1295L123.582 23.4119C123.279 23.506 122.975 23.6001 122.649 23.6707L122.066 26.0472H120.341L119.805 23.6707C119.525 23.6237 119.269 23.5531 118.989 23.459L117.264 25.1766L115.795 24.3531L116.355 21.9531C116.145 21.7648 115.935 21.5531 115.748 21.3413L113.371 22.0001L112.601 20.5178L114.373 18.9648C114.256 18.659 114.187 18.3531 114.117 18.0237L111.809 17.4119L111.855 15.6707L114.093 15.059C114.14 14.7531 114.233 14.4707 114.326 14.1648L112.578 12.4707L113.487 10.9884L115.772 11.6001C115.958 11.3884 116.168 11.1766 116.378 10.9884L115.772 8.63543L117.287 7.8119L118.919 9.50602C119.222 9.38837 119.548 9.31778 119.875 9.24719L120.481 6.96484L122.206 7.0119L122.742 9.27072C123.045 9.34131 123.348 9.4119 123.652 9.50602L125.4 7.88249L126.892 8.7766L126.193 10.9884C126.426 11.2001 126.636 11.4119 126.845 11.6472L129.13 10.9884L129.969 12.5178L128.244 14.0943C128.361 14.4472 128.454 14.8001 128.524 15.1531L130.879 15.7648V17.506L128.524 18.0237L128.431 17.906Z" fill="#D8DADB"/>
</svg>
