<?xml version="1.0" encoding="UTF-8"?>
<svg width="200px" height="80px" viewBox="0 0 200 80" version="1.1" xmlns="http://www.w3.org/2000/svg" xmlns:xlink="http://www.w3.org/1999/xlink">
    <title>G2</title>
    <g id="G2" stroke="none" stroke-width="1" fill="none" fill-rule="evenodd">
        <g id="g2-logo-r" transform="translate(4.000000, 10.000000)" fill-rule="nonzero">
            <g id="track-logo-black" transform="translate(0.227709, 0.583870)">
                <path d="M59.6481001,29.8589318 C59.6481001,46.3494228 46.2952761,59.7178639 29.8240499,59.7178639 C13.3528236,59.7178639 0,46.3494228 0,29.8589318 C0,13.368441 13.3528236,0 29.8240499,0 C46.2952761,0 59.6481001,13.368441 59.6481001,29.8589318" id="Fill-19" fill="#FF492C"></path>
                <path d="M42.7320181,22.8736139 L37.6392633,22.8736139 C37.7776469,22.0722002 38.2691473,21.6255105 39.2700423,21.1179087 L40.2089033,20.6389715 C41.8862081,19.7766455 42.7785436,18.8068275 42.7785436,17.2195266 C42.7785436,16.2186552 42.3932169,15.4327681 41.6237564,14.8630597 C40.8698044,14.2921569 39.9464518,14.015066 38.8859085,14.015066 C38.0389054,14.015066 37.2694449,14.2312447 36.5620185,14.6779343 C35.8689077,15.1090973 35.3463904,15.6632791 35.0230975,16.3572006 L36.4999846,17.8358149 C37.0690275,16.6808714 37.9005219,16.1099687 38.9932752,16.1099687 C39.9166278,16.1099687 40.4856707,16.5877115 40.4856707,17.2505799 C40.4856707,17.8047616 40.2089033,18.2681722 39.1471673,18.8068275 L38.5471073,19.0994449 C37.238428,19.7623133 36.330584,20.5159526 35.8080666,21.379473 C35.2843563,22.2262722 35.0230975,23.3203036 35.0230975,24.6293191 L35.0230975,24.9840432 L42.7320181,24.9840432 L42.7320181,22.8736139 Z" id="Fill-21" fill="#FFFFFF"></path>
                <polygon id="Fill-23" fill="#FFFFFF" points="42.0513139 27.4218459 33.6170727 27.4218459 29.4011449 34.733701 37.8341933 34.733701 42.0513139 42.0467506 46.2684346 34.733701"></polygon>
                <path d="M30.1271816,39.6085897 C24.7576597,39.6085897 20.3890328,35.2348535 20.3890328,29.8590513 C20.3890328,24.4832492 24.7576597,20.109513 30.1271816,20.109513 L33.4615103,13.1237172 C32.3830728,12.9099272 31.2688463,12.7964633 30.1271816,12.7964633 C20.7147115,12.7964633 13.0845265,20.4355725 13.0845265,29.8590513 C13.0845265,39.2825302 20.7147115,46.9216393 30.1271816,46.9216393 C33.88024,46.9216393 37.3481805,45.7057836 40.1635709,43.647906 L36.4713536,37.246151 C34.7666108,38.7164049 32.5488945,39.6085897 30.1271816,39.6085897" id="Fill-25" fill="#FFFFFF"></path>
            </g>
            <path d="M75.6651905,39.4380952 L75.6651905,30.6575143 L80.4773238,30.6575143 L84.5707619,39.4380952 L90.0390952,39.4380952 L84.8832381,30.1575524 C87.5705333,29.2201238 89.3204,26.9390476 89.3204,24.0017714 C89.3204,20.2520571 86.2268857,17.5647619 81.9459619,17.5647619 L70.7593143,17.5647619 L70.7593143,39.4380952 L75.6651905,39.4380952 Z M81.2585143,27.0952857 L75.6651905,27.0952857 L75.6651905,21.1894857 L81.2585143,21.1894857 C83.1333714,21.1894857 84.5082667,22.3768952 84.5082667,24.0017714 C84.5082667,25.7828857 83.1333714,27.0952857 81.2585143,27.0952857 Z M97.1323048,39.4380952 L98.8509238,34.7822 L107.912733,34.7822 L109.631352,39.4380952 L114.755962,39.4380952 L105.975381,17.5647619 L100.757029,17.5647619 L92.0076952,39.4380952 L97.1323048,39.4380952 Z M106.569086,31.094981 L100.194571,31.094981 L103.381829,22.4706381 L106.569086,31.094981 Z M125.973857,39.4380952 L125.973857,21.5644571 L132.817086,21.5644571 L132.817086,17.5647619 L114.224752,17.5647619 L114.224752,21.5644571 L121.067981,21.5644571 L121.067981,39.4380952 L125.973857,39.4380952 Z M141.1602,39.4380952 L141.1602,17.5647619 L136.254324,17.5647619 L136.254324,39.4380952 L141.1602,39.4380952 Z M151.503162,39.4380952 L151.503162,25.3766667 L161.439905,39.4380952 L165.752076,39.4380952 L165.752076,17.5647619 L160.908695,17.5647619 L160.908695,31.6261905 L151.096943,17.5647619 L146.659781,17.5647619 L146.659781,39.4380952 L151.503162,39.4380952 Z M181.000914,39.781819 C184.156924,39.781819 186.375505,38.5944095 187.719152,36.5633143 L188.031629,39.4380952 L191.500114,39.4380952 L191.500114,27.564 L180.938419,27.564 L180.938419,31.1574762 L187.0942,31.1574762 C186.56299,34.1572476 184.188171,35.844619 181.375886,35.844619 C177.407438,35.844619 175.15761,32.8760952 175.15761,28.470181 C175.15761,24.3454952 177.37619,21.0957429 181.1884,21.0957429 C184.031933,21.0957429 185.688057,22.6581238 186.31301,25.0329429 L191.437619,25.0329429 C190.531438,20.1270667 186.781724,17.1585429 181.250895,17.1585429 C174.532657,17.1585429 170.15799,21.7519429 170.15799,28.5014286 C170.15799,35.2196667 174.376419,39.781819 181.000914,39.781819 Z" id="RATING" fill="#FFFFFF"></path>
        </g>
    </g>
</svg>