<?xml version="1.0" encoding="UTF-8"?>
<svg width="200px" height="80px" viewBox="0 0 200 80" version="1.1" xmlns="http://www.w3.org/2000/svg" xmlns:xlink="http://www.w3.org/1999/xlink">
    <title>Google</title>
    <g id="Google" stroke="none" stroke-width="1" fill="none" fill-rule="evenodd">
        <g id="google-logo-r" transform="translate(10.000000, 10.000000)" fill-rule="nonzero">
            <path d="M77.5953704,31.6280742 C77.5953704,40.1887037 70.8983704,46.4968889 62.6796296,46.4968889 C54.4608889,46.4968889 47.7638889,40.1887037 47.7638889,31.6280742 C47.7638889,23.0071111 54.4608889,16.7592593 62.6796296,16.7592593 C70.8983704,16.7592593 77.5953704,23.0071111 77.5953704,31.6280742 Z M71.0659629,31.6280742 C71.0659629,26.2785185 67.1845185,22.6182963 62.6796296,22.6182963 C58.1747408,22.6182963 54.2932963,26.2785185 54.2932963,31.6280742 C54.2932963,36.924 58.1747408,40.6378519 62.6796296,40.6378519 C67.1845185,40.6378519 71.0659629,36.9172963 71.0659629,31.6280742 Z" id="Shape" fill="#EA4335"></path>
            <path d="M109.773148,31.6280742 C109.773148,40.1887037 103.076148,46.4968889 94.8574075,46.4968889 C86.6386667,46.4968889 79.9416667,40.1887037 79.9416667,31.6280742 C79.9416667,23.0138148 86.6386667,16.7592593 94.8574075,16.7592593 C103.076148,16.7592593 109.773148,23.0071111 109.773148,31.6280742 Z M103.243741,31.6280742 C103.243741,26.2785185 99.3622963,22.6182963 94.8574075,22.6182963 C90.3525185,22.6182963 86.4710742,26.2785185 86.4710742,31.6280742 C86.4710742,36.924 90.3525185,40.6378519 94.8574075,40.6378519 C99.3622963,40.6378519 103.243741,36.9172963 103.243741,31.6280742 Z" id="Shape" fill="#FBBC05"></path>
            <path d="M140.610185,17.6575556 L140.610185,44.3517037 C140.610185,55.3323704 134.134407,59.8171481 126.478778,59.8171481 C119.272296,59.8171481 114.935,54.9971852 113.299296,51.0554075 L118.984037,48.689 C119.996296,51.1090371 122.476667,53.9648148 126.472074,53.9648148 C131.372481,53.9648148 134.409259,50.9414444 134.409259,45.25 L134.409259,43.1115185 L134.181333,43.1115185 C132.719926,44.9148148 129.90437,46.4901852 126.351407,46.4901852 C118.917,46.4901852 112.106037,40.0144075 112.106037,31.6817037 C112.106037,23.2886667 118.917,16.7592593 126.351407,16.7592593 C129.897667,16.7592593 132.713222,18.3346296 134.181333,20.0842963 L134.409259,20.0842963 L134.409259,17.6642593 L140.610185,17.6642593 L140.610185,17.6575556 Z M134.871815,31.6817037 C134.871815,26.4461111 131.379185,22.6182963 126.93463,22.6182963 C122.429741,22.6182963 118.655556,26.4461111 118.655556,31.6817037 C118.655556,36.8636667 122.429741,40.6378519 126.93463,40.6378519 C131.379185,40.6378519 134.871815,36.8636667 134.871815,31.6817037 Z" id="Shape" fill="#4285F4"></path>
            <polygon id="Path" fill="#34A853" points="150.833333 2.01111111 150.833333 45.5851852 144.464815 45.5851852 144.464815 2.01111111"></polygon>
            <path d="M175.650444,36.5217777 L180.718444,39.9004444 C179.082742,42.3204815 175.140963,46.4901852 168.33,46.4901852 C159.883333,46.4901852 153.575148,39.9607777 153.575148,31.6213704 C153.575148,22.7791852 159.936963,16.7525556 167.599296,16.7525556 C175.315259,16.7525556 179.089444,22.8931481 180.322925,26.2114815 L181,27.9008148 L161.123519,36.1329629 C162.645259,39.1161111 165.011667,40.6378519 168.33,40.6378519 C171.655037,40.6378519 173.961111,39.0021481 175.650444,36.5217777 Z M160.050926,31.1722223 L173.337667,25.6550742 C172.606963,23.7981481 170.408148,22.5043333 167.820519,22.5043333 C164.502185,22.5043333 159.883333,25.4338519 160.050926,31.1722223 L160.050926,31.1722223 Z" id="Shape" fill="#EA4335"></path>
            <path d="M23.6573704,27.7600371 L23.6573704,21.4518519 L44.9148148,21.4518519 C45.1226296,22.5512592 45.2298889,23.8517777 45.2298889,25.2595556 C45.2298889,29.9923704 43.9360742,35.8447037 39.7663704,40.0144075 C35.7106296,44.2377408 30.5286667,46.4901852 23.6640742,46.4901852 C10.9404444,46.4901852 0.241333333,36.1262592 0.241333333,23.4026296 C0.241333333,10.679 10.9404444,0.315074075 23.6640742,0.315074075 C30.7029629,0.315074075 35.7173333,3.077 39.4848148,6.67688889 L35.0335556,11.1281481 C32.3319629,8.59414815 28.6717408,6.62325925 23.6573704,6.62325925 C14.366037,6.62325925 7.09922223,14.1112963 7.09922223,23.4026296 C7.09922223,32.6939629 14.366037,40.182 23.6573704,40.182 C29.684,40.182 33.1162963,37.7619629 35.3151111,35.5631481 C37.0982963,33.7799629 38.2714444,31.2325556 38.734,27.7533333 L23.6573704,27.7600371 Z" id="Path" fill="#4285F4"></path>
        </g>
    </g>
</svg>