<?xml version="1.0" encoding="UTF-8"?>
<svg width="196px" height="25px" viewBox="0 0 196 25" version="1.1" xmlns="http://www.w3.org/2000/svg" xmlns:xlink="http://www.w3.org/1999/xlink">
    <title>1689336808</title>
    <g id="Page-1" stroke="none" stroke-width="1" fill="none" fill-rule="evenodd">
        <g id="1689336808" fill="#FFFFFF" fill-rule="nonzero">
            <g id="Group" transform="translate(58.5493, 0.4893)">
                <path d="M0,5.81462291 L2.5286213,5.81462291 L2.5286213,2.2308578 L5.60319493,2.2308578 L5.60319493,5.81462291 L9.20935374,5.81462291 L9.20935374,8.49165229 L5.60319493,8.49165229 L5.60319493,14.5509499 C5.60319493,15.9326425 6.29281892,16.6234888 7.58586392,16.6234888 L9.20935374,16.6234888 L9.20935374,19.3005181 L7.19795039,19.3005181 C4.12337679,19.3005181 2.5286213,17.8612551 2.5286213,14.781232 L2.5286213,8.49165229 L0,8.49165229 L0,5.81462291 Z" id="Path"></path>
                <path d="M14.7119785,7.55613126 C15.4878055,6.47668393 16.6084445,5.81462291 18.0164268,5.81462291 L19.4244091,5.81462291 L19.4244091,8.49165229 L17.858388,8.49165229 C15.9331876,8.49165229 14.7263457,9.72941853 14.7263457,11.8019574 L14.7263457,19.3005181 L11.6805064,19.3005181 L11.6805064,5.81462291 L14.7263457,5.81462291 L14.7263457,7.55613126 L14.7119785,7.55613126 Z" id="Path"></path>
                <path d="M33.6191696,19.2861255 L30.6164318,19.2861255 L30.6164318,17.9044329 C29.596363,18.9838802 28.2314822,19.6459413 26.6510939,19.6459413 C23.4903172,19.6459413 21.3208751,17.3287277 21.3208751,13.5578584 L21.3208751,5.81462291 L24.3954487,5.81462291 L24.3954487,13.4715026 C24.3954487,15.3713299 25.4729862,16.810593 27.3694522,16.810593 C29.2084495,16.810593 30.5589632,15.4576857 30.5589632,13.3131837 L30.5589632,5.81462291 L33.6048024,5.81462291 L33.6048024,19.2861255 L33.6191696,19.2861255 Z" id="Path"></path>
                <path d="M36.2627283,15.1554404 L39.179263,15.1554404 C39.2942003,16.3932067 40.299902,17.2423719 41.851556,17.2423719 C43.3601085,17.2423719 44.2365056,16.4939551 44.2365056,15.5008636 C44.2365056,12.63673 36.4782357,14.6516984 36.4782357,9.62867013 C36.4782357,7.0955671 38.6189436,5.4404145 41.5354783,5.4404145 C44.4520131,5.4404145 46.6501896,6.87967758 46.9519001,9.57109957 L43.9491623,9.57109957 C43.7911235,8.54922279 42.799789,7.75762812 41.506744,7.75762812 C40.3573707,7.75762812 39.3373019,8.24697753 39.3373019,9.32642487 C39.3373019,12.0034542 47.196142,9.90213008 47.196142,15.1410478 C47.196142,17.7892918 44.9979654,19.6317336 41.8084545,19.6317336 C38.6476779,19.6459413 36.4495014,17.9907887 36.2627283,15.1554404 Z" id="Path"></path>
                <path d="M48.2449451,5.81462291 L50.7735664,5.81462291 L50.7735664,2.2308578 L53.84814,2.2308578 L53.84814,5.81462291 L57.4542988,5.81462291 L57.4542988,8.49165229 L53.84814,8.49165229 L53.84814,14.5509499 C53.84814,15.9326425 54.537764,16.6234888 55.830809,16.6234888 L57.4542988,16.6234888 L57.4542988,19.3005181 L55.4428955,19.3005181 C52.3683219,19.3005181 50.7735664,17.8612551 50.7735664,14.781232 L50.7735664,8.49165229 L48.2449451,8.49165229 L48.2449451,5.81462291 L48.2449451,5.81462291 Z" id="Path"></path>
                <path d="M59.9110843,5.81462291 L62.9569236,5.81462291 L62.9569236,7.1963155 C64.0775626,6.11686816 65.7010522,5.45480713 67.4394794,5.45480713 C71.2898798,5.45480713 74.2926181,8.37651124 74.2926181,12.5071963 C74.2926181,16.6378814 71.2898798,19.6459413 67.4394794,19.6459413 C65.7010522,19.6459413 64.0775626,18.9838802 62.9569236,17.9044329 L62.9569236,24.4674726 L59.9110843,24.4674726 L59.9110843,5.81462291 Z M67.1377688,16.7242372 C69.4221488,16.7242372 71.2611456,14.9107657 71.2611456,12.5647668 C71.2611456,10.1611974 69.4221488,8.40529649 67.1377688,8.40529649 C64.7959209,8.40529649 62.9569236,10.0892343 62.9569236,12.5647668 C62.9569236,14.9683362 64.8102881,16.7242372 67.1377688,16.7242372 Z" id="Shape"></path>
                <path d="M80.0107502,7.55613126 C80.786577,6.47668393 81.9072162,5.81462291 83.3151985,5.81462291 L84.7231808,5.81462291 L84.7231808,8.49165229 L83.1571598,8.49165229 C81.2319596,8.49165229 80.0251177,9.72941853 80.0251177,11.8019574 L80.0251177,19.3005181 L76.9792783,19.3005181 L76.9792783,5.81462291 L80.0251177,5.81462291 L80.0251177,7.55613126 L80.0107502,7.55613126 Z" id="Path"></path>
                <path d="M85.3984374,12.5647668 C85.3984374,8.59240069 88.5304802,5.45480713 92.4958176,5.45480713 C96.4611557,5.45480713 99.5931984,8.59240069 99.5931984,12.5647668 C99.5931984,16.537133 96.4611557,19.6459413 92.4958176,19.6459413 C88.5304802,19.6459413 85.3984374,16.537133 85.3984374,12.5647668 Z M92.4958176,16.810593 C94.7801976,16.810593 96.5904601,14.9683362 96.5904601,12.5647668 C96.5904601,10.1468048 94.7801976,8.29015543 92.4958176,8.29015543 C90.182704,8.29015543 88.4011757,10.1324122 88.4011757,12.5647668 C88.4011757,14.9683362 90.182704,16.810593 92.4958176,16.810593 Z" id="Shape"></path>
                <path d="M100.685103,5.81462291 L103.271193,5.81462291 L103.271193,4.69199769 C103.271193,1.55440414 104.722277,0.014392631 107.940522,0.014392631 L109.62148,0.014392631 L109.62148,2.51871042 L108.299701,2.51871042 C107.006656,2.51871042 106.345766,3.12320092 106.345766,4.44732297 L106.345766,5.82901554 L109.62148,5.82901554 L109.62148,8.50604488 L106.345766,8.50604488 L106.345766,19.3005181 L103.271193,19.3005181 L103.271193,8.50604488 L100.685103,8.50604488 L100.685103,5.81462291 Z" id="Path"></path>
                <path d="M111.489212,0.0287852619 L114.736192,0.0287852619 L114.736192,3.41105354 L111.489212,3.41105354 L111.489212,0.0287852619 Z M114.649988,5.81462291 L114.649988,19.2861255 L111.575415,19.2861255 L111.575415,5.81462291 L114.649988,5.81462291 Z" id="Shape"></path>
                <polygon id="Path" points="121.201416 19.2861255 118.126843 19.2861255 118.126843 0 121.201416 0"></polygon>
                <path d="M123.844975,12.7086931 C123.844975,8.57800804 127.120689,5.46919976 130.884887,5.46919976 C134.62035,5.46919976 137.450682,8.33333333 137.450682,12.0034542 C137.450682,12.3344847 137.421948,12.7806563 137.335744,13.3851468 L126.833346,13.3851468 C127.135056,15.6447899 128.844749,17.0552677 130.956722,17.0552677 C132.551478,17.0552677 133.901992,16.2492803 134.261171,15.0402994 L137.292643,15.0402994 C136.631754,17.6885434 134.160601,19.6747265 130.76995,19.6747265 C126.747143,19.6459413 123.844975,16.5659183 123.844975,12.7086931 Z M134.318639,10.8520438 C134.203702,9.31203221 132.781352,8.07426597 130.884887,8.07426597 C129.146459,8.07426597 127.666642,9.15371332 127.06322,10.8520438 L134.318639,10.8520438 Z" id="Shape"></path>
            </g>
            <g id="Group">
                <g id="Path">
                    <path d="M15.6202246,13.5866436 L23.3641274,13.5866436 L21.1372166,21.3442717 C20.5625299,23.35924 18.4505565,25 16.4391531,25 L12.3445107,25 C10.3331074,25 9.15499974,23.35924 9.74405356,21.3442717 L10.9221612,17.2423719 C11.4968479,15.2274036 13.5944542,13.5866436 15.6202246,13.5866436 Z"></path>
                    <path d="M6.00859028,0 L23.6227364,0 C25.6197726,0 26.783513,1.64075993 26.2088264,3.64133563 L23.9962827,11.3845711 L2.74724349,11.3845711 C0.73584018,11.3845711 -0.427900305,9.74381119 0.146786354,7.74323546 L1.32489401,3.64133563 C1.89958067,1.64075993 4.01155414,0 6.00859028,0 Z"></path>
                </g>
                <path d="M34.0101978,11.4133563 L26.266295,11.4133563 L28.4932059,3.65572826 C29.0678925,1.64075993 31.179866,0 33.1912693,0 L37.2859118,0 C39.3116822,0 40.4754227,1.64075993 39.8863689,3.65572826 L38.7082612,7.75762812 C38.1335746,9.77259643 36.0216011,11.4133563 34.0101978,11.4133563 Z" id="Path"></path>
            </g>
        </g>
    </g>
</svg>