<svg width="92" height="23" viewBox="0 0 185 46" fill="none" xmlns="http://www.w3.org/2000/svg">
<g clip-path="url(#clip0)">
<path d="M50.7429 11.5479V30.9514C50.7429 31.1333 50.8841 31.2877 51.0643 31.3036C52.0867 31.3884 53.2226 31.3884 54.416 31.3036C55.3899 31.2282 56.5783 31.089 58.0457 30.8766C57.9922 31.1732 57.9658 31.4935 57.9658 31.8394C57.9658 32.1338 57.996 32.4917 58.053 32.8791H46.5049V11.5517C46.7249 11.571 47.0087 11.6058 47.3597 11.6537C47.8722 11.7415 48.3981 11.7437 48.7115 11.6599L49.7503 11.6553C50.1456 11.6014 50.4727 11.5638 50.7429 11.5479ZM64.5856 12.6089C63.9695 12.6949 63.5592 12.6966 63.2633 12.6135H62.2245C61.8574 12.5634 61.5771 12.5313 61.3661 12.5109V32.879H65.3864V12.5063C65.155 12.5241 64.8917 12.5576 64.5856 12.6089ZM68.5676 12.4915C68.6064 12.7805 68.6258 13.0695 68.6258 13.3521C68.6258 13.7238 68.6074 14.0519 68.5732 14.3324H69.2447C71.1471 14.0918 72.7445 13.9688 73.9693 13.9688C74.1655 13.9688 74.3232 14.1268 74.3232 14.3209V32.8791H78.2233V14.3209C78.2233 14.1266 78.3817 13.9688 78.5765 13.9688C79.4679 13.9688 80.7433 14.0509 82.3699 14.2116C82.7814 14.2709 83.2179 14.3085 83.6732 14.3256C83.627 14.0441 83.627 13.7215 83.6749 13.3607C83.6247 13.0729 83.627 12.7807 83.6841 12.4916H68.5676V12.4915ZM86.8835 12.4915V32.8791H97.8976C97.844 32.5119 97.8154 32.1763 97.8154 31.8989C97.8154 31.5815 97.84 31.2843 97.8843 31.0122C97.1346 31.1262 96.2996 31.2173 95.4036 31.2786C94.3618 31.3625 92.9267 31.4032 91.1358 31.4032C90.9412 31.4032 90.7836 31.2446 90.7836 31.049V23.1695C90.7836 22.9756 90.9412 22.8173 91.1358 22.8173H94.0831C95.0652 22.8746 95.8545 22.9324 96.645 22.9893L97.2285 23.0298C97.2114 22.9519 97.1923 22.8639 97.171 22.7706L97.1602 21.3526C97.1602 21.3127 97.1659 21.2739 97.1797 21.2398C97.1872 21.2125 97.1957 21.1839 97.2042 21.1577C96.1662 21.2865 95.2173 21.3407 94.0833 21.3407H91.1359C90.9413 21.3407 90.7837 21.1821 90.7837 20.9878V14.3209C90.7837 14.1266 90.9413 13.9688 91.1359 13.9688C93.3099 13.9688 95.5929 14.1102 97.9257 14.3905C97.8522 14.069 97.8154 13.7602 97.8154 13.473C97.8154 13.1312 97.8521 12.8017 97.9269 12.4915H86.8835ZM114.479 26.6152C114.395 24.0956 112.459 21.8598 108.714 19.9866C105.938 18.5567 104.592 17.1672 104.592 15.7435C104.592 13.4474 105.936 12.1866 108.481 12.095C110.213 12.095 111.546 13.0228 112.448 14.8568C112.542 14.5342 112.674 14.1217 112.845 13.603C113.054 13.0536 113.23 12.5927 113.378 12.2119C112.047 11.4192 110.443 10.9768 108.606 10.8994C103.986 11.1438 101.656 13.2721 101.496 17.4044C101.496 20.1885 103.26 22.4244 106.741 24.0424C109.651 25.3646 111.125 26.8801 111.125 28.5416C110.94 30.8768 109.548 32.0999 106.985 32.1919C104.449 32.1037 102.862 30.9099 102.26 28.6425H102.215C102.052 29.8746 101.794 31.0913 101.447 32.2615C102.99 32.8456 104.592 33.1818 106.211 33.26C111.328 33.2594 114.153 30.8355 114.479 26.6152ZM121.215 23.6808C121.154 23.685 121.065 23.7006 120.991 23.7736C120.927 23.838 120.889 23.9255 120.889 24.0156V32.879H116.842V12.4881H124.133C128.308 12.4881 130.377 14.0838 130.454 17.3626C130.484 19.1469 129.993 20.5671 128.997 21.5817C127.625 22.9792 125.225 23.6876 121.861 23.6876C121.655 23.6876 121.448 23.6845 121.215 23.6808ZM121.179 22.653C121.334 22.6757 121.502 22.6878 121.672 22.6878C122.17 22.6878 122.744 22.5917 123.376 22.4031C125.213 21.8776 126.233 20.3839 126.404 17.9411C126.233 15.1872 125.15 13.6553 123.163 13.388H121.228C121.041 13.388 120.889 13.5401 120.889 13.726V22.3209C120.889 22.4877 121.012 22.6303 121.179 22.653ZM146.644 12.4881V32.879H157.676C157.624 32.5085 157.596 32.1671 157.596 31.8829C157.596 31.5599 157.618 31.2564 157.667 30.9806C156.908 31.0968 156.068 31.1899 155.17 31.2514C154.119 31.334 152.727 31.3736 150.91 31.3736C150.724 31.3736 150.572 31.2213 150.572 31.0376V23.1673C150.572 22.9825 150.724 22.8304 150.91 22.8304H154.178C155.406 22.9045 156.523 22.9747 157.547 23.0446C157.528 22.9609 157.509 22.8669 157.483 22.7642L157.473 21.3526C157.473 21.314 157.477 21.2773 157.491 21.245C157.502 21.2091 157.513 21.1737 157.525 21.1418C156.504 21.2626 155.38 21.3253 154.179 21.3253H150.911C150.724 21.3253 150.572 21.1737 150.572 20.9891V14.3307C150.572 14.1449 150.724 13.9938 150.911 13.9938C153.089 13.9938 155.376 14.1375 157.71 14.4186C157.632 14.0897 157.596 13.7763 157.596 13.4845C157.596 13.1339 157.632 12.8017 157.713 12.4883H146.644V12.4881ZM167.228 32.8791H160.511V12.4881L169.151 12.4864C174.976 12.8831 177.964 16.0204 178.281 22.0593C177.889 28.846 174.17 32.4865 167.228 32.8791ZM173.749 22.078C173.749 16.4735 171.231 13.6291 166.271 13.6291H164.772C164.589 13.6291 164.436 13.7818 164.436 13.9676V31.4009C164.436 31.5849 164.589 31.7377 164.772 31.7377H166.096C168.632 31.7377 170.567 30.9094 171.848 29.2801C173.107 27.6718 173.749 25.2493 173.749 22.078ZM132.713 12.4881V32.879H143.743C143.691 32.5085 143.661 32.1671 143.661 31.8829C143.661 31.5599 143.685 31.2564 143.733 30.9806C142.972 31.0968 142.133 31.1899 141.237 31.2514C140.186 31.334 138.792 31.3736 136.975 31.3736C136.79 31.3736 136.638 31.2213 136.638 31.0376V23.1673C136.638 22.9825 136.79 22.8304 136.975 22.8304H140.245C141.474 22.9045 142.589 22.9747 143.613 23.0446C143.595 22.9609 143.574 22.8669 143.55 22.7642L143.539 21.3526C143.539 21.314 143.546 21.2773 143.558 21.245C143.568 21.2091 143.579 21.1737 143.588 21.1418C142.571 21.2626 141.448 21.3253 140.245 21.3253H136.975C136.79 21.3253 136.638 21.1737 136.638 20.9891V14.3307C136.638 14.1449 136.79 13.9938 136.975 13.9938C139.153 13.9938 141.44 14.1375 143.775 14.4186C143.7 14.0897 143.661 13.7763 143.661 13.4845C143.661 13.1339 143.701 12.8017 143.776 12.4883H132.713V12.4881Z" fill="#0F2A6F"/>
<path d="M38.827 22.3683L28.7725 12.3154L24.4904 17.7512L29.1074 22.3681C29.5333 22.7945 29.5333 23.491 29.1074 23.9171L27.772 25.252C27.772 25.252 28.6725 26.6 28.7139 26.6811C28.9215 27.0978 28.9718 28.0764 28.3821 28.5228L17.8808 36.585C17.8783 39.2906 17.8746 44.8534 17.8789 44.8558C17.8808 44.8564 38.8273 23.9169 38.8273 23.9169C39.253 23.4905 39.253 22.7947 38.827 22.3683Z" fill="#518AD8"/>
<path d="M15.4747 23.6337C15.0503 23.2095 15.0503 22.5137 15.4747 22.0871L16.8119 20.7499L15.8977 19.4363C15.4618 18.819 15.599 17.9413 16.2001 17.4818L26.7034 9.4189L26.7106 1.15331L26.7047 1.14994L26.6993 1.14258L5.75611 22.0871C5.32984 22.5137 5.32984 23.2095 5.75703 23.6357L15.8094 33.6886L20.0928 28.2528L15.4747 23.6337Z" fill="#0F2A6F"/>
<path d="M31.9972 6.03931C32.1951 6.03931 32.3877 6.15998 32.4763 6.33923C32.6361 6.66874 32.4055 6.96253 32.2785 7.1243L23.0753 18.8057C22.9819 18.9234 22.9741 19.1771 23.06 19.2988C23.1096 19.3709 28.0286 26.5067 28.1977 26.7491C28.4395 27.0973 28.4167 27.994 27.9347 28.3593L13.1375 39.7191C12.9297 39.8784 12.7756 39.9651 12.56 39.9671C12.3743 39.9546 12.1882 39.8323 12.1074 39.6698C11.9453 39.3405 12.1882 39.0277 12.3047 38.8778L21.5055 27.2015C21.5998 27.0751 21.6091 26.8342 21.5242 26.7056L16.3883 19.3198C16.016 18.7904 16.1316 18.0393 16.646 17.6459L31.4461 6.28449C31.6686 6.1103 31.8283 6.03931 31.9972 6.03931ZM31.9972 6.00098C31.8196 6.00098 31.6528 6.07412 31.4225 6.25398L16.6226 17.6152C16.091 18.0218 15.9721 18.7947 16.3569 19.3417L21.4926 26.7273C21.5682 26.842 21.5587 27.0659 21.4747 27.1785L12.2745 38.8542C12.1531 39.0106 11.9007 39.3369 12.073 39.6868C12.1597 39.8614 12.3582 39.9921 12.5574 40.0054C12.788 40.0034 12.953 39.9088 13.1606 39.7496L27.958 28.3898C28.4697 28.0022 28.4716 27.0766 28.2293 26.7273C28.0583 26.482 23.0916 19.277 23.0916 19.277C23.0153 19.1689 23.0226 18.9339 23.1054 18.8295L32.3086 7.14791C32.4291 6.99427 32.6824 6.67641 32.5108 6.32236C32.4158 6.13054 32.2107 6.00098 31.9972 6.00098Z" fill="white"/>
<path d="M27.6981 26.8633C27.8174 27.044 27.9249 27.7278 27.6248 27.9538L12.8254 39.3152C12.7007 39.4106 12.621 39.4568 12.5854 39.4538C12.5344 39.4568 12.5713 39.3661 12.7072 39.1909L21.9066 27.5178C22.1393 27.2166 22.155 26.723 21.9414 26.4158L16.8061 19.0254C16.8061 19.0255 27.5793 26.6819 27.6981 26.8633Z" fill="#F9D242"/>
<path d="M27.6984 26.8632L22.6411 19.5887C22.4265 19.2804 22.4437 18.7856 22.6735 18.4921L31.8744 6.81175C32.0112 6.63772 32.0466 6.55078 31.9974 6.55078C31.9609 6.55078 31.8798 6.59341 31.7574 6.69062L16.9575 18.0506C16.6605 18.2791 16.5903 18.7189 16.8064 19.0254L27.6984 26.8632Z" fill="#FAE17D"/>
</g>
<defs>
<clipPath id="clip0">
<rect width="184" height="46" fill="white" transform="translate(0.253906)"/>
</clipPath>
</defs>
</svg>
