<svg width="128" height="45" viewBox="0 0 128 45" fill="none" xmlns="http://www.w3.org/2000/svg">
<g clip-path="url(#clip0)">
<g clip-path="url(#clip1)">
<path d="M11.2381 44.8241L12.4059 36.2191L8.5488 43.0608H5.82408L4.55019 36.1838L2.60397 44.8241H0.126953L3.20553 31.4229H5.85947L7.62876 40.4863L12.7243 31.4229H15.4844L13.7859 44.8241H11.2381Z" fill="#0C0506"/>
<path d="M23.9769 44.8241L23.623 41.9675H18.6336L17.2889 44.8241H14.5996L21.1814 31.4229H24.5784L26.5954 44.8241H23.9769ZM22.6322 33.433L19.589 39.8868H23.3399L22.6322 33.433Z" fill="#0C0506"/>
<path d="M27.3037 44.8241L29.6746 31.4229H32.187L29.8161 44.8241H27.3037Z" fill="#0C0506"/>
<path d="M31.9385 44.8241L34.3093 31.4229H36.8217L34.8401 42.6023H40.3957L40.0065 44.7888H31.9385V44.8241Z" fill="#0C0506"/>
<path d="M44.9253 45.0001C43.5453 45.0001 42.5191 44.718 41.8113 44.1185C41.1036 43.5189 40.7852 42.7431 40.7852 41.7556C40.7852 41.4735 40.8205 41.1913 40.8559 40.9092L41.8821 35.0902C42.1298 33.6796 42.696 32.6921 43.5099 32.0926C44.3591 31.4931 45.5976 31.2109 47.2254 31.2109C48.3224 31.2109 49.5255 31.3873 50.8701 31.7399L50.3394 33.8559C49.0655 33.5738 47.9331 33.468 46.9777 33.468C46.093 33.468 45.4561 33.6091 45.0669 33.8912C44.6776 34.1733 44.3945 34.7376 44.253 35.584L43.3683 40.5918C43.2976 40.9092 43.2976 41.1561 43.2976 41.3324C43.2976 41.8261 43.4391 42.2141 43.7576 42.4257C44.076 42.6373 44.5715 42.7783 45.3146 42.7783C46.3761 42.7783 47.5085 42.6725 48.7116 42.4257L48.7824 44.5417C47.6854 44.8591 46.3761 45.0001 44.9253 45.0001Z" fill="#0C0506"/>
<path d="M57.204 44.8241L58.1948 39.1462H53.347L52.3562 44.8241H49.8438L52.2146 31.4229H54.727L53.7716 36.9597H58.6195L59.5749 31.4229H62.0873L59.7164 44.8241H57.204Z" fill="#0C0506"/>
<path d="M70.0843 44.8241L69.7304 41.9675H64.741L63.3964 44.8241H60.707L67.2888 31.4229H70.6859L72.7029 44.8241H70.0843ZM68.7396 33.433L65.7318 39.8868H69.4827L68.7396 33.433Z" fill="#0C0506"/>
<path d="M81.0899 44.8241L77.7636 34.879L75.9944 44.8241H73.5527L75.9236 31.4229H79.0375L82.3638 41.6149L84.1685 31.4229H86.5747L84.2039 44.8241H81.0899Z" fill="#0C0506"/>
<path d="M93.546 44.8241L90.2197 34.879L88.4504 44.8241H86.0088L88.3796 31.4229H91.4936L94.8199 41.6149L96.6246 31.4229H99.0308L96.66 44.8241H93.546Z" fill="#0C0506"/>
<path d="M98.5 44.8241L100.871 31.4229H109.116L108.727 33.6094H102.994L102.428 36.8186H107.736L107.346 39.0051H102.039L101.402 42.6376H107.134L106.78 44.8241H98.5Z" fill="#0C0506"/>
<path d="M108.019 44.8241L110.389 31.4229H112.902L110.92 42.6023H116.476L116.087 44.7888H108.019V44.8241Z" fill="#0C0506"/>
<path d="M120.793 45.0003C120.191 45.0003 119.484 44.9298 118.705 44.7887C117.927 44.6477 117.29 44.4361 116.759 44.1892L117.29 42.2496C118.74 42.6728 119.944 42.8844 120.934 42.8844C121.854 42.8844 122.456 42.7786 122.774 42.5317C123.093 42.3201 123.305 41.8264 123.411 41.1563C123.482 40.7684 123.518 40.4862 123.518 40.3099C123.518 39.9925 123.376 39.7456 123.128 39.5693C122.845 39.4282 122.244 39.2166 121.324 38.9698C120.191 38.6876 119.413 38.2997 118.953 37.8413C118.493 37.3828 118.28 36.7833 118.28 36.0074C118.28 35.69 118.316 35.2315 118.422 34.6673C118.67 33.2566 119.13 32.3044 119.767 31.846C120.404 31.3875 121.607 31.1406 123.341 31.1406C124.685 31.1406 125.924 31.317 127.091 31.6696L126.667 33.7503C125.358 33.4329 124.19 33.2919 123.128 33.2919C122.244 33.2919 121.677 33.3977 121.394 33.574C121.111 33.7503 120.934 34.1735 120.793 34.8436C120.722 35.2315 120.687 35.5137 120.687 35.69C120.687 36.0074 120.828 36.2543 121.111 36.4306C121.394 36.6069 121.961 36.7833 122.845 37.0301C124.048 37.3475 124.862 37.7002 125.322 38.0881C125.782 38.5113 125.995 39.0756 125.995 39.8162C125.995 40.0983 125.959 40.5215 125.853 41.121C125.676 42.1085 125.464 42.8491 125.145 43.3428C124.862 43.8366 124.367 44.2597 123.659 44.5419C123.057 44.8593 122.067 45.0003 120.793 45.0003Z" fill="#0C0506"/>
<path d="M95.6688 8.71082C98.8536 10.0509 102.074 11.3911 105.258 12.7312C107.735 13.7892 110.354 14.565 111.557 17.2453C112.513 19.3613 113.468 21.4773 114.388 23.558C113.999 21.2304 113.609 18.9734 113.22 16.6105C112.76 13.8597 110.354 12.4138 108.337 10.8621C103.595 7.22962 98.8889 3.63245 94.1826 0C94.6072 2.68025 95.0673 5.3605 95.4919 8.04075C95.5627 8.28762 95.5981 8.49922 95.6688 8.71082Z" fill="#36A048"/>
<path d="M91.5997 14.4595C95.1383 15.0237 98.6768 15.588 102.215 16.1523C104.869 16.5755 107.594 16.7165 109.399 19.0441C110.885 20.9485 112.336 22.8176 113.822 24.722C112.796 22.465 111.77 20.2079 110.779 17.9508C109.753 15.6233 107.063 14.7063 104.692 13.7189C99.1369 11.4265 93.6874 9.09896 88.1318 6.80664C89.2642 9.31056 90.3258 11.7439 91.4581 14.2126C91.5289 14.3184 91.5643 14.3889 91.5997 14.4595Z" fill="#36A048"/>
<path d="M113.539 26.0267C113.539 26.062 113.539 26.062 113.539 26.0267C111.911 23.946 110.284 21.8653 108.621 19.7845C107.028 17.8096 104.268 17.598 101.756 17.1748C95.8462 16.2579 89.9014 15.2704 84.0273 14.3535C85.7259 16.4695 87.3182 18.6208 89.0168 20.7015C89.1937 20.9483 89.4414 21.1599 89.6891 21.3363C91.3522 22.7117 93.6877 22.8527 95.8816 23.2054C96.8017 23.3465 97.7571 23.5228 98.6771 23.6639C103.596 24.475 108.55 25.2509 113.539 26.0267Z" fill="#36A048"/>
</g>
</g>
<defs>
<clipPath id="clip0">
<rect width="127" height="45" fill="white" transform="translate(0.126953)"/>
</clipPath>
<clipPath id="clip1">
<rect width="127" height="45" fill="white" transform="translate(0.126953)"/>
</clipPath>
</defs>
</svg>
