<svg width="76" height="50" viewBox="0 0 76 50" fill="none" xmlns="http://www.w3.org/2000/svg">
<path d="M14.1426 33.2957V16.7038C14.1426 3.30302 16.0549 1.38867 29.4421 1.38867H46.0655C59.4525 1.38867 61.3648 3.30302 61.3648 16.704V33.2957C61.3648 46.6967 59.4525 48.6109 46.0653 48.6109H29.4421C16.0551 48.6109 14.1426 46.6967 14.1426 33.2957Z" fill="url(#paint0_linear)"/>
<path d="M23.9424 9.72266C21.5535 24.7861 22.8033 38.8893 22.8033 38.8893H30.2709C29.5604 35.1288 27.0113 17.9485 29.1318 17.8918C30.2683 18.0712 35.4604 32.4672 35.4604 32.4672C35.4604 32.4672 36.6037 32.3256 37.7543 32.3256C38.9049 32.3256 40.0484 32.4672 40.0484 32.4672C40.0484 32.4672 45.2405 18.0714 46.3769 17.8918C48.4973 17.9485 45.9484 35.1288 45.2379 38.8891H52.7053C52.7053 38.8891 53.9553 24.7861 51.5662 9.72266H44.6524C43.3364 9.73812 38.3296 18.4741 37.7543 18.4741C37.179 18.4741 32.1722 9.73812 30.8562 9.72266H23.9424Z" fill="url(#paint1_linear)"/>
<path d="M36.3649 36.806C36.3649 37.3585 36.1454 37.8884 35.7547 38.2791C35.364 38.6698 34.8341 38.8893 34.2816 38.8893C33.729 38.8893 33.1991 38.6698 32.8084 38.2791C32.4177 37.8884 32.1982 37.3585 32.1982 36.806C32.1982 36.2535 32.4177 35.7236 32.8084 35.3329C33.1991 34.9422 33.729 34.7227 34.2816 34.7227C34.8341 34.7227 35.364 34.9422 35.7547 35.3329C36.1454 35.7236 36.3649 36.2535 36.3649 36.806Z" fill="url(#paint2_radial)"/>
<path d="M43.3092 36.806C43.3092 37.3585 43.0898 37.8884 42.6991 38.2791C42.3084 38.6698 41.7784 38.8893 41.2259 38.8893C40.6734 38.8893 40.1435 38.6698 39.7528 38.2791C39.3621 37.8884 39.1426 37.3585 39.1426 36.806C39.1426 36.2535 39.3621 35.7236 39.7528 35.3329C40.1435 34.9421 40.6734 34.7227 41.2259 34.7227C41.7784 34.7227 42.3084 34.9421 42.6991 35.3329C43.0898 35.7236 43.3092 36.2535 43.3092 36.806Z" fill="url(#paint3_radial)"/>
<path opacity="0.1" d="M51.2779 10.2206C52.3176 17.4779 52.5617 24.4427 52.5425 29.631C52.5229 34.9378 52.228 38.3855 52.228 38.3855H46.1631L45.5114 38.8893H52.7167C52.7167 38.8893 53.9225 24.7859 51.6174 9.72266L51.2779 10.2206ZM32.1849 10.0374C34.0776 12.2083 37.3513 17.9704 37.8024 17.9704C36.6023 16.3877 33.6543 11.3386 32.1849 10.0374ZM29.4829 17.388C27.4369 17.4448 29.8964 34.6252 30.582 38.3855H24.2922L23.8652 38.8893H31.0705C30.3884 35.1479 27.9506 18.1201 29.9408 17.8918C29.7556 17.6048 29.5955 17.4065 29.4829 17.388ZM46.1221 17.388C45.0256 17.5674 40.0159 31.9636 40.0159 31.9636C40.0159 31.9636 38.9128 31.8218 37.8024 31.8218C37.2666 31.8225 36.7311 31.8487 36.1977 31.9004L36.0774 32.4672C36.0774 32.4672 37.1807 32.3256 38.291 32.3256C39.4012 32.3256 40.5044 32.4672 40.5044 32.4672C40.5044 32.4672 45.4763 18.1657 46.5951 17.8918C46.4746 17.5769 46.3257 17.3937 46.1221 17.388Z" fill="black"/>
<path opacity="0.3" d="M23.9463 9.72285C21.5511 24.7861 22.8042 38.8893 22.8042 38.8893L23.245 38.3977C23.0196 35.0704 22.4168 23.0379 24.4541 10.2263H31.386C31.5329 10.2282 31.7299 10.3475 31.9572 10.5412C31.5033 10.0402 31.126 9.72571 30.8786 9.72285H23.9463ZM44.7113 9.72285C43.3919 9.73812 38.3718 18.4743 37.7948 18.4743C38.03 18.7728 38.2212 18.9781 38.3025 18.9781C38.8794 18.9781 43.8992 10.242 45.2187 10.2265H51.3363L51.6432 9.72266L44.7113 9.72285ZM29.6251 18.3956C31.3091 20.9049 35.4946 32.4674 35.4946 32.4674L35.6169 31.9036C34.5837 29.092 30.6461 18.5514 29.6569 18.3956C29.6461 18.3958 29.6357 18.3945 29.6251 18.3956ZM46.9476 18.3956C48.0771 21.254 45.939 35.505 45.2979 38.8893L45.9771 38.3633C46.8442 33.3161 48.9318 18.4485 46.9476 18.3956Z" fill="white"/>
<defs>
<linearGradient id="paint0_linear" x1="37.7537" y1="48.6111" x2="37.7537" y2="1.38867" gradientUnits="userSpaceOnUse">
<stop stop-color="#574C4A"/>
<stop offset="1" stop-color="#80716D"/>
</linearGradient>
<linearGradient id="paint1_linear" x1="49.6032" y1="38.4059" x2="32.9386" y2="6.53745" gradientUnits="userSpaceOnUse">
<stop stop-color="#268D83"/>
<stop offset="1" stop-color="#2EA19E"/>
</linearGradient>
<radialGradient id="paint2_radial" cx="0" cy="0" r="1" gradientUnits="userSpaceOnUse" gradientTransform="translate(33.9235 36.5021) scale(2.08322)">
<stop stop-color="#DB7C7C"/>
<stop offset="1" stop-color="#C83737"/>
</radialGradient>
<radialGradient id="paint3_radial" cx="0" cy="0" r="1" gradientUnits="userSpaceOnUse" gradientTransform="translate(40.9871 36.5021) scale(2.08333)">
<stop stop-color="#DB7C7C"/>
<stop offset="1" stop-color="#C83737"/>
</radialGradient>
</defs>
</svg>
