<svg width="135" height="48" viewBox="0 0 135 48" fill="none" xmlns="http://www.w3.org/2000/svg">
<g clip-path="url(#clip0)">
<path d="M10.7049 16.8956H18.7016L17.4643 21.5856C17.2943 22.2113 16.9214 22.7646 16.4028 23.1606C15.8872 23.5562 15.2507 23.7661 14.5983 23.7556H10.8818C10.0725 23.7445 9.2831 24.0034 8.64085 24.4906C7.98283 24.9944 7.50539 25.6936 7.27858 26.4856C7.11474 27.0675 7.09653 27.6801 7.2255 28.2706C7.344 28.8091 7.57765 29.3163 7.91077 29.7581C8.24829 30.1957 8.68448 30.5492 9.18458 30.7906C9.71222 31.0493 10.2941 31.1812 10.883 31.1756H13.1475C13.3498 31.1721 13.5499 31.2164 13.7314 31.3046C13.9129 31.3929 14.0706 31.5226 14.1914 31.6831C14.3237 31.8381 14.4146 32.0234 14.4558 32.2221C14.497 32.4208 14.4872 32.6266 14.4272 32.8206L13.0119 38.0006H10.535C8.90477 38.0167 7.29525 37.6382 5.84672 36.8981C4.45567 36.1958 3.23889 35.1978 2.2836 33.9756C1.33644 32.7547 0.677539 31.3395 0.355189 29.8339C0.0132092 28.2522 0.05606 26.6127 0.480211 25.0506L0.621746 24.5256C1.22029 22.3327 2.53165 20.3956 4.35354 19.0131C5.24699 18.343 6.24223 17.8173 7.30217 17.4556C8.39634 17.0803 9.54683 16.891 10.7049 16.8956Z" fill="#FF6C2C"/>
<path d="M14.7383 38.0005L21.71 12.1705C21.8801 11.5447 22.253 10.9915 22.7715 10.5955C23.2868 10.2002 23.9229 9.99029 24.5749 10.0005H31.9713C33.6015 9.98439 35.2111 10.3629 36.6596 11.103C38.0492 11.8043 39.2638 12.8024 40.2154 14.0252C41.167 15.248 41.8318 16.6648 42.1617 18.173C42.5159 19.7544 42.4672 21.3981 42.0202 22.9563L41.8787 23.4813C41.5803 24.5831 41.1023 25.6293 40.4633 26.5788C39.5179 27.9866 38.2345 29.1406 36.7278 29.9377C35.2212 30.7347 33.5383 31.15 31.8297 31.1463H25.4253L26.6991 26.4213C26.8761 25.8083 27.2484 25.2682 27.7606 24.8813C28.2762 24.4857 28.9128 24.2759 29.5652 24.2863H31.6174C32.444 24.2872 33.2473 24.016 33.9008 23.5153C34.5543 23.0147 35.0207 22.3132 35.2266 21.5213C35.39 20.961 35.4062 20.3687 35.2737 19.8005C35.1538 19.2616 34.9185 18.7544 34.5838 18.313C34.2438 17.8733 33.8085 17.5145 33.3099 17.263C32.7874 16.9943 32.2063 16.8561 31.6174 16.8605H27.6545L22.4885 35.8655C22.3115 36.4785 21.9392 37.0186 21.427 37.4055C20.9229 37.7972 20.2988 38.0071 19.6578 38.0005H14.7383Z" fill="#FF6C2C"/>
<path d="M58.8635 24.2106L58.9697 23.8256C58.9939 23.7465 58.9985 23.6628 58.9831 23.5816C58.9677 23.5003 58.9327 23.424 58.8812 23.3589C58.8276 23.2951 58.7598 23.2445 58.683 23.211C58.6062 23.1776 58.5227 23.1624 58.4389 23.1664H46.9392C46.4716 23.1729 46.0097 23.0647 45.5946 22.8514C45.2074 22.6551 44.869 22.3761 44.6039 22.0348C44.3405 21.6903 44.1591 21.2915 44.0732 20.8681C43.9778 20.4166 43.9899 19.9492 44.1085 19.5031L44.8162 16.8431H60.385C61.3086 16.833 62.2204 17.0494 63.0388 17.4731C63.8186 17.8729 64.5025 18.4339 65.0438 19.1181C65.5794 19.8061 65.954 20.603 66.1407 21.4514C66.3397 22.3471 66.3215 23.2766 66.0877 24.1639L63.2923 34.4539C63.0218 35.4729 62.4157 36.3736 61.5699 37.0137C60.7241 37.6539 59.6867 37.997 58.6217 37.9889L47.122 37.9539C46.1757 37.9597 45.2411 37.747 44.3924 37.3329C43.5437 36.9187 42.8044 36.3144 42.2332 35.5681C41.6829 34.841 41.2968 34.0055 41.1009 33.1181C40.8888 32.1876 40.9131 31.2196 41.1717 30.3006L41.3132 29.7756C41.4769 29.1242 41.7586 28.5076 42.1447 27.9556C42.52 27.4096 42.9797 26.9254 43.507 26.5206C44.0307 26.1211 44.6162 25.8079 45.2408 25.5931C45.8891 25.3695 46.5712 25.2571 47.2577 25.2606H56.9174L56.2097 27.8856C56.0319 28.4982 55.6597 29.0381 55.1482 29.4256C54.6439 29.817 54.02 30.0268 53.379 30.0206H49.0622C48.6604 30.0206 48.401 30.2189 48.2838 30.6156C48.2466 30.7319 48.2401 30.8556 48.2649 30.9751C48.2896 31.0945 48.3449 31.2057 48.4253 31.2981C48.5007 31.3934 48.5975 31.4699 48.7081 31.5216C48.8187 31.5732 48.94 31.5986 49.0622 31.5956H56.0328C56.2742 31.601 56.5106 31.5271 56.7051 31.3856C56.8901 31.2497 57.0165 31.0497 57.0589 30.8256L57.1297 30.5456L58.8635 24.2106Z" fill="#FF6C2C"/>
<path d="M79.4556 16.8961C81.0955 16.8782 82.715 17.2566 84.1734 17.9986C85.5616 18.7001 86.7763 19.696 87.7306 20.9153C88.6806 22.1432 89.3392 23.5666 89.6578 25.0803C89.999 26.6677 89.9447 28.3133 89.4998 29.8753L87.7306 36.4553C87.6216 36.9071 87.3515 37.3048 86.9699 37.5753C86.595 37.8511 86.1396 37.9985 85.6725 37.9953H81.8628C81.6587 38 81.4563 37.957 81.2721 37.8697C81.0879 37.7825 80.9272 37.6534 80.8029 37.4931C80.6787 37.3328 80.5944 37.1458 80.5571 36.9472C80.5197 36.7486 80.5302 36.5441 80.5878 36.3503L82.7109 28.4053C82.8752 27.8473 82.8935 27.2572 82.7639 26.6903C82.6439 26.1516 82.4091 25.6445 82.0751 25.2028C81.7345 24.7637 81.2994 24.4051 80.8013 24.1528C80.2769 23.8834 79.6938 23.7452 79.1029 23.7503H75.1399L71.7054 36.4611C71.5977 36.9135 71.3273 37.3116 70.9446 37.5811C70.56 37.8596 70.0944 38.007 69.6177 38.0011H65.8317C65.6296 38.0046 65.4297 37.9603 65.2483 37.8721C65.067 37.7838 64.9096 37.6541 64.7891 37.4936C64.657 37.3385 64.5663 37.1532 64.5251 36.9545C64.4839 36.7558 64.4935 36.5502 64.5532 36.3561L69.7899 16.8961H79.4556Z" fill="#FF6C2C"/>
<path d="M100.295 23.5633C100.013 23.7837 99.8035 24.0822 99.6936 24.4208L98.1013 30.3708C98.0576 30.527 98.0511 30.6911 98.0822 30.8501C98.1133 31.0092 98.1812 31.159 98.2805 31.2879C98.3799 31.4167 98.5081 31.521 98.655 31.5926C98.8019 31.6643 98.9636 31.7013 99.1274 31.7008H113.776L112.646 35.8658C112.469 36.4788 112.097 37.0189 111.585 37.4058C111.081 37.7975 110.457 38.0074 109.816 38.0008H96.4737C95.5521 38.0114 94.6416 37.8013 93.8199 37.3883C93.0348 36.9964 92.3494 36.4341 91.8148 35.7433C91.2815 35.0497 90.9072 34.2495 90.7179 33.3983C90.5171 32.5109 90.5476 31.5876 90.8064 30.715L92.9648 22.77C93.1937 21.9217 93.5645 21.1173 94.0617 20.39C95.0243 18.9633 96.4328 17.8877 98.0718 17.3275C98.9072 17.0362 99.7868 16.8882 100.673 16.89H110.12C111.044 16.8796 111.955 17.0961 112.774 17.52C113.554 17.9195 114.238 18.4805 114.779 19.165C115.315 19.8545 115.685 20.6568 115.858 21.51C116.047 22.4016 116.022 23.3243 115.787 24.205L115.15 26.585C114.894 27.6043 114.29 28.5049 113.44 29.1342C112.603 29.7655 111.576 30.1022 110.523 30.0908H99.8375L100.545 27.5008C100.7 26.8868 101.062 26.3434 101.571 25.9608C102.087 25.5653 102.723 25.3554 103.376 25.3658H107.693C108.094 25.3658 108.353 25.1675 108.471 24.7708L108.613 24.2458C108.645 24.1271 108.649 24.0027 108.625 23.8822C108.601 23.7616 108.549 23.6481 108.474 23.5502C108.399 23.4523 108.302 23.3726 108.191 23.3173C108.081 23.262 107.958 23.2324 107.834 23.2308H101.253C100.904 23.2281 100.566 23.3457 100.295 23.5633Z" fill="#FF6C2C"/>
<path d="M113.74 38.0006L120.852 11.5756C120.962 11.1201 121.23 10.7174 121.61 10.4381C121.991 10.1486 122.459 9.99446 122.94 10.0006H126.726C126.934 9.99447 127.14 10.0373 127.327 10.1256C127.515 10.2138 127.679 10.3449 127.805 10.5081C127.937 10.6632 128.028 10.8485 128.069 11.0472C128.11 11.2458 128.101 11.4515 128.041 11.6456L122.734 31.1406C122.486 32.1401 122.06 33.0881 121.477 33.9406C120.916 34.7631 120.222 35.4901 119.425 36.0931C118.626 36.6927 117.736 37.1651 116.789 37.4931C115.81 37.8337 114.778 38.0054 113.74 38.0006Z" fill="#FF6C2C"/>
<path d="M129.257 12.4578C129.256 12.0363 129.368 11.622 129.581 11.2573C129.794 10.8899 130.102 10.5846 130.473 10.3726C130.843 10.1605 131.264 10.0492 131.692 10.0498C132.119 10.0482 132.537 10.1585 132.906 10.3695C133.279 10.578 133.588 10.8823 133.8 11.2503C134.012 11.6138 134.124 12.0255 134.127 12.445C134.129 12.8646 134.021 13.2775 133.813 13.6432C133.601 14.0152 133.292 14.3248 132.919 14.5402C132.546 14.7557 132.122 14.8692 131.69 14.8692C131.258 14.8692 130.834 14.7557 130.461 14.5402C130.088 14.3248 129.779 14.0152 129.567 13.6432C129.361 13.2816 129.254 12.873 129.257 12.4578ZM129.597 12.4578C129.597 12.8221 129.694 13.1798 129.878 13.495C130.063 13.8103 130.328 14.0718 130.647 14.2533C130.965 14.4356 131.326 14.5315 131.693 14.5315C132.06 14.5315 132.421 14.4356 132.739 14.2533C133.056 14.0717 133.32 13.8116 133.504 13.4985C133.692 13.1839 133.79 12.8245 133.787 12.459C133.79 12.0955 133.692 11.7382 133.505 11.4253C133.322 11.1114 133.06 10.85 132.743 10.667C132.425 10.484 132.063 10.3876 131.695 10.3876C131.327 10.3876 130.965 10.484 130.646 10.667C130.329 10.8482 130.065 11.1079 129.881 11.4207C129.692 11.7343 129.594 12.0929 129.597 12.4578ZM132.68 11.8745C132.682 12.0359 132.634 12.1942 132.542 12.3272C132.447 12.4621 132.311 12.5645 132.155 12.62L132.926 13.8858H132.382L131.711 12.7518H131.275V13.8858H130.795V11.0333H131.636C131.99 11.0333 132.256 11.1022 132.424 11.241C132.512 11.3207 132.581 11.4192 132.626 11.5291C132.67 11.6391 132.688 11.7576 132.68 11.8757V11.8745ZM131.275 12.3575H131.629C131.779 12.3649 131.927 12.3176 132.045 12.2245C132.095 12.1838 132.136 12.1322 132.163 12.0738C132.19 12.0154 132.203 11.9516 132.202 11.8873C132.208 11.8231 132.199 11.7583 132.175 11.6984C132.151 11.6385 132.112 11.5852 132.063 11.5432C131.931 11.4629 131.777 11.4262 131.623 11.4382H131.28L131.275 12.3575Z" fill="#FF6C2C"/>
</g>
<defs>
<clipPath id="clip0">
<rect width="134" height="48" fill="white" transform="translate(0.126953)"/>
</clipPath>
</defs>
</svg>
